<?xml version="1.0" encoding="UTF-8" standalone="no"?>
<!-- Created with Inkscape (http://www.inkscape.org/) -->

<svg
   xmlns:dc="http://purl.org/dc/elements/1.1/"
   xmlns:cc="http://creativecommons.org/ns#"
   xmlns:rdf="http://www.w3.org/1999/02/22-rdf-syntax-ns#"
   xmlns:svg="http://www.w3.org/2000/svg"
   xmlns="http://www.w3.org/2000/svg"
   xmlns:sodipodi="http://sodipodi.sourceforge.net/DTD/sodipodi-0.dtd"
   xmlns:inkscape="http://www.inkscape.org/namespaces/inkscape"
   width="85.599998mm"
   height="53.98mm"
   viewBox="0 0 85.599998 53.98"
   version="1.1"
   id="svg81"
   inkscape:version="0.92.5 (2060ec1f9f, 2020-04-08)"
   sodipodi:docname="anhao-signature.svg">
  <defs
     id="defs75" />
  <sodipodi:namedview
     id="base"
     pagecolor="#ffffff"
     bordercolor="#666666"
     borderopacity="1.0"
     inkscape:pageopacity="0.0"
     inkscape:pageshadow="2"
     inkscape:zoom="1.4"
     inkscape:cx="154.49325"
     inkscape:cy="171.02185"
     inkscape:document-units="mm"
     inkscape:current-layer="layer1"
     showgrid="false"
     inkscape:window-width="1374"
     inkscape:window-height="937"
     inkscape:window-x="379"
     inkscape:window-y="243"
     inkscape:window-maximized="0" />
  <metadata
     id="metadata78">
    <rdf:RDF>
      <cc:Work
         rdf:about="">
        <dc:format>image/svg+xml</dc:format>
        <dc:type
           rdf:resource="http://purl.org/dc/dcmitype/StillImage" />
        <dc:title></dc:title>
      </cc:Work>
    </rdf:RDF>
  </metadata>
  <g
     inkscape:label="Layer 1"
     inkscape:groupmode="layer"
     id="layer1"
     transform="translate(0,-243.02)">
    <g
       transform="matrix(0.53188124,0,0,-0.53188124,-47.558459,605.97851)"
       inkscape:label="Anhao-signature"
       id="g91">
      <g
         id="g95">
        <g
           transform="matrix(0.5454546,0,0,-0.5454546,0,841.89)"
           id="g97">
          <path
             inkscape:connector-curvature="0"
             id="path99"
             style="fill:none;stroke:#000000;stroke-width:1.55905497;stroke-linecap:round;stroke-linejoin:round;stroke-miterlimit:10;stroke-dasharray:none;stroke-opacity:1"
             d="m 225.1365,357.2778 c 0,-1.2612 0,-1.9971 0,-2.2075 l 0.003,-0.0861 0.0154,0.2116 c 0.0121,0.231 0.0452,0.8657 0.0995,1.904 0.0543,1.0383 0.0686,2.0957 0.043,3.1722 -0.0255,1.0765 -0.1889,2.3754 -0.4901,3.8966 -0.3012,1.5212 -0.6972,3.311 -1.1881,5.3692 -0.4909,2.0582 -1.588,6.0821 -3.2914,12.0716 -1.7033,5.9895 -3.0204,10.6422 -3.9512,13.9582 -0.9308,3.316 -1.7286,6.24 -2.3933,8.7719 -0.6648,2.532 -1.1499,4.6281 -1.4553,6.2885 -0.3054,1.6604 -0.4766,2.9967 -0.5136,4.009 -0.037,1.0122 0.1303,1.3929 0.502,1.1421 0.3716,-0.2509 0.7505,-1.3204 1.1364,-3.2085 0.386,-1.8882 0.7002,-3.611 0.9426,-5.1685 0.2425,-1.5575 0.5997,-4.2318 1.0718,-8.0228 0.472,-3.791 0.8576,-6.7225 1.1567,-8.7945 0.299,-2.072 0.8366,-4.9198 1.6127,-8.5436 0.7761,-3.6237 1.3716,-6.2176 1.7867,-7.7816 0.4151,-1.564 0.9334,-3.2789 1.555,-5.1446 0.6216,-1.8658 1.1919,-3.2344 1.711,-4.1057 0.519,-0.8712 0.9479,-1.3678 1.2867,-1.4898 0.3388,-0.1219 0.687,0.224 1.0445,1.0376 0.3575,0.8137 0.7035,2.4137 1.0382,4.8 0.3346,2.3863 0.635,5.4322 0.9012,9.1378 0.2661,3.7056 0.4927,7.6714 0.6796,11.8974 0.187,4.226 0.3403,7.3194 0.4599,9.2802 0.1196,1.9609 0.2537,3.7717 0.4021,5.4325 0.1485,1.6609 0.324,3.1884 0.5266,4.5826 0.2026,1.3941 0.4078,2.4712 0.6158,3.231 0.208,0.7599 0.4208,1.3189 0.6386,1.6771 0.2177,0.3581 0.3341,0.5496 0.3491,0.5744 0.0151,0.0247 -0.0322,-0.0112 -0.1417,-0.1078 -0.1096,-0.0967 -0.9566,-0.844 -2.5411,-2.2419 -1.5845,-1.3979 -3.1411,-2.8861 -4.67,-4.4646 -1.5288,-1.5785 -2.8098,-2.9842 -3.8431,-4.2172 -1.0332,-1.233 -1.6914,-2.1249 -1.9746,-2.6758 -0.2832,-0.5508 -0.4686,-1.24 -0.556,-2.0675 -0.0875,-0.8275 0.0305,-1.4657 0.3539,-1.9145 0.3235,-0.4489 1.6105,-1.2332 3.8611,-2.3529 2.2507,-1.1198 3.8,-1.8506 4.6482,-2.1926 0.8481,-0.342 1.6943,-0.61 2.5385,-0.8041 0.8442,-0.1941 1.6755,-0.3137 2.4937,-0.3587 0.8182,-0.045 1.537,0.039 2.1564,0.252 0.6194,0.2129 1.1648,0.6531 1.6363,1.3204 0.4715,0.6673 0.893,1.4981 1.2643,2.4923 0.3714,0.9942 0.7545,3.2487 1.1493,6.7636 0.3948,3.5148 0.654,5.4551 0.7775,5.8209 0.1236,0.3657 0.4284,-0.0613 0.9142,-1.2813 0.4859,-1.22 1.1695,-3.1649 2.0506,-5.8348 0.8812,-2.6698 1.5499,-4.5746 2.0063,-5.7141 0.4563,-1.1396 0.9249,-2.1629 1.4057,-3.07 0.4808,-0.9071 0.9202,-1.5691 1.3181,-1.986 0.3979,-0.4169 0.7533,-0.659 1.0661,-0.7263 0.3129,-0.0673 0.5916,0.0588 0.8362,0.3783 0.2446,0.3194 0.4858,1.933 0.7237,4.8406 0.2379,2.9076 0.3605,6.1663 0.3679,9.7759 0.007,3.6097 0.0239,5.6591 0.0496,6.1483 0.0258,0.4892 0.0411,0.7792 0.0458,0.87" />
        </g>
        <g
           transform="matrix(0.5454546,0,0,-0.5454546,0,841.89)"
           id="g101">
          <path
             inkscape:connector-curvature="0"
             id="path103"
             style="fill:none;stroke:#000000;stroke-width:1.55905497;stroke-linecap:round;stroke-linejoin:round;stroke-miterlimit:10;stroke-dasharray:none;stroke-opacity:1"
             d="m 258.3852,361.1796 c -0.322,-1.4432 -0.4938,-2.213 -0.5153,-2.3094 -0.0152,-0.0679 -0.007,-0.0615 0.024,0.0192 0.0311,0.0806 0.2155,0.558 0.553,1.4322 0.3375,0.8741 0.6387,1.9468 0.9034,3.218 0.2648,1.2712 0.5043,2.7859 0.7185,4.5441 0.2142,1.7582 0.3874,3.6367 0.5198,5.6354 0.1323,1.9988 0.2179,4.1983 0.2568,6.5985 0.0388,2.4002 0.009,4.9836 -0.0895,7.7502 -0.0986,2.7666 -0.3319,5.3852 -0.7001,7.8558 -0.3683,2.4706 -1.0293,5.8341 -1.9832,10.0907 -0.9538,4.2565 -1.4381,6.2365 -1.4527,5.9401 -0.0146,-0.2964 -0.0511,-1.0374 -0.1095,-2.2231 -0.0584,-1.1857 0.0446,-2.4398 0.3091,-3.7622 0.2645,-1.3225 0.6148,-2.6607 1.0508,-4.0147 0.436,-1.3539 0.9062,-2.6966 1.4105,-4.0281 0.5044,-1.3315 1.0378,-2.6491 1.6002,-3.9528 0.5624,-1.3037 1.1319,-2.494 1.7087,-3.5711 0.5767,-1.077 1.1499,-2.0371 1.7195,-2.8804 0.5696,-0.8433 1.156,-1.5374 1.759,-2.0822 0.6031,-0.5449 1.1353,-0.8574 1.5966,-0.9375 0.4613,-0.08 0.8644,0.1062 1.2092,0.5587 0.3447,0.4525 0.6282,1.1204 0.8504,2.0036 0.2222,0.8831 0.4053,2.4997 0.5492,4.8496 0.1439,2.35 0.2178,6.0928 0.2219,11.2286 0.004,5.1357 0.0615,7.8588 0.1724,8.1692 0.1575,0.4407 0.9582,0.5527 2.4023,0.3361" />
        </g>
        <g
           transform="matrix(0.5454546,0,0,-0.5454546,0,841.89)"
           id="g105">
          <path
             inkscape:connector-curvature="0"
             id="path107"
             style="fill:none;stroke:#000000;stroke-width:1.55905497;stroke-linecap:round;stroke-linejoin:round;stroke-miterlimit:10;stroke-dasharray:none;stroke-opacity:1"
             d="m 288.0985,388.0406 c 0.1221,-0.6019 -0.1133,-1.4857 -0.7062,-2.6515 -0.3818,-0.7505 -0.7369,-1.2577 -1.0655,-1.5215 -0.3286,-0.2638 -0.6856,-0.3723 -1.0712,-0.3257 -0.3855,0.0466 -0.8891,0.5664 -1.5107,1.5596 -0.6216,0.9932 -1.3604,2.3871 -2.2165,4.1816 -0.8561,1.7945 -1.4998,3.2439 -1.9311,4.3481 -0.4313,1.1043 -0.8306,2.2553 -1.198,3.4532 -0.3674,1.1977 -0.6761,2.4546 -0.9261,3.7705 -0.2501,1.3159 -0.3902,3.0207 -0.4202,5.1144 -0.0301,2.0937 0.1735,3.5019 0.6107,4.2245 0.4372,0.7227 0.9763,1.2128 1.6173,1.4706 0.641,0.2577 1.3434,0.3995 2.1072,0.4253 0.7638,0.0258 1.5508,-0.1072 2.3609,-0.3988 0.8102,-0.2917 1.5801,-0.7943 2.3096,-1.5079 0.7295,-0.7135 1.4293,-1.5665 2.0996,-2.559 0.6702,-0.9924 1.3119,-2.0819 1.925,-3.2685 0.6131,-1.1867 1.1508,-2.383 1.6131,-3.589 0.4624,-1.2061 1.007,-2.8627 1.6338,-4.9699 0.6268,-2.1072 0.9838,-3.5922 1.0712,-4.4551 0.0873,-0.8628 0.1092,-1.2561 0.0657,-1.1798 -0.0435,0.0764 -0.1523,0.2671 -0.3263,0.5724 -0.1741,0.3052 -0.3121,0.8556 -0.4142,1.651 -0.102,0.7955 -0.1288,2.2204 -0.0803,4.2748 0.0485,2.0543 0.2634,3.6232 0.6447,4.7066 0.3813,1.0833 0.8769,2.1685 1.4867,3.2555 0.6098,1.087 1.3249,2.107 2.1453,3.06 0.8204,0.953 1.7153,1.7746 2.6847,2.4647 0.9694,0.6902 1.9933,1.2329 3.0714,1.6281 1.0782,0.3952 2.132,0.6126 3.1614,0.6521 1.0293,0.0396 2.0008,-0.0858 2.9143,-0.3761 0.9135,-0.2903 1.7573,-0.8177 2.5312,-1.5823 0.774,-0.7646 1.413,-1.6873 1.917,-2.7679 0.504,-1.0807 0.9604,-2.3019 1.3692,-3.6637 0.4088,-1.3618 0.7531,-2.7887 1.0328,-4.2809 0.2798,-1.4922 0.4465,-2.9366 0.5001,-4.3331 0.0536,-1.3965 0.0446,-2.6539 -0.0268,-3.7721 -0.0714,-1.1183 -0.2729,-2.0596 -0.6042,-2.8239 -0.3314,-0.7642 -0.7441,-1.2645 -1.238,-1.5009 -0.4939,-0.2363 -1.0087,-0.3663 -1.5444,-0.3899 -0.5358,-0.0236 -1.1291,0.1776 -1.7799,0.6038 -0.6509,0.4262 -1.2947,1.0284 -1.9315,1.8066 -0.6367,0.7782 -1.26,1.6412 -1.8698,2.5889 -0.6097,0.9477 -1.2139,1.9839 -1.8124,3.1084 -0.5986,1.1246 -1.1453,2.2996 -1.6403,3.525 -0.495,1.2255 -0.9166,2.4847 -1.2648,3.7778 -0.3481,1.293 -0.6078,2.5607 -0.7792,3.803 -0.2485,1.8019 0.5583,3.8692 2.4203,6.2019" />
        </g>
        <g
           transform="matrix(0.5454546,0,0,-0.5454546,-2.232901,839.285)"
           id="g109">
          <path
             inkscape:connector-curvature="0"
             id="path111"
             style="fill:none;stroke:#000000;stroke-width:1.55905497;stroke-linecap:round;stroke-linejoin:round;stroke-miterlimit:10;stroke-dasharray:none;stroke-opacity:1"
             d="m 367.1807,365.9755 c -0.9206,-3.6988 -1.4401,-5.8431 -1.5585,-6.4326 -0.0829,-0.4129 -0.1275,-0.6351 -0.1338,-0.6666 -0.006,-0.0314 -0.01,0.0189 -0.01,0.1509 -2e-4,0.1321 -0.002,1.0648 -0.005,2.7984 -0.003,1.7335 0.1236,5.2519 0.3795,10.5551 0.2559,5.3033 0.418,8.9929 0.4863,11.0688 0.0684,2.0758 0.1204,5.1065 0.1561,9.0921 0.0356,3.9855 0.0678,7.2202 0.0966,9.7039 0.0288,2.4838 -0.6758,3.7902 -2.1137,3.9194 -1.4379,0.1291 -2.9161,0.0379 -4.4346,-0.2734 -1.5185,-0.3114 -2.8212,-0.6938 -3.908,-1.1472 -1.0869,-0.4534 -1.8032,-0.7868 -2.149,-1.0003 -0.3457,-0.2134 -0.5658,-0.6159 -0.6602,-1.2074 -0.0943,-0.5915 -0.0608,-1.1339 0.1004,-1.6271 0.2302,-0.704 1.8544,-2.6826 4.8728,-5.9358" />
        </g>
        <g
           transform="matrix(0.5454546,0,0,-0.5454546,-2.232901,839.285)"
           id="g113">
          <path
             inkscape:connector-curvature="0"
             id="path115"
             style="fill:none;stroke:#000000;stroke-width:1.55905497;stroke-linecap:round;stroke-linejoin:round;stroke-miterlimit:10;stroke-dasharray:none;stroke-opacity:1"
             d="m 372.9594,392.4258 c 0.9454,0.8363 1.7212,2.1755 2.3275,4.0176 0.3972,1.2066 0.6916,2.8988 0.8832,5.0767 0.1916,2.1779 0.3329,3.4866 0.4239,3.9263 0.091,0.4396 0.3118,0.6762 0.6623,0.7098 0.4956,0.0476 0.9217,-1.5842 1.2781,-4.8955" />
        </g>
        <g
           transform="matrix(0.5454546,0,0,-0.5454546,-2.232901,839.285)"
           id="g117">
          <path
             inkscape:connector-curvature="0"
             id="path119"
             style="fill:none;stroke:#000000;stroke-width:1.55905497;stroke-linecap:round;stroke-linejoin:round;stroke-miterlimit:10;stroke-dasharray:none;stroke-opacity:1"
             d="m 375.4003,383.5083 c -0.2065,-1.178 -0.0572,-1.7728 0.4476,-1.7842" />
        </g>
        <g
           transform="matrix(0.5454546,0,0,-0.5454546,-2.232901,839.285)"
           id="g121">
          <path
             inkscape:connector-curvature="0"
             id="path123"
             style="fill:none;stroke:#000000;stroke-width:1.55905497;stroke-linecap:round;stroke-linejoin:round;stroke-miterlimit:10;stroke-dasharray:none;stroke-opacity:1"
             d="m 392.4962,385.1634 c -1.0494,0.5101 -2.1633,1.8169 -3.3418,3.9205 -0.7578,1.3525 -1.4714,2.929 -2.1409,4.7295 -0.6694,1.8005 -1.1329,3.186 -1.3903,4.1566 -0.2574,0.9706 -0.4501,1.9234 -0.5783,2.8583 -0.1281,0.935 -0.1864,2.1457 -0.1749,3.6321 0.0115,1.4863 0.1549,2.4101 0.4304,2.7714 0.2755,0.3612 0.6275,0.627 1.0561,0.7975 0.4286,0.1704 0.8819,0.2514 1.3599,0.2429 0.478,-0.009 0.9841,-0.2308 1.5183,-0.6665 0.5342,-0.4359 1.0711,-1.0018 1.6109,-1.6978 0.5398,-0.696 1.0414,-1.4881 1.505,-2.3765 0.4635,-0.8883 1.0796,-2.4028 1.8481,-4.5435 0.7686,-2.1408 1.3279,-4.0779 1.6777,-5.8116 0.3498,-1.7337 0.5622,-2.9178 0.6372,-3.5522 0.075,-0.6344 0.1147,-0.9706 0.1192,-1.0085 l 0.003,-0.0279 -0.005,0.0302 c -0.006,0.0394 -0.0613,0.3891 -0.1652,1.0492 -0.104,0.6599 -0.1492,1.9641 -0.1358,3.9124 0.0134,1.9482 0.2133,3.4767 0.5997,4.5852 0.3864,1.1086 0.8549,2.1373 1.4055,3.0861 0.5506,0.9488 1.1777,1.7968 1.8812,2.5441 0.7036,0.7473 1.5001,1.3886 2.3896,1.9239 0.8894,0.5352 1.7413,0.8712 2.5555,1.0079 0.8143,0.1366 1.629,0.199 2.4442,0.1871 0.8152,-0.0119 1.6049,-0.3031 2.369,-0.8736 0.7642,-0.5704 1.4276,-1.3319 1.9904,-2.2845 0.5628,-0.9525 1.06,-2.0073 1.4917,-3.1643 0.4317,-1.1571 0.7801,-2.3371 1.0451,-3.5402 0.265,-1.2031 0.4236,-2.3541 0.4757,-3.4531 0.0521,-1.0989 0.0125,-2.1511 -0.1188,-3.1564 -0.1314,-1.0054 -0.434,-1.8846 -0.9079,-2.6376 -0.4738,-0.7529 -1.0331,-1.2758 -1.6778,-1.5686 -0.6447,-0.2928 -1.3235,-0.4538 -2.0364,-0.4831 -0.713,-0.0292 -1.4464,0.1593 -2.2003,0.5658 -0.7539,0.4064 -1.4629,0.9562 -2.127,1.6493 -0.6642,0.693 -1.2769,1.4548 -1.8382,2.2852 -0.5613,0.8305 -1.0706,1.6679 -1.5277,2.5121 -0.4572,0.8442 -0.8324,1.6891 -1.1255,2.5347 -0.4232,1.2206 -0.4983,3.5739 -0.2254,7.0599" />
        </g>
        <g
           transform="matrix(0.5821267,0,0,-0.8759592,115.1886,648.7611)"
           id="g125" />
        <g
           transform="matrix(0.5904729,0,0,-0.7086724,189.9884,643.9851)"
           id="g127" />
      </g>
    </g>
  </g>
</svg>
