<?xml version="1.0" encoding="UTF-8" standalone="no"?>
<!-- Created with Inkscape (http://www.inkscape.org/) -->

<svg
   xmlns:dc="http://purl.org/dc/elements/1.1/"
   xmlns:cc="http://creativecommons.org/ns#"
   xmlns:rdf="http://www.w3.org/1999/02/22-rdf-syntax-ns#"
   xmlns:svg="http://www.w3.org/2000/svg"
   xmlns="http://www.w3.org/2000/svg"
   xmlns:sodipodi="http://sodipodi.sourceforge.net/DTD/sodipodi-0.dtd"
   xmlns:inkscape="http://www.inkscape.org/namespaces/inkscape"
   width="85.599998mm"
   height="53.98mm"
   viewBox="0 0 85.599997 53.980002"
   version="1.1"
   id="svg8"
   inkscape:version="0.92.5 (2060ec1f9f, 2020-04-08)"
   sodipodi:docname="kehao-signature.svg">
  <defs
     id="defs2" />
  <sodipodi:namedview
     id="base"
     pagecolor="#ffffff"
     bordercolor="#666666"
     borderopacity="1.0"
     inkscape:pageopacity="0.0"
     inkscape:pageshadow="2"
     inkscape:zoom="1.979899"
     inkscape:cx="129.07616"
     inkscape:cy="119.46098"
     inkscape:document-units="mm"
     inkscape:current-layer="layer1"
     showgrid="false"
     inkscape:window-width="1525"
     inkscape:window-height="965"
     inkscape:window-x="427"
     inkscape:window-y="248"
     inkscape:window-maximized="0"
     units="mm" />
  <metadata
     id="metadata5">
    <rdf:RDF>
      <cc:Work
         rdf:about="">
        <dc:format>image/svg+xml</dc:format>
        <dc:type
           rdf:resource="http://purl.org/dc/dcmitype/StillImage" />
        <dc:title></dc:title>
      </cc:Work>
    </rdf:RDF>
  </metadata>
  <g
     inkscape:label="Layer 1"
     inkscape:groupmode="layer"
     id="layer1"
     style="display:inline"
     transform="translate(0,-243.01999)">
    <g
       transform="matrix(0.27087185,0,0,-0.25676847,2.3907688,464.55532)"
       inkscape:label="Kehao-signature"
       id="g3740"
       style="stroke-width:1.04574823">
      <g
         id="g3754"
         transform="translate(-55.61768,163.25267)"
         inkscape:label="g3754"
         style="stroke-width:1.04574823">
        <path
           inkscape:connector-curvature="0"
           id="path3756"
           style="fill:#000000;fill-opacity:1;fill-rule:nonzero;stroke:none;stroke-width:1.04574823"
           d="m 72.18411,613.2837 c 0.19991,-1.2129 0.32839,-2.4377 0.37768,-3.666 v 0 c 0.03022,-0.7533 0.66539,-1.3395 1.41869,-1.3092 0.75329,0.0302 1.33946,0.6654 1.30923,1.4187 -0.0015,0.0363 -0.0044,0.0727 -0.0087,0.1088 -0.16169,1.3396 -0.4338,2.6651 -0.80448,3.9623 v 0 c -0.17856,0.6249 -0.82983,0.9867 -1.45468,0.8081 -0.57461,-0.1642 -0.93488,-0.733 -0.8377,-1.3227 z m 0.37685,-3.6389 c 0.02429,-1.2011 0.02514,-2.4028 0.02492,-3.6041 v 0 c -1.4e-4,-0.8305 0.67298,-1.5039 1.50346,-1.504 0.83048,-2e-4 1.50383,0.673 1.50398,1.5034 0,0.0266 -6.9e-4,0.0531 -0.0021,0.0797 -0.066,1.2489 -0.1391,2.5038 -0.31377,3.7431 v 0 c -0.10522,0.7466 -0.79569,1.2664 -1.54222,1.1612 -0.68404,-0.0964 -1.18823,-0.6886 -1.17426,-1.3793 z m 3.19995,-9.504 c -0.02397,1.9934 -0.06449,3.9879 -0.16969,5.9789 h 10e-6 c -0.04382,0.8294 -0.75164,1.4661 -1.58096,1.4223 -0.79844,-0.0421 -1.42425,-0.7018 -1.42439,-1.5013 -3.2e-4,-1.9686 -0.01382,-3.9371 -0.03061,-5.9056 v 0 c -0.0075,-0.8852 0.70395,-1.6089 1.58918,-1.6165 0.88523,-0.007 1.60897,0.704 1.61652,1.5892 9e-5,0.011 7e-5,0.022 -6e-5,0.033 z m -0.09662,-7.4444 c 0.09002,2.4802 0.12649,4.9627 0.09662,7.4444 v 0 c -0.01066,0.8852 -0.73689,1.5941 -1.62209,1.5835 -0.87235,-0.0105 -1.57612,-0.7168 -1.58355,-1.5892 -0.02081,-2.4405 -0.07916,-4.8807 -0.16765,-7.3197 v 0 c -0.03283,-0.9049 0.67407,-1.665 1.57889,-1.6978 0.90482,-0.0329 1.66494,0.674 1.69778,1.5788 z m -0.4282,-7.6337 c 0.19364,2.5414 0.33576,5.0867 0.4282,7.6337 v 0 c 0.03284,0.9049 -0.67405,1.665 -1.57887,1.6978 -0.90483,0.0329 -1.66496,-0.674 -1.6978,-1.5788 0,0 0,0 0,0 -0.09087,-2.5045 -0.22864,-5.0074 -0.41514,-7.5066 v 0 c -0.06726,-0.9013 0.60884,-1.6864 1.51012,-1.7537 0.90028,-0.0672 1.6849,0.6074 1.75349,1.5076 z m -0.49402,-8.2055 c 0.12829,2.7372 0.28581,5.4732 0.49402,8.2055 v 0 c 0.06867,0.9012 -0.6062,1.6874 -1.50736,1.756 -0.90117,0.0687 -1.68738,-0.6062 -1.75606,-1.5073 -6e-5,-9e-4 -1.3e-4,-0.002 -1.9e-4,-0.003 -0.20186,-2.7053 -0.53691,-5.3999 -0.94732,-8.081 v 0 c -0.1563,-1.021 0.5447,-1.9754 1.56572,-2.1317 1.02101,-0.1563 1.97541,0.5447 2.13171,1.5657 0.0099,0.0648 0.01642,0.13 0.01948,0.1954 z m -0.25316,-5.4382 c 0.0817,1.8129 0.1682,3.6255 0.25316,5.4382 v 0 c 0.04836,1.0318 -0.74886,1.9074 -1.78064,1.9558 -0.95593,0.0448 -1.79147,-0.6392 -1.93627,-1.5852 -0.18394,-1.2016 -0.36519,-2.4038 -0.52886,-3.6083 -0.08969,-0.6601 -0.18882,-1.3244 -0.22521,-1.9902 h -1e-5 c -0.06363,-1.1645 0.82875,-2.16 1.99319,-2.2237 1.16445,-0.0636 2.16,0.8288 2.22364,1.9932 3.7e-4,0.007 7e-4,0.0135 0.001,0.0202 z m -0.43786,-2.139 v 0 c 0.70185,0.6555 0.87287,1.7021 0.41618,2.5469 l 7e-4,-10e-4 c -0.17212,1.1534 -1.24667,1.9489 -2.40008,1.7768 -0.99134,-0.1479 -1.74208,-0.9724 -1.79677,-1.9732 -0.0262,-0.4796 -0.01586,-0.97 0.13781,-1.4299 0.26128,-0.7817 0.93055,-1.384 1.75357,-1.5154 0.68723,-0.1097 1.38434,0.1251 1.88859,0.596 z m 7e-5,10e-5 c 0.30964,0.2892 0.54538,0.6489 0.76437,1.0087 0.25567,0.4201 0.49031,0.8532 0.72026,1.2877 v 0 c 0.53219,1.0057 0.14832,2.2524 -0.8574,2.7846 -0.96701,0.5117 -2.16535,0.1783 -2.72918,-0.7592 -0.21217,-0.3529 -0.42667,-0.7051 -0.65804,-1.0458 -0.05274,-0.0777 -0.10616,-0.1553 -0.1637,-0.2295 -0.10649,-0.1373 0.45453,0.5616 -0.14043,-0.1536 v 0 c -0.74563,-0.8964 -0.6234,-2.2275 0.27299,-2.9732 0.81774,-0.6802 2.0138,-0.6458 2.79113,0.0803 z m 1.48462,2.2964 c 0.75546,1.4276 1.49053,2.866 2.22441,4.3048 v 0 c 0.49414,0.9688 0.10937,2.1547 -0.8594,2.6489 -0.94911,0.4841 -2.11113,0.1255 -2.62236,-0.8093 -0.75661,-1.3835 -1.51644,-2.7675 -2.32922,-4.119 v 0 c -0.58638,-0.9751 -0.27127,-2.241 0.70384,-2.8274 0.9751,-0.5864 2.24094,-0.2712 2.82732,0.7039 0.01936,0.0322 0.03784,0.0649 0.05542,0.0981 z m 2.2204,4.297 c 0.94804,1.8383 1.79509,3.7293 2.62503,5.6231 1.23097,2.809 2.40547,5.6426 3.56075,8.4834 v 0 c 0.23743,0.5838 -0.04337,1.2495 -0.62719,1.487 -0.52437,0.2132 -1.12581,0.01 -1.41313,-0.4779 -1.55262,-2.6356 -3.09813,-5.2754 -4.62206,-7.9276 -1.01873,-1.773 -2.03217,-3.5498 -3.00535,-5.3483 v 0 c -0.51755,-0.9565 -0.16173,-2.1514 0.79474,-2.669 0.95647,-0.5175 2.1514,-0.1617 2.66895,0.7948 0.0062,0.0114 0.01229,0.0229 0.01826,0.0345 z" />
        <path
           inkscape:connector-curvature="0"
           id="path3758"
           style="fill:#000000;fill-opacity:1;fill-rule:nonzero;stroke:none;stroke-width:1.04574823"
           d="m 95.76304,612.1515 v 0 c 0.02423,-0.7982 0.69093,-1.4256 1.48911,-1.4013 0.78963,0.0239 1.41385,0.6772 1.40184,1.4672 -0.0099,0.6532 -0.25041,1.322 -0.8309,1.6786 -0.52892,0.325 -1.15562,0.2668 -1.68564,-0.0134 v 0 c -0.56521,-0.2988 -0.78118,-0.9992 -0.48238,-1.5644 0.03111,-0.0589 0.06724,-0.1149 0.108,-0.1676 z m 2.25781,-2.5433 c 0.38058,0.8136 0.64691,1.7039 0.63314,2.6092 v 0 c -0.01214,0.7984 -0.66926,1.4359 -1.46771,1.4237 -0.61348,-0.009 -1.15426,-0.4048 -1.34908,-0.9866 -0.17294,-0.5164 -0.44334,-0.9995 -0.73138,-1.4594 v 0 c -0.4874,-0.7782 -0.25165,-1.8041 0.52654,-2.2915 0.7782,-0.4874 1.80416,-0.2517 2.29155,0.5265 0.03591,0.0574 0.06828,0.1168 0.09694,0.1781 z m -1.58479,-2.8186 c 0.5728,0.9118 1.12809,1.8422 1.58479,2.8186 v 0 c 0.38904,0.8317 0.03017,1.8214 -0.80157,2.2104 -0.76084,0.3559 -1.66763,0.0884 -2.11347,-0.6235 -0.51773,-0.8266 -1.07518,-1.6286 -1.63853,-2.4246 v 0 c -0.56957,-0.8047 -0.37891,-1.9189 0.42584,-2.4884 0.80475,-0.5696 1.91886,-0.3789 2.48843,0.4258 0.01892,0.0267 0.03709,0.054 0.05451,0.0817 z m -2.47939,-3.6557 c 0.85866,1.196 1.69607,2.4088 2.47939,3.6557 v 0 c 0.52445,0.8349 0.27282,1.9368 -0.56204,2.4613 -0.80256,0.5041 -1.8592,0.2932 -2.40674,-0.4804 -0.81978,-1.1583 -1.66127,-2.3012 -2.51127,-3.4374 v 0 c -0.61541,-0.8227 -0.4474,-1.9885 0.37525,-2.6039 0.82266,-0.6154 1.98844,-0.4474 2.60385,0.3753 0.0073,0.01 0.01447,0.0195 0.02156,0.0294 z m -3.52411,-4.4474 c 1.23046,1.4366 2.42068,2.9105 3.5241,4.4474 v 0 c 0.59917,0.8346 0.40834,1.9968 -0.42622,2.596 -0.823,0.5909 -1.96752,0.4145 -2.57442,-0.3968 -1.07619,-1.4386 -2.21686,-2.8286 -3.38672,-4.1917 v 0 c -0.67828,-0.7903 -0.58744,-1.9809 0.20289,-2.6592 0.79034,-0.6782 1.98089,-0.5874 2.65917,0.2029 4e-4,5e-4 8.1e-4,10e-4 0.0012,10e-4 h -10e-6 z m -4.45149,-4.7772 c 1.54475,1.534 3.03517,3.1236 4.4515,4.7772 v 0 c 0.6775,0.7911 0.58549,1.9815 -0.20552,2.659 -0.79045,0.677 -1.97994,0.5857 -2.65775,-0.2041 -1.35206,-1.5754 -2.77474,-3.0897 -4.24864,-4.5515 v 0 c -0.74049,-0.7344 -0.74541,-1.93 -0.011,-2.6705 0.73441,-0.7405 1.93005,-0.7454 2.67054,-0.011 2.9e-4,3e-4 5.8e-4,6e-4 8.7e-4,9e-4 z m -4.75622,-4.3392 c 1.65271,1.3702 3.23314,2.8266 4.75622,4.3392 v 0 c 0.74001,0.7349 0.74415,1.9305 0.0093,2.6705 -0.73456,0.7397 -1.92953,0.7442 -2.66967,0.0101 -1.44413,-1.4323 -2.94166,-2.8123 -4.50769,-4.1107 v 0 c -0.80333,-0.666 -0.91464,-1.8571 -0.24862,-2.6605 0.66602,-0.8033 1.85716,-0.9146 2.66049,-0.2486 0,0 0,0 1e-5,0 z m -4.16015,-3.4192 c 1.39267,1.1325 2.77833,2.2736 4.16016,3.4192 v 0 c 0.80332,0.666 0.91462,1.8572 0.24859,2.6605 -0.66602,0.8033 -1.85716,0.9146 -2.66048,0.2486 -1.34366,-1.114 -2.7141,-2.1975 -4.13029,-3.2182 v 0 c -0.87797,-0.6328 -1.07675,-1.8575 -0.44398,-2.7355 0.63278,-0.8779 1.85748,-1.0767 2.73546,-0.4439 0.03085,0.0222 0.06104,0.0453 0.09054,0.0693 z m -3.03924,-2.6551 c 0.9697,0.9327 1.99568,1.8066 3.03924,2.6551 v 0 c 0.83968,0.6828 0.96687,1.917 0.2841,2.7567 -0.65484,0.8053 -1.82406,0.9603 -2.66611,0.3534 -1.17093,-0.8439 -2.32792,-1.7092 -3.44532,-2.6232 v 0 c -0.89861,-0.735 -1.03122,-2.0593 -0.2962,-2.9579 0.73502,-0.8986 2.05934,-1.0312 2.95795,-0.2962 0.0436,0.0356 0.08575,0.073 0.12634,0.1121 z m -1.50009,-1.6338 c 0.14928,0.2208 0.328,0.4231 0.50641,0.6205 0.3173,0.3509 0.65278,0.6854 0.99368,1.0133 v 0 c 0.83669,0.8048 0.86255,2.1355 0.05775,2.9722 -0.75943,0.7895 -1.99789,0.8634 -2.84584,0.1698 -0.76993,-0.6297 -1.54592,-1.2733 -2.21925,-2.0081 v 0 c -0.83575,-0.9121 -0.77385,-2.329 0.13825,-3.1648 0.91209,-0.8357 2.329,-0.7738 3.16474,0.1383 0.07436,0.0811 0.14263,0.1676 0.20426,0.2588 z m -0.04793,-0.0737 c 0.01569,0.0248 0.03152,0.0494 0.04794,0.0737 v 0 c 0.69278,1.0249 0.42354,2.4174 -0.60137,3.1102 -0.9197,0.6216 -2.15598,0.4759 -2.90592,-0.3426 -0.50702,-0.5533 -0.9822,-1.1669 -1.22174,-1.8874 v 0 c -0.41945,-1.2616 0.26324,-2.6243 1.52483,-3.0438 1.26158,-0.4194 2.62433,0.2633 3.04377,1.5249 0.06084,0.183 0.09948,0.3726 0.11507,0.5648 l -0.0026,2e-4 z m -1.16531,-2.9594 v 0 c 1.39693,-0.2026 2.69366,0.7655 2.89632,2.1624 0.20266,1.397 -0.76549,2.6937 -2.16241,2.8964 -0.04798,0.007 -0.09615,0.0125 -0.14444,0.0167 -0.14767,0.0129 -0.29506,0.0284 -0.44201,0.0479 l 0.0017,0.002 c -1.08909,0.7625 -2.59011,0.4978 -3.35262,-0.5913 -0.13362,-0.1909 -0.23883,-0.4001 -0.31233,-0.6212 -0.27941,-0.8404 -0.10427,-1.7751 0.43555,-2.4725 0.29735,-0.3841 0.69016,-0.6827 1.12394,-0.8972 0.60977,-0.3014 1.2872,-0.4465 1.95629,-0.5436 z m -2e-5,0 c 0.76535,-0.111 1.53783,-0.1725 2.30931,-0.2216 1.04865,-0.0668 2.09908,-0.1049 3.14943,-0.1321 v 0 c 1.48163,-0.0384 2.71386,1.1316 2.75225,2.6132 0.03839,1.4817 -1.13159,2.7139 -2.61322,2.7523 -0.04108,10e-4 -0.08217,10e-4 -0.12325,3e-4 -0.98735,-0.0197 -1.9752,-0.0307 -2.96271,-0.0168 -0.64087,0.009 -1.28351,0.0244 -1.9223,0.0802 v 0 c -1.40619,0.1229 -2.64576,-0.9174 -2.76867,-2.3236 -0.11799,-1.3499 0.83811,-2.5573 2.17916,-2.7519 z m 5.45875,-0.3537 c 1.95928,-0.0508 3.93856,-0.071 5.88952,0.1461 v 0 c 1.51747,0.1689 2.61068,1.536 2.44176,3.0535 -0.16892,1.5175 -1.53601,2.6107 -3.05348,2.4418 -1.74482,-0.1943 -3.50818,-0.2404 -5.26204,-0.2756 v 0 c -1.48184,-0.0296 -2.65904,-1.255 -2.62936,-2.7368 0.02872,-1.4339 1.17985,-2.5919 2.6136,-2.629 z m 5.8895,0.1461 c 1.49943,0.1669 2.96348,0.6288 4.37698,1.1392 1.91854,0.6926 3.78609,1.5248 5.6272,2.4004 h -1e-5 c 0.88622,0.4215 1.26297,1.4816 0.84151,2.3678 -0.33913,0.7131 -1.10813,1.1168 -1.88766,0.9911 -1.93178,-0.3117 -3.86474,-0.6166 -5.80086,-0.9002 -1.25386,-0.1837 -2.50926,-0.3628 -3.76884,-0.503 v 0 c -1.51747,-0.1689 -2.6107,-1.536 -2.44179,-3.0535 0.16891,-1.5175 1.53599,-2.6107 3.05346,-2.4418 0,0 1e-5,0 1e-5,0 z" />
        <path
           inkscape:connector-curvature="0"
           id="path3760"
           style="fill:#000000;fill-opacity:1;fill-rule:nonzero;stroke:none;stroke-width:1.04574823"
           d="m 91.45368,581.5348 h -1e-5 c 0.12975,-0.6463 0.75884,-1.065 1.40512,-0.9353 0.52459,0.1054 0.915,0.5469 0.95523,1.0805 0.0487,0.0181 0.09957,0.0319 0.15127,0.043 v 0 c 0.79787,0.1715 1.30565,0.9573 1.13418,1.7552 -0.17148,0.7978 -0.95729,1.3056 -1.75515,1.1341 -0.12809,-0.0275 -0.25194,-0.0719 -0.36831,-0.1321 -0.54708,-0.2829 -1.03108,-0.7015 -1.31358,-1.2561 -0.26592,-0.5221 -0.32334,-1.1185 -0.20875,-1.6893 z m 2.51161,0.1882 c 1.02142,0.2195 2.0441,0.4333 3.06686,0.6465 v 0 c 0.92871,0.1936 1.52467,1.1033 1.33113,2.032 -0.19355,0.9287 -1.10332,1.5247 -2.03202,1.3311 -0.04811,-0.01 -0.09576,-0.0221 -0.14282,-0.0362 -1.09356,-0.3278 -2.19565,-0.6904 -3.21243,-1.2162 v 0 c -0.72488,-0.3749 -1.00861,-1.2664 -0.63372,-1.9913 0.30627,-0.5922 0.97118,-0.906 1.623,-0.7659 z m 3.06685,0.6465 c 1.05204,0.2192 2.10468,0.4453 3.14256,0.725 v 10e-5 c 0.9747,0.2626 1.5519,1.2657 1.2892,2.2404 -0.2627,0.9746 -1.2658,1.5518 -2.24043,1.2891 -0.02569,-0.007 -0.05122,-0.0144 -0.07657,-0.0224 -0.98309,-0.3116 -1.97064,-0.6091 -2.95846,-0.9053 v 0 c -0.9087,-0.2724 -1.42451,-1.2299 -1.15209,-2.1386 0.25604,-0.854 1.12295,-1.3702 1.99579,-1.1883 z m 3.14266,0.7251 c 0.7484,0.2017 1.4897,0.4308 2.2186,0.6947 v 0 c 0.9742,0.3526 1.4781,1.4283 1.1254,2.4025 -0.3526,0.9742 -1.4283,1.478 -2.4025,1.1254 -0.0265,-0.01 -0.0529,-0.0199 -0.079,-0.0307 -0.6195,-0.2565 -1.25139,-0.4823 -1.89042,-0.6848 v 0 c -0.96227,-0.305 -1.4951,-1.3323 -1.19012,-2.2946 0.29561,-0.9327 1.27329,-1.4672 2.21804,-1.2125 z m 2.2186,0.6947 c 0.6823,0.247 1.3521,0.5312 1.9952,0.868 v 0 c 0.9343,0.4893 1.2951,1.6434 0.8058,2.5777 -0.4893,0.9344 -1.6434,1.2951 -2.5777,0.8058 -0.0132,-0.007 -0.0263,-0.0139 -0.0393,-0.0211 -0.4977,-0.2756 -1.0147,-0.5157 -1.5401,-0.7332 v 0 c -0.9573,-0.3963 -1.41201,-1.4936 -1.0157,-2.4509 0.3837,-0.9268 1.4286,-1.3878 2.3718,-1.0463 z m 1.9952,0.868 c 0.6207,0.325 1.211,0.7116 1.7407,1.1714 v 0 c 0.8025,0.6967 0.8883,1.9122 0.1916,2.7147 -0.6968,0.8026 -1.9122,0.8884 -2.7148,0.1917 -0.005,-0.005 -0.0107,-0.009 -0.016,-0.0141 -0.3078,-0.2732 -0.6532,-0.5022 -1.0127,-0.7013 v 0 c -0.9226,-0.511 -1.2564,-1.6732 -0.7454,-2.5958 0.5025,-0.9075 1.6376,-1.2479 2.5566,-0.7666 z m 1.7406,1.1714 c 0.5014,0.4352 0.9506,0.9308 1.3261,1.4787 v 0 c 0.6022,0.8786 0.378,2.0791 -0.5006,2.6813 -0.8786,0.6021 -2.0791,0.378 -2.6812,-0.5006 -0.1943,-0.2834 -0.4266,-0.5392 -0.6834,-0.7671 v 0 c -0.7948,-0.7056 -0.8671,-1.9219 -0.1615,-2.7167 0.7,-0.7886 1.9043,-0.8669 2.7006,-0.1756 z m 1.3261,1.4787 c 0.5033,0.7344 0.7566,1.6088 0.8673,2.4846 v 0 c 0.1334,1.0561 -0.6146,2.0203 -1.6706,2.1537 -1.0541,0.1332 -2.0172,-0.6118 -2.1531,-1.6656 -0.0332,-0.2575 -0.074,-0.571 -0.2255,-0.7921 v 0 c -0.6021,-0.8786 -0.378,-2.079 0.5007,-2.6812 0.8786,-0.6022 2.079,-0.378 2.6812,0.5006 0,0 0,0 0,0 z m -2.9278,3.3017 c -0.003,-0.11 -0.0145,-0.22 -0.0286,-0.329 v 0 c -0.1361,-1.0557 0.6094,-2.0219 1.6651,-2.158 1.0557,-0.1362 2.0218,0.6093 2.1579,1.665 3e-4,0.002 5e-4,0.003 7e-4,0.005 0.1323,1.0476 0.0354,2.2096 -0.7806,2.9756 v 0 c -0.7613,0.7148 -1.958,0.677 -2.6727,-0.0843 -0.5242,-0.5583 -0.6598,-1.3776 -0.3436,-2.075 l 0.002,8e-4 z m 0.3871,-0.5994 c 0.0174,-0.003 0.0347,-0.006 0.052,-0.01 l -7e-4,-7e-4 c 0.7677,-0.708 1.964,-0.6596 2.6719,0.1081 0.7036,0.7629 0.6608,1.9502 -0.0958,2.6605 -0.5567,0.5226 -1.2947,0.7782 -2.0377,0.8901 v 0 c -1.0091,0.152 -1.9504,-0.5429 -2.1024,-1.552 -0.1497,-0.9938 0.5223,-1.925 1.5127,-2.0961 z m -1.4033,0.0884 c 0.4678,0.005 0.9414,-0.009 1.4033,-0.0884 v 0 c 1.0057,-0.1737 1.9617,0.5007 2.1354,1.5064 0.1737,1.0056 -0.5007,1.9616 -1.5064,2.1353 -0.0131,0.002 -0.0262,0.004 -0.0393,0.006 -0.6835,0.1029 -1.3786,0.1187 -2.0684,0.0968 v 0 c -1.0095,-0.032 -1.8019,-0.8763 -1.7699,-1.8857 0.0315,-0.9938 0.8511,-1.7803 1.8453,-1.7708 z m -1.6757,-0.336 c 0.5372,0.1844 1.1044,0.3306 1.6757,0.336 v 0 c 1.01,0.01 1.8208,0.8363 1.8112,1.8462 -0.01,1.01 -0.8363,1.8208 -1.8462,1.8112 -0.0135,-2e-4 -0.027,-4e-4 -0.0404,-9e-4 -0.9681,-0.0307 -1.9198,-0.2718 -2.8218,-0.6147 v 0 c -0.92725,-0.3526 -1.39314,-1.39 -1.0406,-2.3173 0.34443,-0.9059 1.3454,-1.3752 2.2621,-1.0605 z m -2.214,-0.949 c 0.7143,0.3681 1.4538,0.688 2.214,0.949 v 0 c 0.9382,0.322 1.4378,1.3437 1.1157,2.282 -0.322,0.9383 -1.3437,1.4378 -2.282,1.1158 -0.0185,-0.006 -0.0369,-0.0131 -0.0552,-0.02 -0.91637,-0.3484 -1.80389,-0.7712 -2.65603,-1.2557 h 10e-6 c -0.83862,-0.4768 -1.13192,-1.5432 -0.65511,-2.3818 0.463,-0.8143 1.48594,-1.1184 2.31862,-0.6893 z m -1.99476,-1.2864 c 0.62098,0.4925 1.29027,0.9233 1.99474,1.2864 v 0 c 0.85752,0.4419 1.19442,1.4953 0.75252,2.3528 -0.4419,0.8575 -1.49531,1.1944 -2.35283,0.7525 -0.02129,-0.0109 -0.04236,-0.0223 -0.06318,-0.0342 -0.83764,-0.4762 -1.65155,-0.9941 -2.43727,-1.5519 v 0 c -0.79021,-0.561 -0.97605,-1.6563 -0.41508,-2.4465 0.56097,-0.7902 1.65632,-0.9761 2.44653,-0.4151 0.02535,0.018 0.05021,0.0367 0.07457,0.056 z m -1.78256,-1.6697 c 0.5483,0.603 1.14388,1.1632 1.78256,1.6697 v 0 c 0.75929,0.6021 0.88668,1.7058 0.28453,2.4651 -0.57965,0.7309 -1.62988,0.8805 -2.39055,0.3405 -0.81494,-0.5785 -1.58611,-1.2181 -2.30839,-1.9088 v 0 c -0.73415,-0.702 -0.76022,-1.8662 -0.05824,-2.6003 0.70198,-0.7342 1.86619,-0.7603 2.60034,-0.0583 0.03098,0.0297 0.06092,0.0603 0.08975,0.0921 z m -1.18065,-1.6635 c 0.3088,0.6084 0.72269,1.1598 1.18064,1.6634 v 0 c 0.68333,0.7516 0.62803,1.9148 -0.12351,2.5981 -0.71466,0.6498 -1.8102,0.636 -2.50832,-0.0315 -0.74066,-0.7082 -1.40485,-1.5025 -1.92329,-2.3885 v 0 c -0.53642,-0.9166 -0.22819,-2.0945 0.68843,-2.6309 0.91663,-0.5364 2.09454,-0.2282 2.63096,0.6884 0.01936,0.0331 0.03774,0.0668 0.05509,0.101 z m -0.49747,-1.5048 c 0.07698,0.5259 0.25755,1.032 0.49748,1.5048 v 0 c 0.48065,0.9471 0.10254,2.1044 -0.84451,2.5851 -0.90725,0.4604 -2.01614,0.1345 -2.52999,-0.7436 -0.47611,-0.8136 -0.84286,-1.6926 -1.05221,-2.613 v 0 c -0.24501,-1.0771 0.42953,-2.1488 1.50662,-2.3938 1.07709,-0.245 2.14887,0.4295 2.39388,1.5066 0.01158,0.0509 0.02116,0.1022 0.02873,0.1539 z m -0.12784,-1.653 c -0.0031,0.5532 0.04777,1.1061 0.12784,1.653 v 0 c 0.15999,1.093 -0.59633,2.1087 -1.68929,2.2687 -1.03291,0.1512 -2.00839,-0.5174 -2.23994,-1.5354 -0.17171,-0.7548 -0.29113,-1.5233 -0.32883,-2.2971 v 0 c -0.05555,-1.1398 0.82346,-2.1089 1.96332,-2.1645 1.13986,-0.0555 2.10893,0.8235 2.16448,1.9634 0.0018,0.0373 0.0026,0.0746 0.0024,0.1119 z M 91.0885,578.021 v 0 c 0.82055,-0.8263 2.15563,-0.831 2.98198,-0.0105 0.82636,0.8206 0.83106,2.1556 0.01051,2.982 -0.01367,0.0138 -0.02753,0.0274 -0.04158,0.0407 l -0.0011,-10e-4 c -0.0043,1.1413 -0.93293,2.0629 -2.07414,2.0586 -1.0991,-0.004 -2.00261,-0.868 -2.05609,-1.9658 -0.05637,-1.1572 0.36255,-2.2802 1.1804,-3.1039 z m 3e-5,0 c 0.72181,-0.7269 1.65331,-1.2032 2.62737,-1.4952 v 0 c 1.13445,-0.34 2.32976,0.304 2.66979,1.4385 0.34003,1.1344 -0.30397,2.3297 -1.43843,2.6698 -0.02139,0.006 -0.04288,0.0124 -0.06447,0.0182 -0.29697,0.079 -0.63194,0.1847 -0.8628,0.3992 v 0 c -0.85314,0.7927 -2.18732,0.7436 -2.97999,-0.1095 -0.77021,-0.829 -0.74879,-2.1181 0.04853,-2.921 z m 2.62737,-1.4952 c 0.97617,-0.2925 1.98841,-0.4553 3.00207,-0.5462 v 0 c 1.20148,-0.1077 2.26278,0.779 2.37047,1.9805 0.10769,1.2015 -0.77901,2.2628 -1.98049,2.3705 -0.02141,0.002 -0.04284,0.004 -0.0643,0.005 -0.72625,0.0435 -1.45643,0.1295 -2.16086,0.3169 v 0 c -1.14452,0.3044 -2.31912,-0.3766 -2.62355,-1.5211 -0.29772,-1.1194 0.34719,-2.2728 1.45666,-2.6054 z m 3.00207,-0.5462 c 1.23662,-0.1108 2.48534,-0.024 3.70403,0.2049 v 0 c 1.2052,0.2263 1.9987,1.3867 1.7724,2.5919 -0.2263,1.2052 -1.3868,1.9987 -2.59197,1.7724 -0.01259,-0.002 -0.02516,-0.005 -0.0377,-0.007 -0.82747,-0.1703 -1.67636,-0.2567 -2.52108,-0.206 v 0 c -1.20414,0.0722 -2.2388,-0.8455 -2.31098,-2.0496 -0.07068,-1.1791 0.80882,-2.2007 1.9853,-2.3062 z m 3.70403,0.2049 c 1.3741,0.258 2.6989,0.7406 3.9499,1.3599 v 0 c 1.1061,0.5475 1.5589,1.888 1.0113,2.9941 -0.5475,1.1061 -1.888,1.5589 -2.9941,1.0114 0,0 0,0 0,0 -0.8972,-0.4441 -1.842,-0.8064 -2.8244,-1.0086 v 0 c -1.20107,-0.2471 -1.97437,-1.4211 -1.72722,-2.6222 0.24414,-1.1864 1.3941,-1.9582 2.58452,-1.7346 z m 3.9499,1.3599 c 1.3474,0.667 2.6269,1.4668 3.8432,2.3491 v 0 c 1.0034,0.7278 1.2268,2.1312 0.499,3.1346 -0.7278,1.0034 -2.1313,1.2268 -3.1347,0.499 -0.005,-0.004 -0.0107,-0.008 -0.016,-0.0117 -1.0017,-0.7402 -2.0573,-1.4126 -3.1743,-1.9655 v 0 c -1.1061,-0.5476 -1.5589,-1.8881 -1.0114,-2.9942 0.5476,-1.1061 1.8881,-1.5589 2.9942,-1.0113 z m 3.8433,2.3491 c 1.2978,0.9414 2.51,2 3.6177,3.1593 v 0 c 0.86,0.9001 0.8275,2.327 -0.0726,3.1871 -0.9001,0.86 -2.327,0.8276 -3.1871,-0.0726 0,0 0,0 0,0 -0.925,-0.9681 -1.933,-1.8562 -3.0098,-2.6519 v 0 c -0.9969,-0.7367 -1.2079,-2.142 -0.4712,-3.139 0.7321,-0.9907 2.1258,-1.2062 3.123,-0.4829 z m 3.6177,3.1593 c 1.0813,1.1317 2.0991,2.3239 3.0507,3.5667 v 0 c 0.7446,0.9725 0.5599,2.3645 -0.4126,3.1091 -0.9502,0.7275 -2.3063,0.5699 -3.0644,-0.3562 -0.9034,-1.1037 -1.848,-2.1738 -2.8334,-3.2051 v 0 c -0.8601,-0.9001 -0.8276,-2.327 0.0726,-3.1871 0.9001,-0.86 2.327,-0.8276 3.1871,0.0726 z m 3.0507,3.5667 c 0.943,1.2316 1.8434,2.4958 2.6998,3.7891 v 0 c 0.654,0.9875 0.3836,2.3181 -0.604,2.9721 -0.9649,0.639 -2.2628,0.3971 -2.9327,-0.5467 -0.8402,-1.1835 -1.7207,-2.3384 -2.6401,-3.4616 v 0 c -0.7757,-0.9478 -0.6363,-2.345 0.3115,-3.1208 0.9478,-0.7758 2.345,-0.6364 3.1208,0.3114 0.0152,0.0186 0.0301,0.0374 0.0447,0.0565 z m 2.6999,3.7891 c 0.8447,1.2756 1.608,2.6075 2.2489,3.9974 v 0 c 0.4665,1.0119 0.0244,2.2104 -0.9875,2.677 -0.9484,0.4373 -2.0738,0.0784 -2.5941,-0.8272 -0.6762,-1.1769 -1.4186,-2.3152 -2.2041,-3.4218 v 0 c -0.6857,-0.9657 -0.4585,-2.3045 0.5073,-2.9901 0.9657,-0.6856 2.3045,-0.4585 2.9901,0.5073 0.0134,0.0189 0.0265,0.038 0.0393,0.0574 z m 2.2489,3.9974 c 0.5535,1.2006 1.0441,2.4332 1.4214,3.701 v 0 c 0.2901,0.9746 -0.2648,1.9998 -1.2394,2.2898 -0.9049,0.2693 -1.8668,-0.1894 -2.2271,-1.062 -0.438,-1.061 -0.965,-2.0842 -1.5365,-3.079 v 0 c -0.5551,-0.9661 -0.2219,-2.1993 0.7443,-2.7544 0.9662,-0.5551 2.1994,-0.2219 2.7545,0.7443 0.0299,0.0522 0.0576,0.1057 0.0828,0.1603 z m 1.4214,3.701 c 0.3274,1.0999 0.5814,2.2236 0.7283,3.3623 v 0 c 0.1162,0.9011 -0.5201,1.7258 -1.4211,1.842 -0.8084,0.1043 -1.5712,-0.399 -1.7933,-1.1832 -0.2691,-0.9501 -0.6036,-1.8809 -0.9804,-2.7933 v 0 c -0.388,-0.9398 0.0593,-2.0164 0.9992,-2.4044 0.9399,-0.3881 2.0164,0.0592 2.4045,0.9991 0.0239,0.0581 0.0449,0.1173 0.0628,0.1775 z m 0.7283,3.3623 c 0.1804,1.3988 0.2773,2.8089 0.3656,4.216 v 0 c 0.0544,0.8659 -0.6035,1.612 -1.4695,1.6664 -0.866,0.0544 -1.6121,-0.6035 -1.6664,-1.4695 -9e-4,-0.0143 -0.002,-0.0285 -0.002,-0.0428 -0.0262,-0.7387 -0.0719,-1.4777 -0.162,-2.2115 -0.0619,-0.5042 -0.1414,-1.0104 -0.28,-1.4998 v 0 c -0.2476,-0.8742 0.2604,-1.7836 1.1345,-2.0311 0.8742,-0.2476 1.7835,0.2603 2.0311,1.1345 0.0221,0.078 0.0384,0.1575 0.0488,0.2378 z m -2.7573,5.2324 c 0.002,-0.2875 -0.005,-0.575 -0.0151,-0.8623 v 0 c -0.0308,-0.8672 0.6473,-1.595 1.5144,-1.6258 0.8505,-0.0301 1.5703,0.6224 1.6236,1.4717 0.0404,0.6426 0.08,1.2853 0.123,1.9277 l 0.003,-3e-4 c 0.002,0.0243 0.004,0.0487 0.005,0.0731 0.005,0.0886 0.0103,0.177 0.008,0.2658 v 0 c -0.008,0.3144 -0.1006,0.6208 -0.2685,0.8867 v 0 c -0.1959,0.3103 -0.4848,0.5508 -0.8254,0.6872 -0.7971,0.3193 -1.6579,0.0111 -2.1581,-0.6415 v 0 c -0.4929,-0.6431 -0.4983,-1.5354 -0.0133,-2.1845 l 0.003,0.002 z m 2.709,-2.4315 c 0.1334,0.6963 0.2634,1.3933 0.3772,2.0931 0.0711,0.4376 0.1443,0.8792 0.1682,1.3225 v 0 c 0.0537,0.9981 -0.712,1.8508 -1.7102,1.9045 -0.5965,0.0321 -1.1703,-0.2322 -1.5337,-0.7063 -0.3562,-0.4647 -0.5666,-1.0333 -0.7487,-1.5841 -0.2354,-0.7121 -0.419,-1.4413 -0.5897,-2.1713 v 0 c -0.2596,-1.11 0.4298,-2.2202 1.5398,-2.4797 1.1099,-0.2596 2.2202,0.4298 2.4797,1.5397 0.006,0.0271 0.0121,0.0543 0.0174,0.0816 z m -1.4388,-6.4861 c 0.5193,2.1525 1.022,4.3111 1.4388,6.4861 v 0 c 0.2145,1.1196 -0.5192,2.201 -1.6388,2.4155 -1.0876,0.2084 -2.1459,-0.4787 -2.3981,-1.5571 -0.4916,-2.1022 -1.0396,-4.1914 -1.5979,-6.2767 v 0 c -0.3092,-1.1551 0.3764,-2.3421 1.5314,-2.6513 1.155,-0.3093 2.3421,0.3764 2.6513,1.5314 0.005,0.0173 0.009,0.0347 0.0133,0.0521 z m -1.4286,-5.8732 c 0.4833,1.956 0.956,3.9147 1.4286,5.8732 v 0 c 0.2804,1.1624 -0.4345,2.332 -1.5969,2.6125 -1.1419,0.2755 -2.2953,-0.41 -2.5991,-1.5447 -0.5161,-1.9278 -1.0325,-3.8563 -1.5873,-5.7734 v 0 c -0.3461,-1.1962 0.343,-2.4464 1.5392,-2.7926 1.1961,-0.3461 2.4464,0.343 2.7925,1.5392 0.008,0.0284 0.0159,0.0571 0.023,0.0858 z m -1.2998,-5.944 c 0.4074,1.986 0.8134,3.9755 1.2998,5.944 v 0 c 0.2987,1.2089 -0.4391,2.431 -1.648,2.7297 -1.1753,0.2905 -2.3702,-0.3992 -2.7067,-1.5621 -0.5797,-2.0035 -1.0876,-4.0285 -1.5957,-6.0511 v 0 c -0.321,-1.2778 0.4547,-2.5738 1.7325,-2.8948 1.2778,-0.321 2.5739,0.4546 2.8949,1.7324 0.009,0.0338 0.0162,0.0678 0.0232,0.1019 z m -1.0078,-5.3626 c 0.0918,0.6658 0.2158,1.3275 0.3396,1.9879 0.2113,1.1271 0.4378,2.2514 0.6682,3.3747 v 0 c 0.2647,1.2906 -0.5669,2.5515 -1.8576,2.8162 -1.2508,0.2566 -2.4819,-0.5173 -2.793,-1.7556 -0.2857,-1.1375 -0.5678,-2.2759 -0.8363,-3.4175 -0.1712,-0.728 -0.341,-1.4572 -0.481,-2.1919 v 0 c -0.2597,-1.364 0.6354,-2.6802 1.9994,-2.94 1.3639,-0.2597 2.6802,0.6354 2.9399,1.9994 0.008,0.042 0.015,0.0843 0.0208,0.1268 z m -0.1703,-2.3734 c -0.004,0.7939 0.0619,1.5873 0.1703,2.3734 v 0 c 0.1897,1.3754 -0.7715,2.6442 -2.1469,2.8339 -1.326,0.1829 -2.5628,-0.7052 -2.8132,-2.0201 -0.1931,-1.0139 -0.3285,-2.0401 -0.3797,-3.0713 v 0 c -0.0709,-1.4267 1.0282,-2.6407 2.4549,-2.7115 1.4267,-0.0709 2.6407,1.0282 2.7115,2.4549 0.002,0.0469 0.003,0.0938 0.003,0.1407 h -10e-5 z m -2.1169,-3.8929 v 0 c 1.4457,0.0772 2.555,1.3118 2.4777,2.7574 -0.0224,0.42 -0.1456,0.8284 -0.3591,1.1908 l -0.002,-0.002 c -0.0362,1.428 -1.2231,2.5562 -2.6511,2.52 -1.3529,-0.0342 -2.4506,-1.1056 -2.5177,-2.4572 -0.0278,-0.5595 -0.0209,-1.129 0.1066,-1.677 0.1164,-0.5006 0.34,-0.9753 0.6781,-1.3651 0.5633,-0.6491 1.4085,-1.0126 2.2679,-0.9667 z m -10e-5,0 c 1.1498,0.0614 2.0737,0.7837 2.836,1.5837 v 0 c 0.9927,1.0418 0.9528,2.6911 -0.089,3.6838 -1.0198,0.9717 -2.6272,0.957 -3.6291,-0.0332 -0.058,-0.0572 -0.1171,-0.1132 -0.1777,-0.1677 l -0.002,0.005 c -1.3552,-0.5092 -2.0411,-2.0205 -1.5319,-3.3757 0.4021,-1.0704 1.4517,-1.7566 2.5935,-1.6957 z m 2.836,1.5837 c 0.4207,0.4416 0.8123,0.9118 1.2025,1.3803 0.6274,0.7532 1.2427,1.5167 1.8551,2.2822 v 0 c 0.8892,1.1117 0.7089,2.7338 -0.4028,3.623 -1.1062,0.8848 -2.719,0.7113 -3.6116,-0.3886 -0.5933,-0.7311 -1.19,-1.4599 -1.8015,-2.1759 -0.3104,-0.3635 -0.6195,-0.734 -0.9598,-1.0704 v 0 c -1.0235,-1.0115 -1.0332,-2.6613 -0.0216,-3.6848 1.0116,-1.0235 2.6614,-1.0332 3.6849,-0.0216 0.0185,0.0183 0.0368,0.0369 0.0548,0.0558 z m 3.0576,3.6625 c 1.1007,1.3761 2.2016,2.7524 3.2816,4.1449 v 0 c 0.851,1.0974 0.6514,2.6768 -0.446,3.5279 -1.0523,0.8161 -2.5585,0.6702 -3.4346,-0.3328 -1.171,-1.3405 -2.2939,-2.7237 -3.4154,-4.1056 v 0 c -0.897,-1.1054 -0.7281,-2.7287 0.3772,-3.6257 1.1054,-0.8971 2.7287,-0.7282 3.6257,0.3772 0.004,0.005 0.008,0.009 0.0115,0.0141 z m 3.2816,4.1449 c 0.6065,0.782 1.2202,1.5587 1.8515,2.3209 v 0 c 0.8489,1.0247 0.7063,2.5435 -0.3184,3.3924 -0.965,0.7994 -2.3817,0.7256 -3.2585,-0.1698 -0.7434,-0.7593 -1.4563,-1.5482 -2.1552,-2.3484 v 0 c -0.9136,-1.0458 -0.8064,-2.6342 0.2395,-3.5478 1.0458,-0.9136 2.6343,-0.8064 3.5478,0.2395 0.0322,0.0368 0.0633,0.0746 0.0933,0.1132 z m 1.8515,2.3209 c 0.4392,0.5301 0.8829,1.0575 1.3447,1.5683 v 0 c 0.8512,0.9416 0.778,2.395 -0.1636,3.2462 -0.8552,0.7732 -2.1509,0.7931 -3.0295,0.0466 -0.6051,-0.5141 -1.1732,-1.0715 -1.7285,-1.6385 v 0 c -0.9309,-0.9508 -0.9148,-2.4762 0.0359,-3.4071 0.9508,-0.931 2.4762,-0.9149 3.4072,0.0359 0.0466,0.0476 0.0913,0.0972 0.1338,0.1486 z m 1.3447,1.5683 c 0.1793,0.1984 0.388,0.3716 0.6282,0.4913 v 0 c 1.0772,0.5369 1.5153,1.8455 0.9784,2.9228 -0.4786,0.9603 -1.5851,1.4294 -2.6081,1.1057 -0.8053,-0.2548 -1.5487,-0.6807 -2.1916,-1.227 v 0 c -0.9673,-0.8219 -1.0852,-2.2724 -0.2633,-3.2397 0.8219,-0.9673 2.2724,-1.0852 3.2397,-0.2633 0.0767,0.0653 0.1491,0.1355 0.2167,0.2102 z m -0.1794,0.2672 v 0 c 0.8905,-0.6849 2.1675,-0.5182 2.8524,0.3722 0.5273,0.6855 0.5634,1.6294 0.0902,2.3532 -0.3589,0.549 -0.8284,1.0314 -1.4155,1.3349 -0.7248,0.3746 -1.5728,0.438 -2.3492,0.1923 v 0 c -1.1476,-0.3632 -1.7835,-1.5879 -1.4203,-2.7354 0.3054,-0.9652 1.2353,-1.593 2.2447,-1.5155 l -0.002,-0.002 z m -0.2729,0.2529 c 0.443,-0.4931 0.8396,-1.0269 1.2006,-1.5825 v 0 c 0.5898,-0.9081 1.8042,-1.166 2.7123,-0.5762 0.908,0.5899 1.166,1.8042 0.5761,2.7123 -0.006,0.009 -0.0115,0.0176 -0.0173,0.0263 -0.4226,0.6283 -0.8418,1.2589 -1.2562,1.8926 v 0 c -0.6148,0.9403 -1.8753,1.2041 -2.8156,0.5893 -0.9402,-0.6147 -1.204,-1.8753 -0.5893,-2.8155 0.0568,-0.0868 0.1201,-0.1691 0.1894,-0.2463 z m 1.2006,-1.5825 c 0.4968,-0.7648 1.0661,-1.4832 1.7115,-2.1283 v 0 c 0.8025,-0.8022 2.1034,-0.8019 2.9056,6e-4 0.8023,0.8026 0.802,2.1035 -6e-4,2.9057 -0.0728,0.0728 -0.1509,0.1399 -0.2338,0.201 -0.4385,0.3231 -0.8082,0.7323 -1.1116,1.1834 v 0 c -0.6044,0.8985 -1.8227,1.1369 -2.7212,0.5326 -0.8883,-0.5976 -1.1331,-1.7972 -0.5499,-2.695 z m 1.7115,-2.1283 c 0.8348,-0.8344 1.9162,-1.3856 3.0901,-1.5333 v 0 c 1.1959,-0.1505 2.2874,0.6969 2.4379,1.8928 0.1505,1.1959 -0.697,2.2873 -1.8928,2.4378 -0.0592,0.007 -0.1187,0.0125 -0.1783,0.0151 -0.2903,0.0125 -0.5532,0.1236 -0.7856,0.2949 v 0 c -0.9136,0.6731 -2.1998,0.4782 -2.8729,-0.4354 -0.6027,-0.8179 -0.517,-1.9536 0.2016,-2.6719 z m 3.0901,-1.5333 c 0.8433,-0.1062 1.7265,-0.1323 2.547,0.1227 v 0 c 1.1826,0.3677 1.8432,1.6243 1.4756,2.8069 -0.3676,1.1826 -1.6242,1.8432 -2.8068,1.4756 -0.0402,-0.0125 -0.0801,-0.0261 -0.1195,-0.0408 0.0781,0.0292 -0.0888,-0.009 -0.1102,-0.0107 -0.2054,-0.0203 -0.4133,-0.0169 -0.6193,-0.008 v 0 c -1.2041,0.0521 -2.2225,-0.8819 -2.2746,-2.0861 -0.0491,-1.1349 0.7807,-2.1177 1.9078,-2.2596 z m 2.547,0.1227 c 1.1621,0.3613 2,1.3901 2.6986,2.3312 v 0 c 0.7474,1.0069 0.5371,2.4292 -0.4699,3.1767 -1.0069,0.7474 -2.4292,0.5371 -3.1767,-0.4699 -0.006,-0.009 -0.0129,-0.0174 -0.0192,-0.0262 -0.1432,-0.1988 -0.2905,-0.3948 -0.4478,-0.5827 -0.0564,-0.0673 -0.1141,-0.1337 -0.1743,-0.1977 -0.0849,-0.0904 -0.1313,-0.1063 -0.2535,-0.1817 v 0 c -1.054,-0.6501 -1.3814,-2.0316 -0.7313,-3.0856 0.5374,-0.8712 1.5966,-1.2679 2.5741,-0.9641 z m 2.6986,2.3312 c 0.5946,0.8011 1.1894,1.6352 1.5927,2.5527 v 0 c 0.5092,1.1585 -0.0172,2.5105 -1.1757,3.0197 -1.1585,0.5092 -2.5104,-0.0172 -3.0196,-1.1757 -0.006,-0.0144 -0.0126,-0.029 -0.0186,-0.0435 -0.0874,-0.2105 -0.2066,-0.4094 -0.325,-0.6034 -0.2238,-0.3668 -0.4686,-0.7208 -0.7196,-1.0692 v 0 c -0.733,-1.0176 -0.5023,-2.4367 0.5153,-3.1697 1.0073,-0.7255 2.4105,-0.5077 3.1505,0.4891 z m 1.5927,2.5527 c 0.3814,0.8676 0.5851,1.8103 0.7464,2.7402 v 0 c 0.218,1.2569 -0.6242,2.4524 -1.881,2.6704 -1.2569,0.2179 -2.4524,-0.6242 -2.6704,-1.8811 -0.002,-0.01 -0.003,-0.0201 -0.005,-0.0301 -0.0905,-0.5666 -0.1824,-1.1653 -0.4039,-1.6989 v 0 c -0.4852,-1.1688 0.069,-2.5096 1.2377,-2.9947 1.1518,-0.4782 2.4744,0.0526 2.9762,1.1942 z m 0.7464,2.7402 c 0.1501,0.8656 0.2958,1.7624 0.2347,2.6437 v 0 c -0.0887,1.2779 -1.1964,2.2419 -2.4743,2.1533 -1.2779,-0.0886 -2.242,-1.1964 -2.1533,-2.4743 0.0109,-0.1574 -0.007,-0.3195 -0.0209,-0.4761 -0.0325,-0.3641 -0.0849,-0.7265 -0.1426,-1.0874 v 0 c -0.2013,-1.2596 0.6566,-2.4439 1.9162,-2.6452 1.2478,-0.1995 2.4243,0.6409 2.6402,1.886 z m -3.671,0.7963 v 0 c 0.9317,-0.8791 2.3996,-0.8366 3.2787,0.0951 0.4445,0.471 0.6718,1.1063 0.627,1.7523 -0.0603,0.8691 -0.4764,1.691 -1.1986,2.1948 -0.6505,0.4538 -1.4569,0.5871 -2.2317,0.4723 v 10e-5 c -1.2815,-0.1897 -2.1665,-1.3823 -1.9768,-2.6637 0.1251,-0.8453 0.7,-1.5557 1.5007,-1.8543 l 7e-4,0.003 z m 0.9669,-0.8092 c 0.1998,0.2828 0.4096,0.5702 0.6638,0.8075 l 0.002,-0.004 c 1.215,0.4492 1.8358,1.7983 1.3866,3.0134 -0.3847,1.0406 -1.4459,1.6693 -2.5434,1.5068 -1.4844,-0.2197 -2.5617,-1.425 -3.3824,-2.5865 v 0 c -0.7558,-1.0698 -0.5014,-2.5497 0.5684,-3.3056 1.0697,-0.7558 2.5496,-0.5013 3.3055,0.5684 z m -1.2842,-2.0056 c 0.3549,0.7068 0.8292,1.3616 1.2842,2.0056 v 0 c 0.7558,1.0697 0.5014,2.5497 -0.5684,3.3055 -1.0697,0.7559 -2.5496,0.5014 -3.3055,-0.5683 0,0 0,0 0,0 -0.6405,-0.9065 -1.2809,-1.8621 -1.6617,-2.9121 v 0 c -0.4364,-1.2038 0.1856,-2.5334 1.3893,-2.9698 1.1048,-0.4006 2.3347,0.0888 2.8621,1.1391 z m -0.546,-1.8117 c 0.1297,0.6067 0.2652,1.2526 0.546,1.8117 v 0 c 0.5746,1.1442 0.1128,2.5376 -1.0314,3.1122 -1.1442,0.5746 -2.5376,0.1129 -3.1122,-1.0314 -0.0408,-0.0812 -0.0768,-0.1647 -0.1078,-0.2501 -0.3151,-0.8691 -0.5329,-1.7736 -0.7331,-2.6748 v 0 c -0.2721,-1.2246 0.5,-2.4379 1.7246,-2.71 1.2246,-0.2721 2.4379,0.5 2.71,1.7246 0.001,0.006 0.003,0.0118 0.004,0.0178 z m -0.2833,-1.6831 c 9e-4,0.1664 0.0326,0.3361 0.058,0.4999 0.0616,0.3967 0.1414,0.7906 0.2253,1.1832 v 0 c 0.2623,1.2267 -0.5195,2.4338 -1.7463,2.6961 -1.2198,0.2608 -2.4217,-0.5109 -2.6922,-1.7285 -0.1867,-0.8401 -0.3877,-1.7038 -0.4147,-2.5675 v 0 c -0.0393,-1.2616 0.9515,-2.3163 2.2132,-2.3557 1.2616,-0.0394 2.3163,0.9515 2.3556,2.2131 7e-4,0.0198 10e-4,0.0396 10e-4,0.0594 z m -4.1688,-2.0133 v 0 c 0.5262,-1.1582 1.8917,-1.6706 3.0499,-1.1444 1.0875,0.494 1.6169,1.7374 1.2193,2.8638 -0.0582,0.165 -0.101,0.1734 -0.1004,0.2939 v 0 c 0.007,1.2622 -1.0113,2.2908 -2.2735,2.2974 -1.2392,0.006 -2.2578,-0.9757 -2.2964,-2.2143 -0.0224,-0.7182 0.1031,-1.4404 0.4011,-2.0964 z m 0,0 c 0.3312,-0.7289 0.8811,-1.3338 1.5354,-1.7879 v 0 c 1.0587,-0.7348 2.5126,-0.4722 3.2473,0.5865 0.7348,1.0587 0.4721,2.5126 -0.5866,3.2473 -0.0392,0.0273 -0.0792,0.0533 -0.12,0.078 -0.009,0.006 -0.0511,0.0392 -0.0262,0.0146 0.0488,-0.0485 0.1514,-0.2098 0.008,0.0222 v 0 c -0.6672,1.0832 -2.0861,1.4204 -3.1692,0.7532 -0.9881,-0.6086 -1.3691,-1.8573 -0.8892,-2.9139 z m 1.5354,-1.7879 c 0.5259,-0.365 1.1473,-0.5587 1.7717,-0.6726 0.6097,-0.1112 1.231,-0.1541 1.8497,-0.1738 v 0 c 1.3082,-0.0416 2.4024,0.9851 2.4441,2.2932 0.0417,1.3082 -0.9851,2.4024 -2.2932,2.4441 -0.0144,5e-4 -0.0287,8e-4 -0.0431,10e-4 -0.4453,0.006 -0.9092,0.009 -1.3463,0.1056 l 7e-4,10e-4 c -1.1499,0.5817 -2.5536,0.1211 -3.1353,-1.0288 -0.5256,-1.039 -0.2048,-2.3064 0.7517,-2.9702 z m 3.6214,-0.8464 c 1.3127,-0.0418 2.6675,0.0648 3.8979,0.5553 v 0 c 1.2243,0.4881 1.8211,1.8762 1.3331,3.1005 -0.488,1.2243 -1.8762,1.8211 -3.1004,1.3331 0,0 -1e-4,0 -1e-4,0 -0.6263,-0.2497 -1.3595,-0.2597 -2.0227,-0.2506 v 0 c -1.3087,0.0178 -2.3841,-1.0286 -2.4019,-2.3373 -0.0177,-1.2919 1.0028,-2.3598 2.2941,-2.401 z m 3.8979,0.5553 c 0.8857,0.3531 1.7378,0.7888 2.5458,1.2949 v 0 c 1.114,0.6978 1.4514,2.1665 0.7536,3.2805 -0.6928,1.1059 -2.1468,1.4477 -3.2598,0.7664 -0.5756,-0.3524 -1.1799,-0.6583 -1.807,-0.9082 v 0 c -1.2242,-0.4881 -1.8211,-1.8762 -1.333,-3.1005 0.488,-1.2243 1.8761,-1.8211 3.1004,-1.3331 z m 2.5458,1.2949 c 0.7911,0.4955 1.5416,1.0583 2.2244,1.6955 v 0 c 0.9539,0.8902 1.0055,2.3851 0.1153,3.3389 -0.8774,0.9402 -2.3456,1.0058 -3.3034,0.1477 -0.4763,-0.4266 -0.9974,-0.8016 -1.5425,-1.1352 v 0 c -1.121,-0.6863 -1.4735,-2.1515 -0.7872,-3.2726 0.6864,-1.1211 2.1515,-1.4735 3.2726,-0.7872 0.007,0.004 0.0139,0.009 0.0208,0.0129 z m 2.2244,1.6955 c 0.5725,0.5343 1.1192,1.0984 1.6144,1.7055 v 0 c 0.809,0.992 0.6606,2.4519 -0.3313,3.2609 -0.9413,0.7677 -2.3155,0.6784 -3.1496,-0.2045 -0.4205,-0.4452 -0.8656,-0.8668 -1.3216,-1.2752 v -10e-5 c -0.9717,-0.8705 -1.0538,-2.364 -0.1832,-3.3358 0.8706,-0.9718 2.3641,-1.0538 3.3358,-0.1832 0.012,0.0107 0.0238,0.0215 0.0355,0.0324 z m 1.6143,1.7055 c 0.5131,0.6291 0.9395,1.3281 1.2566,2.0757 v 0 c 0.4856,1.1453 -0.0491,2.4675 -1.1944,2.9532 -1.0876,0.4612 -2.3466,0.004 -2.8847,-1.0478 -0.1732,-0.3383 -0.3974,-0.6485 -0.6583,-0.9247 v 0 c -0.879,-0.9304 -0.8373,-2.3973 0.0932,-3.2763 0.9304,-0.879 2.3973,-0.8373 3.2763,0.0931 0.0387,0.0409 0.0758,0.0832 0.1113,0.1268 z m 1.2566,2.0757 c 0.1481,0.3494 0.3322,0.7076 0.422,1.0781 v 0 c 0.1545,0.6371 0.0206,1.31 -0.366,1.8394 l 2e-4,2e-4 c -0.637,0.8728 -1.8082,1.163 -2.779,0.6886 -0.3306,-0.1616 -0.6135,-0.4011 -0.8285,-0.6953 v 0 c -0.107,-0.1465 -0.1957,-0.3055 -0.2642,-0.4735 -0.0828,-0.1796 -0.1734,-0.3557 -0.2636,-0.532 v 0 c -0.5667,-1.1075 -0.1283,-2.4647 0.9792,-3.0314 1.1075,-0.5667 2.4647,-0.1282 3.0314,0.9793 0.0245,0.048 0.0474,0.0969 0.0685,0.1466 z m 0.0597,0.1986 c 0.0706,0.1514 0.1412,0.3029 0.2118,0.4543 v 0 c 0.5205,1.1165 0.0372,2.4435 -1.0793,2.964 -0.9658,0.4502 -2.1151,0.1544 -2.7436,-0.7061 -0.0984,-0.1348 -0.1969,-0.2696 -0.2954,-0.4044 v 0 c -0.7426,-1.0166 -0.5205,-2.4426 0.496,-3.1852 1.0166,-0.7426 2.4426,-0.5205 3.1852,0.496 0.0873,0.1195 0.1628,0.2473 0.2253,0.3814 z m -0.0905,-0.4299 c 0.0194,0.1206 0.0413,0.2413 0.0722,0.3595 0.003,0.0128 0.0395,0.1157 0.0184,0.0705 v 0 c 0.5319,1.141 0.0381,2.4972 -1.1029,3.0291 -0.987,0.46 -2.1615,0.1578 -2.8038,-0.7216 -0.4416,-0.6046 -0.6565,-1.3401 -0.7517,-2.0748 h -1e-4 c -0.1638,-1.2641 0.7282,-2.4217 1.9924,-2.5856 1.237,-0.1603 2.3776,0.6913 2.5755,1.9229 z m -0.0523,-1.679 c -0.011,0.5531 -0.0359,1.1302 0.0523,1.679 v 0 c 0.2022,1.2586 -0.6542,2.4428 -1.9128,2.645 -1.2586,0.2022 -2.4428,-0.6542 -2.645,-1.9128 -0.004,-0.0231 -0.007,-0.0462 -0.01,-0.0694 -0.099,-0.7636 -0.1286,-1.537 -0.1558,-2.3058 v 0 c -0.0455,-1.2897 0.9631,-2.372 2.2528,-2.4176 1.2896,-0.0455 2.372,0.9631 2.4175,2.2528 0.001,0.0429 0.002,0.0859 0.001,0.1288 z m -4.0819,-3.2225 v 0 c 0.6457,-1.1548 2.1054,-1.5675 3.2603,-0.9218 1.1002,0.6152 1.5355,1.9778 0.9957,3.1169 -0.0544,0.1149 -0.0846,0.1399 -0.1055,0.2433 -0.0118,0.058 -0.0208,0.1166 -0.0284,0.1753 -0.0261,0.2018 -0.0362,0.4055 -0.0402,0.6088 v 0 c -0.0257,1.2902 -1.0924,2.3153 -2.3826,2.2897 -1.2401,-0.0247 -2.2449,-1.0141 -2.2887,-2.2537 -0.0389,-1.1027 0.0398,-2.2756 0.5894,-3.2585 z m 0,10e-5 c 0.417,-0.7458 1.017,-1.3754 1.7219,-1.8552 v 0 c 1.1107,-0.7561 2.6241,-0.4686 3.3802,0.6421 0.7561,1.1107 0.4686,2.6241 -0.6421,3.3802 -0.0296,0.0201 -0.0596,0.0396 -0.09,0.0584 -0.0983,0.0607 -0.1965,0.1339 -0.2596,0.2327 v 0 c -0.7119,1.1153 -2.1932,1.4423 -3.3084,0.7303 -1.0696,-0.6827 -1.4213,-2.081 -0.802,-3.1885 z m 1.722,-1.8552 c 0.7778,-0.5295 1.684,-0.8382 2.6025,-1.0154 v 0 c 1.3566,-0.2616 2.6684,0.626 2.93,1.9825 0.2617,1.3565 -0.6259,2.6683 -1.9824,2.93 -0.0789,0.0152 -0.1584,0.0266 -0.2383,0.0342 -0.2071,0.0195 -0.4801,0.0358 -0.6639,0.1494 v 0 c -1.1429,0.7064 -2.6421,0.3524 -3.3485,-0.7906 -0.6844,-1.1075 -0.3757,-2.5575 0.7006,-3.2901 z m 2.6025,-1.0154 c 1.0278,-0.1982 2.0848,-0.2129 3.1254,-0.1268 v 0 c 1.4239,0.1177 2.4827,1.3674 2.365,2.7913 -0.1177,1.4239 -1.3675,2.4827 -2.7914,2.365 -0.0419,-0.004 -0.0838,-0.008 -0.1256,-0.0135 -0.6155,-0.0813 -1.2443,-0.1279 -1.8641,-0.0693 v 0 c -1.3754,0.13 -2.5958,-0.8795 -2.7259,-2.255 -0.1213,-1.2826 0.7516,-2.4476 2.0166,-2.6917 z m 3.1255,-0.1268 c 1.2953,0.1071 2.5591,0.4702 3.7543,0.9721 v 0 c 1.3435,0.5642 1.9753,2.1108 1.4111,3.4543 -0.5642,1.3436 -2.1108,1.9754 -3.4543,1.4112 -0.0169,-0.007 -0.0338,-0.0144 -0.0505,-0.0218 -0.704,-0.3131 -1.4459,-0.5717 -2.2127,-0.673 v 0 c -1.4164,-0.1871 -2.413,-1.4871 -2.2258,-2.9035 0.1807,-1.3678 1.4029,-2.353 2.7779,-2.2393 z m 3.7543,0.9721 c 1.1928,0.5009 2.3486,1.0881 3.4637,1.7436 v 0 c 1.268,0.7454 1.6916,2.3776 0.9462,3.6455 -0.7453,1.268 -2.3775,1.6916 -3.6454,0.9462 -0.006,-0.003 -0.0114,-0.007 -0.0171,-0.0101 -0.9172,-0.5484 -1.8645,-1.0473 -2.8411,-1.4815 v 0 c -1.3315,-0.5921 -1.931,-2.1515 -1.3389,-3.4831 0.5834,-1.3119 2.1088,-1.9165 3.4326,-1.3606 z m 3.4637,1.7436 c 1.1174,0.6569 2.1888,1.3951 3.1806,2.2304 v 0 c 1.1357,0.9565 1.281,2.6524 0.3246,3.7881 -0.9564,1.1357 -2.6524,1.281 -3.7881,0.3246 -0.0155,-0.0131 -0.0309,-0.0264 -0.0462,-0.0398 -0.7371,-0.6499 -1.5444,-1.2177 -2.3872,-1.7217 v 0 c -1.2624,-0.7548 -1.6738,-2.39 -0.919,-3.6524 0.7508,-1.2558 2.374,-1.6706 3.6353,-0.9292 z m 3.1806,2.2304 c 0.9078,0.7645 1.7592,1.5979 2.5231,2.5068 v 0 c 0.9618,1.1445 0.8138,2.852 -0.3306,3.8138 -1.1444,0.9619 -2.8519,0.8139 -3.8138,-0.3305 0,0 0,0 0,0 -0.5777,-0.6874 -1.2151,-1.3236 -1.8884,-1.9172 v 0 c -1.1137,-0.9819 -1.2205,-2.6808 -0.2386,-3.7945 0.9662,-1.0959 2.6308,-1.2195 3.7483,-0.2784 z m 2.5231,2.5068 c 0.7382,0.8784 1.3983,1.8615 1.7381,2.9673 h -1e-4 c 0.437,1.4223 -0.3618,2.9297 -1.7842,3.3667 -1.3952,0.4286 -2.8781,-0.3318 -3.3443,-1.7149 -0.0459,-0.136 -0.1218,-0.2635 -0.1969,-0.3848 -0.1642,-0.265 -0.3566,-0.5126 -0.557,-0.751 v 0 c -0.9618,-1.1445 -0.8139,-2.8519 0.3306,-3.8138 1.1444,-0.9619 2.8519,-0.8139 3.8138,0.3305 z m 1.738,2.9672 c 0.218,0.7095 0.3868,1.4445 0.4074,2.1891 v 0 c 0.0409,1.4736 -1.1206,2.7013 -2.5943,2.7422 -1.4295,0.0396 -2.6363,-1.0545 -2.7366,-2.481 -0.0189,-0.2699 -0.1195,-0.5448 -0.205,-0.7984 v 0 c -0.4753,-1.4101 0.2824,-2.9384 1.6925,-3.4137 1.41,-0.4753 2.9384,0.2825 3.4137,1.6925 0.008,0.023 0.0152,0.0461 0.0223,0.0693 z m -4.8316,1.5447 v 0 c 0.3967,-1.4198 1.8693,-2.2491 3.2891,-1.8524 1.127,0.3149 1.9175,1.3271 1.9499,2.4968 0.0196,0.7083 -0.1675,1.4148 -0.5454,2.0152 -0.3377,0.5367 -0.8162,0.9722 -1.3655,1.2855 v -10e-5 c -1.2583,0.7176 -2.8601,0.2793 -3.5777,-0.979 -0.539,-0.9454 -0.4384,-2.1254 0.253,-2.9658 l -0.003,-2e-4 z m 0.3197,-0.4472 c 0.0547,-0.006 0.1095,-0.0143 0.163,-0.0272 0.1039,-0.0252 0.1201,-0.0651 0.2469,-0.1374 v 0 c 1.2583,-0.7175 2.8601,-0.2791 3.5777,0.9792 0.7175,1.2583 0.2791,2.8601 -0.9792,3.5777 -0.8023,0.4575 -1.7181,0.6712 -2.6365,0.7034 v 0 c -1.411,0.0496 -2.595,-1.0541 -2.6446,-2.4651 -0.0469,-1.3363 0.9438,-2.483 2.2727,-2.6306 z m -1.4424,0.0409 c 0.4808,0.0201 0.9639,0.0123 1.4424,-0.0409 v 0 c 1.4033,-0.1558 2.6672,0.8554 2.823,2.2587 0.1558,1.4032 -0.8554,2.6671 -2.2587,2.823 -0.0639,0.007 -0.1281,0.0118 -0.1924,0.014 -0.7391,0.026 -1.4798,-0.0142 -2.2139,-0.1022 v 0 c -1.3633,-0.1634 -2.336,-1.4011 -2.1726,-2.7645 0.1545,-1.2891 1.275,-2.2423 2.5722,-2.1881 z m -5.8995,-0.5656 c 1.272,0.1372 2.5443,0.2715 3.8179,0.3929 0.7026,0.0669 1.4062,0.1363 2.1111,0.1741 v 0 c 1.3712,0.0736 2.423,1.2447 2.3495,2.6158 -0.0736,1.3712 -1.2447,2.4231 -2.6159,2.3495 -0.0446,-0.002 -0.0891,-0.006 -0.1335,-0.0108 -0.9675,-0.1044 -1.9033,-0.4714 -2.793,-0.8475 -1.2374,-0.5232 -2.4388,-1.1316 -3.6265,-1.7581 v 0 c -0.7582,-0.3999 -1.0486,-1.3387 -0.6487,-2.0968 0.2967,-0.5627 0.9067,-0.8873 1.5391,-0.8191 z" />
        <path
           inkscape:connector-curvature="0"
           id="path3762"
           style="fill:#000000;fill-opacity:1;fill-rule:nonzero;stroke:none;stroke-width:1.04574823"
           d="m 211.8539,614.7631 v 0 c 0.003,-0.6522 0.5344,-1.1783 1.1866,-1.1752 0.5437,0.003 1.0154,0.3762 1.1425,0.9049 0.0232,0.0966 0.0475,0.1929 0.0733,0.2889 l 10e-4,-10e-4 c 0.2996,0.401 0.3476,0.9367 0.124,1.3846 -0.1845,0.3696 -0.5332,0.6432 -0.9432,0.7232 v 0 c -0.1872,0.0366 -0.3801,0.0321 -0.5654,-0.0132 l -1e-4,5e-4 c -0.1999,-0.0485 -0.3858,-0.1432 -0.5425,-0.2765 -0.2996,-0.2547 -0.4505,-0.6103 -0.4698,-0.9903 -0.004,-0.0703 -0.005,-0.1406 -0.006,-0.211 -0.003,-0.2116 -0.002,-0.4232 -0.001,-0.6348 z m 0.0208,0.7189 c 0.0134,-0.194 0.0269,-0.388 0.0403,-0.582 v 0 c 0.0558,-0.8052 0.7539,-1.4127 1.5591,-1.3569 0.8052,0.0558 1.4127,0.7538 1.3568,1.5591 -0.0155,0.2246 -0.0828,0.4425 -0.1965,0.6369 -0.0982,0.1678 -0.1964,0.3356 -0.2945,0.5034 v 0 c -0.3695,0.6316 -1.181,0.8441 -1.8126,0.4746 -0.4345,-0.2543 -0.6875,-0.7329 -0.6526,-1.2351 z m 3.2481,-3.729 c -0.0105,0.7798 -0.0283,1.5616 -0.097,2.3388 -0.0489,0.5533 -0.1053,1.1582 -0.3914,1.6472 v 0 c -0.4076,0.6967 -1.3027,0.9311 -1.9994,0.5235 -0.4794,-0.2805 -0.7584,-0.8084 -0.72,-1.3625 0.0212,-0.3062 0.006,-0.618 0.002,-0.9245 -0.01,-0.7337 -0.0286,-1.4671 -0.0484,-2.2005 v 0 c -0.0243,-0.8986 0.6845,-1.6467 1.5831,-1.6709 0.8986,-0.0243 1.6467,0.6845 1.6709,1.5831 6e-4,0.0219 8e-4,0.0439 5e-4,0.0658 z m -0.3296,-5.2067 c 0.2826,1.7181 0.353,3.468 0.3296,5.2067 v 0 c -0.0121,0.8989 -0.7506,1.6177 -1.6494,1.6056 -0.8733,-0.0118 -1.5816,-0.7106 -1.6051,-1.5836 -0.0419,-1.552 -0.153,-3.1109 -0.4376,-4.639 v 0 c -0.1727,-0.9268 0.4387,-1.8181 1.3655,-1.9908 0.9268,-0.1727 1.8181,0.4387 1.9908,1.3655 0.002,0.0119 0.004,0.0237 0.006,0.0356 z m -0.9331,-4.5892 c 0.3613,1.5189 0.6798,3.0485 0.9331,4.5892 v 0 c 0.153,0.9303 -0.4771,1.8085 -1.4074,1.9615 -0.9163,0.1507 -1.7851,-0.4588 -1.9551,-1.3718 -0.2716,-1.4574 -0.6016,-2.9036 -0.9693,-4.3396 v 0 c -0.2398,-0.9366 0.325,-1.8902 1.2615,-2.13 0.9366,-0.2399 1.8902,0.325 2.13,1.2615 0.002,0.01 0.005,0.0194 0.007,0.0292 z m -1.4906,-5.0796 c 0.5764,1.6684 1.0821,3.3621 1.4906,5.0796 v 0 c 0.2238,0.9405 -0.3573,1.8843 -1.2979,2.108 -0.9291,0.221 -1.8639,-0.3435 -2.1008,-1.2687 -0.4098,-1.6002 -0.9056,-3.1777 -1.463,-4.7324 v 0 c -0.333,-0.929 0.1501,-1.952 1.0791,-2.2851 0.929,-0.333 1.9521,0.1501 2.2851,1.0791 0.002,0.007 0.005,0.013 0.007,0.0195 z m -1.9722,-5.1676 c 0.7113,1.7013 1.37,3.4246 1.9722,5.1676 v 0 c 0.3222,0.9328 -0.1727,1.9502 -1.1054,2.2725 -0.9252,0.3196 -1.9354,-0.1646 -2.2657,-1.086 -0.599,-1.6709 -1.2423,-3.3259 -1.927,-4.9636 v 0 c -0.384,-0.9184 0.0493,-1.9742 0.9677,-2.3582 0.9184,-0.3839 1.9742,0.0493 2.3582,0.9677 0,0 0,0 0,0 z m -2.2877,-4.714 c 0.8649,1.5188 1.6138,3.1021 2.2877,4.714 v 0 c 0.384,0.9184 -0.0493,1.9742 -0.9677,2.3582 -0.9184,0.384 -1.9742,-0.0492 -2.3582,-0.9677 -0.6148,-1.4705 -1.302,-2.9144 -2.1059,-4.2916 v 0 c -0.5052,-0.8656 -0.2131,-1.9768 0.6525,-2.482 0.8655,-0.5052 1.9767,-0.2131 2.482,0.6524 0.003,0.006 0.006,0.0112 0.01,0.0167 z m -2.4769,-3.8253 c 0.9055,1.2209 1.7248,2.5048 2.4769,3.8254 v 0 c 0.496,0.8708 0.192,1.9789 -0.6788,2.4749 -0.8644,0.4922 -1.9639,0.1969 -2.4653,-0.6621 -0.6926,-1.1867 -1.4437,-2.3407 -2.2725,-3.437 v 0 c -0.6115,-0.809 -0.4515,-1.9606 0.3575,-2.5721 0.809,-0.6116 1.9606,-0.4515 2.5721,0.3575 0.003,0.004 0.007,0.009 0.0101,0.0134 z m -2.5734,-2.9892 c 0.9457,0.9156 1.79,1.933 2.5734,2.9892 v 0 c 0.6041,0.8145 0.4336,1.9645 -0.381,2.5687 -0.8092,0.6002 -1.9511,0.4362 -2.5587,-0.3675 -0.6681,-0.8838 -1.3865,-1.7377 -2.1971,-2.495 v 0 c -0.7506,-0.7012 -0.7906,-1.8782 -0.0894,-2.6288 0.7012,-0.7506 1.8782,-0.7906 2.6288,-0.0894 0.008,0.008 0.0161,0.0152 0.024,0.0228 z m -2.8311,-1.8952 c 1.0802,0.386 2.0146,1.1047 2.8311,1.8952 v 0 c 0.738,0.7145 0.7571,1.892 0.0426,2.63 -0.7055,0.7287 -1.8648,0.7578 -2.606,0.0654 -0.4432,-0.4141 -0.9481,-0.8532 -1.529,-1.0607 v 0 c -0.9748,-0.3484 -1.4826,-1.4209 -1.1343,-2.3957 0.3483,-0.9747 1.4209,-1.4825 2.3956,-1.1342 z m -2.3492,-0.522 c 0.8035,0.0559 1.5924,0.2516 2.3492,0.522 v 0 c 0.9748,0.3483 1.4826,1.4208 1.1343,2.3956 -0.3483,0.9747 -1.4209,1.4826 -2.3956,1.1343 0,0 0,0 0,0 -0.3991,-0.1426 -0.8218,-0.2556 -1.2482,-0.2621 v 0 c -1.0477,-0.0157 -1.8843,-0.8779 -1.8685,-1.9256 0.0158,-1.0478 0.878,-1.8843 1.9257,-1.8685 0.0344,5e-4 0.0688,0.002 0.1031,0.004 z m -2.1428,0.1825 c 0.6963,-0.1886 1.425,-0.2324 2.1428,-0.1825 v 0 c 1.0453,0.0727 1.8338,0.9791 1.7611,2.0244 -0.07,1.0054 -0.9137,1.7806 -1.9214,1.7654 -0.3011,-0.005 -0.6115,0.0142 -0.9008,0.1045 v 0 c -1.0193,0.3183 -2.1035,-0.25 -2.4218,-1.2693 -0.3183,-1.0193 0.25,-2.1036 1.2693,-2.4218 0.0235,-0.007 0.0471,-0.0142 0.0708,-0.0207 z m -2.1028,1.4355 c 0.5109,-0.7101 1.2611,-1.2075 2.1028,-1.4355 v 0 c 1.0307,-0.2791 2.0925,0.3301 2.3717,1.3608 0.2716,1.003 -0.2981,2.0413 -1.29,2.351 -0.0144,0.005 -0.037,0.0117 -0.0476,0.0185 0.0652,-0.042 0.2359,-0.2272 -0.1316,0.1678 v 0 c -0.7322,0.7871 -1.9639,0.8315 -2.751,0.0993 -0.718,-0.668 -0.827,-1.7658 -0.2543,-2.5619 z m -0.8439,1.9741 c 0.1457,-0.7066 0.4216,-1.3871 0.844,-1.9742 v 0 c 0.6278,-0.8726 1.8442,-1.0711 2.7168,-0.4432 0.8727,0.6278 1.0712,1.8442 0.4433,2.7168 0,10e-5 0,10e-5 0,10e-5 -0.105,0.1459 -0.1613,0.3237 -0.1983,0.4977 v 0 c -0.2234,1.0502 -1.256,1.7205 -2.3062,1.497 -1.0456,-0.2224 -1.7155,-1.2473 -1.4996,-2.2942 z m -0.203,1.7751 c 0.0133,-0.5964 0.0826,-1.191 0.203,-1.7751 v 0 c 0.2168,-1.0517 1.2451,-1.7284 2.2968,-1.5116 1.0516,0.2168 1.7284,1.2451 1.5115,2.2968 -8e-4,0.004 -0.002,0.008 -0.002,0.012 -0.0741,0.3485 -0.1171,0.7036 -0.1242,1.0599 v 0 c -0.0215,1.0727 -0.9085,1.9249 -1.9812,1.9034 -1.0727,-0.0215 -1.9249,-0.9085 -1.9034,-1.9812 0,-10e-4 0,-0.003 0,-0.004 z m 0,-10e-5 v 0 c 0.0239,-1.0726 0.9128,-1.9229 1.9854,-1.899 1.071,0.0238 1.9206,0.9101 1.8992,1.9811 -0.004,0.204 0.0302,0.4066 0.106,0.5962 v 0 c 0.4007,1.0012 -0.0862,2.1377 -1.0875,2.5383 -1.0012,0.4007 -2.1377,-0.0862 -2.5383,-1.0874 -0.006,-0.016 -0.0126,-0.0321 -0.0186,-0.0482 -0.2457,-0.6646 -0.3619,-1.3728 -0.3462,-2.081 z m 3.9906,0.6782 c 0.1181,0.2952 0.2828,0.5702 0.4721,0.8251 v 0 c 0.646,0.8698 0.4646,2.0987 -0.4053,2.7448 -0.8698,0.646 -2.0987,0.4646 -2.7448,-0.4053 -0.4007,-0.5395 -0.7331,-1.1309 -0.9664,-1.7618 v 0 c -0.374,-1.0115 0.1427,-2.1347 1.1542,-2.5088 0.9926,-0.367 2.097,0.1235 2.4902,1.106 z m 0.4721,0.8251 c 0.1437,0.1935 0.3118,0.3699 0.4793,0.5427 0.2994,0.3089 0.613,0.6038 0.9308,0.8936 v 0 c 0.7972,0.7268 0.8542,1.9623 0.1273,2.7595 -0.7214,0.7912 -1.9453,0.8541 -2.7441,0.1411 -0.6891,-0.6151 -1.3904,-1.2528 -1.9434,-1.9973 v 0 c -0.646,-0.8699 -0.4646,-2.0988 0.4053,-2.7448 0.8698,-0.6461 2.0987,-0.4647 2.7448,0.4052 z m 1.4101,1.4363 c 0.7764,0.7079 1.5822,1.3831 2.4125,2.0267 l 1e-4,-1e-4 c 0.8391,0.6504 0.9921,1.8579 0.3417,2.697 -0.6381,0.8234 -1.816,0.9886 -2.656,0.3727 -0.9391,-0.6885 -1.8465,-1.4202 -2.7152,-2.1957 v 0 c -0.8047,-0.7185 -0.8748,-1.9532 -0.1563,-2.758 0.7184,-0.8048 1.9532,-0.8748 2.758,-0.1564 0.005,0.005 0.0102,0.009 0.0152,0.0138 z m 2.4126,2.0267 c 0.8944,0.6932 1.8114,1.3572 2.7445,1.9975 v 0 c 0.8521,0.5849 1.0688,1.7498 0.484,2.602 -0.572,0.8335 -1.7026,1.0621 -2.5535,0.5163 -1.0165,-0.6521 -2.0153,-1.3321 -2.9893,-2.0462 v 0 c -0.8562,-0.6278 -1.0414,-1.8307 -0.4136,-2.6869 0.6277,-0.8562 1.8307,-1.0414 2.6869,-0.4137 0.0138,0.0102 0.0274,0.0205 0.041,0.031 z m 2.7445,1.9975 c 0.7193,0.4937 1.4431,0.9902 2.2023,1.4215 v 0 c 0.8853,0.5029 1.1954,1.6283 0.6924,2.5137 -0.5029,0.8853 -1.6283,1.1953 -2.5136,0.6924 -7e-4,-4e-4 -0.001,-8e-4 -0.002,-10e-4 -0.8327,-0.4744 -1.642,-0.9908 -2.4485,-1.5081 v 0 c -0.8699,-0.5581 -1.1228,-1.7157 -0.5648,-2.5857 0.5581,-0.87 1.7157,-1.1228 2.5857,-0.5648 0.0164,0.0105 0.0325,0.0212 0.0486,0.0322 z m 2.2023,1.4215 c 0.3126,0.1776 0.6416,0.3274 0.9697,0.4739 0.546,0.2438 1.0999,0.4701 1.6557,0.6906 v 0 c 0.9468,0.3756 1.4098,1.4476 1.0342,2.3944 -0.3756,0.9468 -1.4476,1.4098 -2.3944,1.0342 -1.0446,-0.4144 -2.1098,-0.8306 -3.0885,-1.3882 v 0 c -0.8847,-0.504 -1.1933,-1.6298 -0.6892,-2.5145 0.5036,-0.8839 1.6279,-1.1929 2.5125,-0.6904 z m 2.6254,1.1645 c 1.2932,0.513 2.62,0.9399 3.968,1.2838 v 0 c 0.9787,0.2497 1.5697,1.2456 1.32,2.2244 -0.2473,0.9692 -1.2274,1.56 -2.2,1.326 -1.5132,-0.364 -3.0014,-0.8317 -4.4481,-1.4056 v 0 c -0.9468,-0.3756 -1.4099,-1.4476 -1.0342,-2.3944 0.3756,-0.9468 1.4476,-1.4098 2.3943,-1.0342 0,0 0,0 0,0 z m 3.9679,1.2838 c 1.1406,0.291 2.2809,0.5841 3.4153,0.8984 v 0 c 0.9623,0.2667 1.5262,1.263 1.2596,2.2254 -0.2651,0.9564 -1.2514,1.5204 -2.2101,1.2637 -1.1102,-0.2972 -2.2274,-0.5683 -3.3447,-0.8371 v 0 c -0.9821,-0.2363 -1.5867,-1.2239 -1.3504,-2.206 0.2363,-0.9821 1.2239,-1.5867 2.206,-1.3504 0.008,0.002 0.0162,0.004 0.0243,0.006 z m 3.4153,0.8984 c 0.8546,0.2369 1.6953,0.5268 2.5085,0.8813 v 0 c 0.907,0.3954 1.3218,1.4512 0.9264,2.3582 -0.3901,0.8947 -1.4245,1.3126 -2.3265,0.9399 -0.6695,-0.2767 -1.3593,-0.503 -2.0589,-0.6903 v 0 c -0.9647,-0.2582 -1.5373,-1.2496 -1.279,-2.2142 0.2582,-0.9646 1.2496,-1.5373 2.2142,-1.279 0.005,10e-4 0.0102,0.003 0.0153,0.004 z m 2.5085,0.8813 c 0.76,0.3313 1.5004,0.7076 2.2141,1.1297 v 0 c 0.8443,0.4992 1.1239,1.5883 0.6247,2.4326 -0.4964,0.8393 -1.5767,1.1214 -2.4201,0.6319 -0.585,-0.3395 -1.1937,-0.6378 -1.8188,-0.8961 v 0 c -0.9145,-0.3779 -1.3495,-1.4256 -0.9716,-2.34 0.3779,-0.9145 1.4255,-1.3494 2.34,-0.9716 0.0106,0.004 0.0212,0.009 0.0317,0.0135 z m 2.2141,1.1297 c 0.7664,0.4532 1.484,0.9865 2.1518,1.5747 v 0 c 0.7321,0.6449 0.8028,1.7611 0.158,2.4932 -0.6412,0.7279 -1.7495,0.8026 -2.4826,0.1672 -0.5045,-0.4374 -1.0448,-0.8352 -1.6226,-1.1706 v 0 c -0.8483,-0.4923 -1.1368,-1.5791 -0.6445,-2.4274 0.4923,-0.8482 1.5791,-1.1368 2.4274,-0.6444 0.004,0.002 0.008,0.005 0.0125,0.007 z m 2.1518,1.5747 c 0.6914,0.609 1.3213,1.288 1.8681,2.0298 v 0 c 0.5753,0.7805 0.4089,1.8796 -0.3716,2.4549 -0.775,0.5713 -1.8654,0.4118 -2.4444,-0.3574 -0.4042,-0.5369 -0.869,-1.0269 -1.3767,-1.4669 v 0 c -0.7372,-0.639 -0.8168,-1.7546 -0.1778,-2.4918 0.639,-0.7372 1.7546,-0.8168 2.4918,-0.1778 0.004,0.003 0.007,0.006 0.0106,0.009 z m 1.8681,2.0298 c 0.5439,0.738 1.0107,1.5316 1.4049,2.359 v 0 c 0.4084,0.8574 0.0445,1.8836 -0.8129,2.2921 -0.8284,0.3946 -1.8207,0.0693 -2.2548,-0.7391 -0.3392,-0.632 -0.7217,-1.2413 -1.1532,-1.8145 v 0 c -0.5831,-0.7747 -0.4278,-1.8754 0.3469,-2.4585 0.7747,-0.5831 1.8754,-0.4279 2.4585,0.3468 0.004,0.005 0.007,0.01 0.0106,0.0142 z m 1.4049,2.359 c 0.3976,0.8347 0.7621,1.685 1.1023,2.5445 v 0 c 0.3362,0.8493 -0.0798,1.8103 -0.9291,2.1465 -0.819,0.3242 -1.7484,-0.0504 -2.1136,-0.852 -0.3524,-0.7732 -0.7253,-1.5374 -1.1273,-2.2861 v 0 c -0.4492,-0.8367 -0.135,-1.8793 0.7018,-2.3285 0.8368,-0.4492 1.8793,-0.135 2.3285,0.7018 0.0131,0.0243 0.0255,0.0489 0.0374,0.0738 z m 1.1023,2.5446 c 0.3489,0.8813 0.659,1.7786 0.915,2.6915 v 0 c 0.2348,0.837 -0.2535,1.706 -1.0905,1.9407 -0.7964,0.2234 -1.6298,-0.2076 -1.9077,-0.9866 -0.2846,-0.7975 -0.6085,-1.5808 -0.9595,-2.3512 v 0 c -0.3788,-0.8312 -0.012,-1.812 0.8192,-2.1907 0.8312,-0.3788 1.812,-0.012 2.1907,0.8192 0.0116,0.0254 0.0225,0.0511 0.0328,0.0771 z m 0.915,2.6915 c 0.2472,0.8812 0.451,1.7745 0.6165,2.6745 v 0 c 0.148,0.8044 -0.3841,1.5764 -1.1884,1.7243 -0.7628,0.1403 -1.5045,-0.3316 -1.7006,-1.0819 -0.2084,-0.7974 -0.4487,-1.5866 -0.7257,-2.3628 v 0 c -0.2922,-0.8188 0.1347,-1.7194 0.9535,-2.0116 0.8188,-0.2922 1.7195,0.1348 2.0116,0.9536 0.0123,0.0342 0.0233,0.0689 0.0331,0.1039 z m 0.6165,2.6745 c 0.1851,1.0061 0.317,2.0216 0.4178,3.0393 v 0 c 0.0761,0.7675 -0.4844,1.4512 -1.2518,1.5273 -0.7439,0.0737 -1.4139,-0.4515 -1.5199,-1.1915 -0.1317,-0.9189 -0.3003,-1.8342 -0.5351,-2.7327 v 0 c -0.2068,-0.7913 0.267,-1.6003 1.0582,-1.8071 0.7913,-0.2068 1.6004,0.267 1.8072,1.0582 0.009,0.0352 0.017,0.0707 0.0236,0.1065 z m 0.4178,3.0393 c 0.0792,0.7992 0.1241,1.6021 0.1673,2.4038 0.0689,1.278 0.1217,2.5569 0.1701,3.8358 v 0 c 0.028,0.737 -0.5468,1.357 -1.2837,1.385 -0.731,0.0277 -1.3482,-0.538 -1.3843,-1.2686 -0.0621,-1.2601 -0.1307,-2.5202 -0.2235,-3.7785 -0.0552,-0.748 -0.1112,-1.4989 -0.2177,-2.2417 h 1e-4 c -0.1094,-0.7634 0.4207,-1.4709 1.1841,-1.5803 0.7634,-0.1094 1.4709,0.4208 1.5803,1.1842 0.003,0.02 0.005,0.0402 0.007,0.0603 z m 0.3374,6.2396 c 0.0444,1.1686 0.0895,2.3373 0.1474,3.5054 0.0164,0.3304 0.0333,0.6609 0.056,0.991 0.006,0.0822 0.0183,0.2699 0.0251,0.3093 v 0 c 0.1245,0.7192 -0.3576,1.4031 -1.0768,1.5276 -0.7191,0.1245 -1.403,-0.3576 -1.5275,-1.0768 -0.004,-0.0243 -0.008,-0.0487 -0.0106,-0.0732 -0.0591,-0.5099 -0.0722,-1.0279 -0.1004,-1.5401 -0.0648,-1.1753 -0.1232,-2.3511 -0.1812,-3.5268 v 0 c -0.0363,-0.7366 0.5313,-1.3631 1.2679,-1.3995 0.7366,-0.0363 1.3631,0.5314 1.3995,1.2679 2e-4,0.005 5e-4,0.0102 6e-4,0.0152 z m 0.2285,4.8056 c 0.0265,0.1531 0.053,0.3061 0.0795,0.4591 v 0 c 0.126,0.7262 -0.3605,1.4171 -1.0868,1.5431 -0.7262,0.126 -1.4171,-0.3605 -1.5431,-1.0867 -0.004,-0.0246 -0.008,-0.0492 -0.0107,-0.074 -0.018,-0.1545 -0.0359,-0.3092 -0.0538,-0.4637 v 0 c -0.0841,-0.725 0.4355,-1.3809 1.1605,-1.465 0.6965,-0.0808 1.3348,0.3964 1.4544,1.0872 z m -0.3064,1.6454 v 0 c -0.5291,0.5131 -1.374,0.5001 -1.8871,-0.029 -0.0584,-0.0603 -0.1111,-0.1259 -0.1571,-0.196 l -0.1148,-0.2174 c -0.2907,-0.6809 0.0256,-1.4685 0.7065,-1.7592 0.6808,-0.2907 1.4685,0.0256 1.7592,0.7064 0.1802,0.4221 0.1319,0.907 -0.1278,1.2853 z m 0.5793,-1.2066 c -0.0745,0.2206 -0.1489,0.4413 -0.2234,0.6619 v 0 c -0.2385,0.7069 -1.0049,1.0866 -1.7118,0.8481 -0.4087,-0.1379 -0.7269,-0.4626 -0.8565,-0.874 -0.07,-0.2221 -0.14,-0.4442 -0.21,-0.6663 v 0 c -0.2621,-0.8316 0.1996,-1.7182 1.0312,-1.9803 0.8316,-0.2621 1.7183,0.1996 1.9804,1.0312 0.1006,0.3193 0.0971,0.6622 -0.01,0.9794 z m 0.067,-2.8851 c 0.1412,0.9366 0.2418,1.9701 -0.067,2.8851 v 0 c -0.2788,0.8262 -1.1746,1.2699 -2.0007,0.9911 -0.4776,-0.1612 -0.8495,-0.5407 -1.001,-1.0214 -0.2282,-0.724 -0.3795,-1.4741 -0.5309,-2.2171 v 0 c -0.2016,-0.9894 0.4371,-1.955 1.4266,-2.1566 0.9895,-0.2016 1.955,0.4371 2.1566,1.4266 0.006,0.0306 0.0117,0.0614 0.0164,0.0923 z m -1.603,-8.3699 c 0.3677,1.8366 0.7334,3.6737 1.086,5.5132 0.1821,0.9498 0.3727,1.9002 0.517,2.8567 h -1e-4 c 0.1507,0.9985 -0.5367,1.9301 -1.5352,2.0807 -0.9625,0.1452 -1.87,-0.4892 -2.0643,-1.443 -0.1847,-0.9068 -0.4021,-1.8076 -0.6127,-2.7087 -0.4242,-1.815 -0.8578,-3.6279 -1.2928,-5.4404 v 0 c -0.2575,-1.0731 0.4036,-2.1517 1.4767,-2.4092 1.073,-0.2575 2.1516,0.4036 2.4091,1.4767 0.006,0.0245 0.0113,0.0492 0.0163,0.074 z m -1.9016,-9.7068 c 0.6019,3.2415 1.2544,6.474 1.9016,9.7068 v 0 c 0.2166,1.082 -0.4849,2.1348 -1.567,2.3514 -1.0531,0.2108 -2.0845,-0.4486 -2.3351,-1.4929 -0.7754,-3.2314 -1.5598,-6.4628 -2.2589,-9.7118 v 0 c -0.2524,-1.1728 0.4938,-2.3282 1.6667,-2.5806 1.1728,-0.2524 2.3282,0.4938 2.5806,1.6667 0.004,0.02 0.008,0.0402 0.0121,0.0604 z m -0.8907,-5.5601 c 0.249,1.8606 0.548,3.7145 0.8907,5.5601 v 0 c 0.219,1.1795 -0.5597,2.3133 -1.7392,2.5323 -1.156,0.2146 -2.2729,-0.5294 -2.5202,-1.6788 -0.4096,-1.9031 -0.7801,-3.8147 -1.1063,-5.7339 v 0 c -0.2095,-1.2324 0.6197,-2.4013 1.8522,-2.6108 1.2324,-0.2095 2.4013,0.6197 2.6108,1.8522 0.004,0.0262 0.008,0.0526 0.012,0.0789 z m -0.474,-5.2177 c 0.0788,1.7452 0.2422,3.4863 0.474,5.2177 v 0 c 0.1658,1.2391 -0.7042,2.378 -1.9432,2.5439 -1.2082,0.1617 -2.3276,-0.6624 -2.5318,-1.8642 -0.3148,-1.8519 -0.5606,-3.7158 -0.7219,-5.5874 v 0 c -0.1123,-1.3025 0.8525,-2.4494 2.155,-2.5616 1.3024,-0.1123 2.4493,0.8525 2.5616,2.155 0.003,0.0321 0.005,0.0643 0.006,0.0966 z m -0.077,-4.8148 c -0.0273,1.6051 0.005,3.2111 0.077,4.8147 v 0 c 0.0589,1.306 -0.952,2.4125 -2.2579,2.4714 -1.2684,0.0572 -2.356,-0.8964 -2.465,-2.1613 -0.146,-1.693 -0.2542,-3.3897 -0.3082,-5.0882 v 0 c -0.0434,-1.3678 1.0301,-2.5118 2.3979,-2.5553 1.3678,-0.0435 2.5118,1.0301 2.5553,2.3979 10e-4,0.0402 0.002,0.0805 9e-4,0.1208 z m -4.3584,-4.5519 v 0 c 0.5224,-1.3162 2.0128,-1.9598 3.329,-1.4375 1.3162,0.5223 1.9598,2.0128 1.4374,3.329 -0.0138,0.0348 -0.0284,0.0693 -0.0437,0.1035 -0.1223,0.2728 -0.1824,0.5761 -0.2309,0.8693 -0.0922,0.557 -0.1239,1.1237 -0.1334,1.6876 v 0 c -0.0233,1.3682 -1.1513,2.4586 -2.5196,2.4353 -1.3213,-0.0224 -2.3925,-1.0778 -2.4345,-2.3987 -0.0487,-1.5343 0.023,-3.1452 0.5957,-4.5885 z m 0,-10e-5 c 0.4802,-1.21 1.2599,-2.3023 2.3422,-3.0425 v 0 c 1.1821,-0.8086 2.7959,-0.5058 3.6045,0.6763 0.8086,1.1822 0.5058,2.796 -0.6763,3.6046 -0.2588,0.177 -0.4228,0.4782 -0.5477,0.7568 v 0 c -0.5796,1.292 -2.0968,1.8696 -3.3888,1.2901 -1.2522,-0.5617 -1.8401,-2.0097 -1.3339,-3.2852 z m 2.3421,-3.0425 c 0.9108,-0.623 1.9523,-1.0377 3.0382,-1.2294 v 0 c 1.3921,-0.2457 2.7198,0.6836 2.9656,2.0757 0.2356,1.3342 -0.6094,2.6209 -1.9274,2.9349 -0.4092,0.0975 -0.8004,0.2618 -1.1481,0.4996 v 0 c -1.1821,0.8087 -2.7959,0.5059 -3.6045,-0.6762 -0.8087,-1.1821 -0.5059,-2.796 0.6762,-3.6046 0,0 0,0 0,0 z m 3.0382,-1.2294 c 1.1347,-0.2003 2.3026,-0.1269 3.4141,0.1684 v -10e-5 c 1.3278,0.3527 2.1183,1.715 1.7656,3.0428 -0.3374,1.2704 -1.6049,2.059 -2.8937,1.8004 -0.4111,-0.0826 -0.8379,-0.0985 -1.2479,-9e-4 v 0 c -1.3751,0.3276 -2.7555,-0.5216 -3.0831,-1.8968 -0.3276,-1.3751 0.5217,-2.7555 1.8968,-3.0831 0.0491,-0.0117 0.0985,-0.0219 0.1482,-0.0307 z m 3.4141,0.1684 c 1.1829,0.3141 2.2811,0.8913 3.2795,1.5915 v 0 c 1.0956,0.7684 1.3609,2.2794 0.5925,3.375 -0.7505,1.07 -2.2144,1.352 -3.3087,0.6373 -0.5153,-0.3365 -1.0826,-0.6386 -1.6914,-0.7607 v 0 c -1.3469,-0.2704 -2.2197,-1.5815 -1.9494,-2.9284 0.2704,-1.347 1.5814,-2.2198 2.9284,-1.9495 0.0501,0.0101 0.0998,0.0216 0.1491,0.0347 z m 3.2795,1.5915 c 1.0157,0.7123 1.9728,1.5062 2.8819,2.3495 v 0 c 0.9454,0.8769 1.0009,2.3542 0.124,3.2995 -0.8348,0.9 -2.2241,0.9998 -3.1789,0.2283 -0.8179,-0.6607 -1.6626,-1.2899 -2.5432,-1.865 v 0 c -1.1204,-0.7317 -1.4354,-2.2332 -0.7037,-3.3535 0.7318,-1.1204 2.2332,-1.4355 3.3536,-0.7037 0.0224,0.0146 0.0445,0.0295 0.0663,0.0449 z m 2.8819,2.3495 c 0.9508,0.8819 1.8454,1.8245 2.6731,2.8229 v 0 c 0.7816,0.9429 0.6509,2.3408 -0.2919,3.1225 -0.9019,0.7476 -2.2297,0.6648 -3.0317,-0.1891 -0.7487,-0.7972 -1.5538,-1.5412 -2.4044,-2.2284 v 0 c -1.003,-0.8104 -1.1592,-2.2804 -0.3489,-3.2834 0.8103,-1.003 2.2803,-1.1592 3.2833,-0.3488 0.0413,0.0334 0.0815,0.0682 0.1205,0.1043 z m 2.6731,2.8229 c 0.8019,0.9674 1.5452,1.9838 2.2168,3.046 v 0 c 0.6167,0.9752 0.3259,2.2657 -0.6493,2.8824 -0.917,0.5798 -2.1253,0.3612 -2.781,-0.5032 -0.6582,-0.8675 -1.3646,-1.6981 -2.1101,-2.4918 v 0 c -0.8384,-0.8926 -0.7944,-2.296 0.0983,-3.1345 0.8926,-0.8384 2.296,-0.7944 3.1345,0.0982 0.0313,0.0334 0.0616,0.0677 0.0908,0.1029 z m 2.2168,3.0459 c 0.619,0.979 1.2033,1.9802 1.7434,3.0049 v 0 c 0.5009,0.9504 0.1366,2.1269 -0.8138,2.6278 -0.8915,0.4699 -1.9942,0.1811 -2.541,-0.6654 -0.5723,-0.8859 -1.1815,-1.7478 -1.8189,-2.588 v 0 c -0.6974,-0.9192 -0.5176,-2.2298 0.4017,-2.9272 0.9192,-0.6974 2.2298,-0.5175 2.9272,0.4017 0.0359,0.0473 0.0697,0.0961 0.1014,0.1462 z m 1.7433,3.0048 c 0.512,0.9714 0.9466,1.9926 1.2133,3.0599 v 0 c 0.2316,0.9267 -0.3318,1.8656 -1.2585,2.0972 -0.78,0.195 -1.5915,-0.1733 -1.9583,-0.8887 -0.4066,-0.793 -0.8679,-1.5576 -1.3512,-2.3058 v 0 c -0.5829,-0.9024 -0.3239,-2.1065 0.5785,-2.6895 0.9024,-0.5829 2.1065,-0.3239 2.6894,0.5785 0.0311,0.0482 0.0601,0.0977 0.0868,0.1484 z m 1.2133,3.0599 c 0.2076,0.8305 0.3622,1.6769 0.4246,2.5314 v 0 c 0.0583,0.799 -0.5421,1.494 -1.3411,1.5524 -0.6582,0.0481 -1.2658,-0.3541 -1.4787,-0.9787 -0.2225,-0.6527 -0.5072,-1.2835 -0.8216,-1.8966 v 0 c -0.4358,-0.85 -0.1001,-1.8923 0.7498,-2.3281 0.85,-0.4358 1.8923,-0.1001 2.3281,0.7498 0.0603,0.1176 0.1069,0.2416 0.1389,0.3698 z m 0.4246,2.5314 c 0.0639,0.8756 0.081,1.7547 0.0832,2.6324 v 0 c 0.002,0.6848 -0.552,1.2414 -1.2368,1.2431 -0.6359,0.002 -1.1699,-0.4781 -1.2363,-1.1105 -0.0775,-0.7379 -0.1897,-1.4866 -0.4299,-2.1913 v 0 c -0.2585,-0.7584 0.1467,-1.5826 0.905,-1.8411 0.7583,-0.2585 1.5825,0.1467 1.841,0.905 0.04,0.1171 0.0647,0.2389 0.0738,0.3624 z m -2.3747,3.3607 c 0.0154,-0.1987 0.006,-0.3976 -0.0152,-0.5957 v 0 c -0.0715,-0.681 0.4226,-1.2911 1.1037,-1.3626 0.681,-0.0716 1.2911,0.4226 1.3626,1.1036 0.005,0.042 0.007,0.0842 0.007,0.1264 0.001,0.4273 -0.002,0.8553 -0.0259,1.282 -0.0179,0.3194 -0.0446,0.6437 -0.1327,0.9525 h -1e-4 c -0.2183,0.7652 -1.0156,1.2084 -1.7808,0.9901 -0.7652,-0.2184 -1.2085,-1.0157 -0.9901,-1.7809 0.0803,-0.2813 0.2443,-0.5315 0.4702,-0.7173 l 0.001,0.002 z m 2.207,0.4756 v 0 c 0.1573,0.3202 0.1902,0.6875 0.0922,1.0306 -0.0618,0.2168 -0.1513,0.4251 -0.2814,0.6102 -0.344,0.4894 -0.9302,0.7654 -1.5266,0.7317 -0.8888,-0.0501 -1.5426,-0.7236 -1.8458,-1.5143 v 0 c -0.3656,-0.9531 0.1108,-2.0222 1.0639,-2.3877 0.9532,-0.3656 2.0222,0.1108 2.3877,1.0639 0.0575,0.1498 0.0952,0.3064 0.1122,0.4658 l -0.002,-2e-4 z m 0.0166,-1.9705 c -0.0157,0.6997 -0.0302,1.4012 -0.005,2.1008 v 0 c 0.0365,1.0202 -0.7609,1.8768 -1.7811,1.9133 -0.7892,0.0282 -1.5092,-0.4481 -1.7919,-1.1854 -0.3235,-0.8435 -0.4572,-1.7582 -0.5542,-2.6518 v 0 c -0.1234,-1.1379 0.6989,-2.1605 1.8369,-2.284 1.1379,-0.1235 2.1605,0.6989 2.284,1.8369 0.01,0.0897 0.0136,0.18 0.0116,0.2702 h -1e-4 z m 0.1322,-4.4236 c -0.0492,1.4743 -0.0989,2.9488 -0.1322,4.4236 h 1e-4 c -0.0258,1.1444 -0.9744,2.0511 -2.1187,2.0253 -1.04,-0.0234 -1.9015,-0.8142 -2.0138,-1.8484 -0.1654,-1.5248 -0.2187,-3.0637 -0.2731,-4.5957 v 0 c -0.0445,-1.253 0.9352,-2.3048 2.1882,-2.3493 1.253,-0.0445 2.3048,0.9352 2.3493,2.1882 0.002,0.0521 0.002,0.1042 2e-4,0.1563 z m 0.1634,-4.1093 c -0.0777,1.3684 -0.1177,2.7395 -0.1634,4.1093 v 0 c -0.0418,1.2531 -1.0915,2.235 -2.3446,2.1932 -1.1925,-0.0397 -2.1508,-0.9959 -2.1931,-2.1883 -0.05,-1.4071 -0.1054,-2.815 -0.1217,-4.223 v 0 c -0.0154,-1.3328 1.0525,-2.4257 2.3853,-2.4412 1.3328,-0.0154 2.4258,1.0525 2.4412,2.3853 6e-4,0.0549 -6e-4,0.1099 -0.004,0.1647 z m -4.6092,-2.7425 v 0 c 0.2478,-1.3363 1.5319,-2.2186 2.8682,-1.9708 1.3362,0.2478 2.2186,1.5319 1.9708,2.8682 -0.002,0.0125 -0.005,0.025 -0.007,0.0375 -0.1201,0.5957 -0.1882,1.2012 -0.2226,1.8076 v 0 c -0.0755,1.3308 -1.2156,2.3483 -2.5463,2.2728 -1.267,-0.0719 -2.2618,-1.1127 -2.2765,-2.3816 -0.0102,-0.8819 0.0527,-1.766 0.2136,-2.6337 z m 0,0 c 0.1267,-0.6831 0.2799,-1.3628 0.4864,-2.0265 v 0 c 0.4061,-1.3053 1.7935,-2.0342 3.0988,-1.6281 1.3053,0.4061 2.0342,1.7935 1.6281,3.0988 -0.004,0.0133 -0.008,0.0266 -0.0127,0.0398 -0.1563,0.4741 -0.2703,0.962 -0.3688,1.4509 v 0 c -0.2686,1.3322 -1.5662,2.1946 -2.8985,1.926 -1.3177,-0.2655 -2.1784,-1.5393 -1.9333,-2.8609 z m 0.4864,-2.0265 c 0.1975,-0.6348 0.4559,-1.2531 0.7985,-1.8239 h -1e-4 c 0.7059,-1.176 2.2314,-1.5571 3.4074,-0.8513 1.176,0.7059 1.5572,2.2314 0.8513,3.4074 -0.002,0.004 -0.005,0.008 -0.007,0.0113 -0.145,0.2388 -0.2489,0.5024 -0.3361,0.767 v 0 c -0.4281,1.2983 -1.8276,2.0037 -3.1258,1.5756 -1.2829,-0.423 -1.9897,-1.7963 -1.5884,-3.0861 z m 0.7985,-1.8239 c 0.6631,-1.1048 1.854,-1.7005 3.1068,-1.8307 v 0 c 1.3652,-0.1419 2.5868,0.8498 2.7287,2.2149 0.133,1.28 -0.7331,2.4497 -1.9962,2.696 l 0.001,-0.002 c -0.9941,0.9449 -2.5661,0.9051 -3.511,-0.089 -0.7691,-0.8091 -0.9038,-2.032 -0.3293,-2.9891 z m 3.1068,-1.8307 c 0.7207,-0.0749 1.4547,0.0357 2.1172,0.3309 0.6275,0.2796 1.1741,0.7152 1.6154,1.239 v 0 c 0.8765,1.0405 0.7437,2.5946 -0.2968,3.4711 -0.9538,0.8036 -2.3577,0.7675 -3.269,-0.0841 l 0.003,-10e-4 c -1.3717,-0.0481 -2.4447,-1.199 -2.3966,-2.5706 0.0434,-1.2391 0.9935,-2.2567 2.2267,-2.3848 z m 3.7326,1.5699 c 0.3937,0.4674 0.7308,0.9824 1.0561,1.4986 0.4528,0.7187 0.8782,1.4546 1.2952,2.1945 v 0 c 0.658,1.1676 0.2449,2.6475 -0.9227,3.3055 -1.1591,0.6532 -2.6281,0.2513 -3.2932,-0.9011 -0.3812,-0.6605 -0.7702,-1.3176 -1.1889,-1.9552 -0.1993,-0.3036 -0.3998,-0.6217 -0.6462,-0.8904 v 0 c -0.9194,-1.0029 -0.8517,-2.5611 0.1511,-3.4805 1.0028,-0.9194 2.561,-0.8517 3.4804,0.1511 0.0233,0.0254 0.046,0.0512 0.0682,0.0775 z m 2.3513,3.6931 c 0.858,1.5225 1.6998,3.0545 2.5061,4.6051 v 0 c 0.6068,1.1672 0.1526,2.6053 -1.0146,3.2121 -1.1454,0.5956 -2.5567,0.1702 -3.1823,-0.9591 -0.827,-1.4928 -1.672,-2.9756 -2.5251,-4.4537 v 0 c -0.6699,-1.1607 -0.272,-2.6448 0.8887,-3.3148 1.1608,-0.6699 2.6449,-0.2721 3.3148,0.8887 0.004,0.007 0.008,0.0144 0.0124,0.0217 z m 2.506,4.6051 c 0.4483,0.8622 0.8875,1.7485 1.4295,2.5573 v 0 c 0.7029,1.0489 0.4224,2.4689 -0.6264,3.1717 -0.9454,0.6335 -2.2128,0.4752 -2.9733,-0.3714 -0.363,-0.4041 -0.6734,-0.8546 -0.9669,-1.3107 -0.3759,-0.584 -0.7232,-1.1864 -1.0597,-1.7939 v 0 c -0.6375,-1.1507 -0.2214,-2.6003 0.9293,-3.2378 1.1507,-0.6374 2.6003,-0.2213 3.2378,0.9294 0.0102,0.0183 0.0201,0.0368 0.0297,0.0554 z m 1.2163,2.2879 v 0 c 1.1506,0.3312 1.8147,1.5325 1.4834,2.6831 -0.1687,0.586 -0.5765,1.0739 -1.1233,1.3439 -0.7114,0.3514 -1.5421,0.378 -2.2813,0.0958 -0.5706,-0.218 -1.0598,-0.6017 -1.4653,-1.0531 v 0 c -0.8437,-0.9393 -0.7663,-2.3846 0.173,-3.2283 0.9335,-0.8386 2.3685,-0.7679 3.2151,0.1584 l -0.002,2e-4 z m -1.5446,0.1367 c 0.1707,-0.1939 0.3142,-0.4117 0.4508,-0.6305 v 0 c 0.6186,-0.9909 1.9235,-1.2927 2.9144,-0.674 0.9905,0.6184 1.2925,1.9224 0.6748,2.9133 -0.5448,0.8738 -1.1854,1.8125 -2.1354,2.2816 v 0 c -1.0736,0.5301 -2.3736,0.0895 -2.9037,-0.984 -0.5301,-1.0736 -0.0896,-2.3736 0.984,-2.9037 0.004,-0.002 0.009,-0.004 0.0132,-0.007 l 0.002,0.004 z m 0.4508,-0.6305 c 0.6428,-1.0296 1.3783,-1.9997 2.1561,-2.9305 v 0 c 0.7535,-0.9019 2.0955,-1.0221 2.9974,-0.2685 0.9019,0.7536 1.0221,2.0956 0.2685,2.9975 -0.007,0.008 -0.013,0.0154 -0.0196,0.023 -0.6568,0.7637 -1.2798,1.5622 -1.8132,2.4178 v 0 c -0.618,0.9913 -1.9227,1.2939 -2.914,0.6759 -0.9914,-0.618 -1.294,-1.9226 -0.676,-2.914 3e-4,-4e-4 5e-4,-8e-4 8e-4,-10e-4 z m 2.1561,-2.9305 c 0.6792,-0.813 1.3873,-1.6437 2.231,-2.2926 h -1e-4 c 0.9374,-0.721 2.2818,-0.5456 3.0028,0.3917 0.721,0.9374 0.5456,2.2818 -0.3918,3.0028 -0.2165,0.1666 -0.412,0.3626 -0.6029,0.5573 -0.3446,0.3514 -0.6718,0.7198 -0.9927,1.0928 v 0 c -0.7663,0.8911 -2.1099,0.9922 -3.0009,0.2259 -0.8822,-0.7586 -0.9915,-2.0851 -0.2454,-2.9779 z m 2.2309,-2.2926 c 0.5995,-0.4611 1.2514,-0.8518 1.9349,-1.1747 v 0 c 1.0632,-0.5022 2.3321,-0.0474 2.8343,1.0157 0.4929,1.0435 0.0647,2.2897 -0.9655,2.8098 -0.4188,0.2114 -0.8206,0.4575 -1.1927,0.7437 v 0 c -0.9373,0.721 -2.2817,0.5456 -3.0027,-0.3918 -0.721,-0.9373 -0.5456,-2.2817 0.3917,-3.0027 z m 1.9349,-1.1747 c 0.7481,-0.3533 1.5524,-0.5941 2.3789,-0.6608 v 0 c 1.1636,-0.0939 2.183,0.7733 2.2768,1.9369 0.0934,1.1575 -0.7645,2.1735 -1.9213,2.2755 -0.3034,0.0267 -0.5957,0.1376 -0.8656,0.2739 v 0 c -1.0496,0.5299 -2.3301,0.1086 -2.86,-0.941 -0.5299,-1.0496 -0.1086,-2.3301 0.941,-2.86 0.0166,-0.008 0.0334,-0.0166 0.0502,-0.0245 z m 2.379,-0.6608 c 0.7179,-0.0579 1.442,-0.0202 2.1514,0.1026 v 0 c 1.1416,0.1977 1.9068,1.2833 1.7091,2.4249 -0.1933,1.1168 -1.2387,1.878 -2.3608,1.7193 -0.3787,-0.0536 -0.7632,-0.068 -1.1443,-0.0344 v 0 c -1.1629,0.1024 -2.1886,-0.7572 -2.291,-1.9201 -0.1025,-1.1628 0.7571,-2.1886 1.92,-2.291 0.005,-5e-4 0.0104,-9e-4 0.0156,-10e-4 z m 2.1514,0.1026 c 0.9696,0.1679 1.857,0.6373 2.6214,1.2457 v 0 c 0.8995,0.716 1.0483,2.0257 0.3323,2.9252 -0.7132,0.8959 -2.016,1.0477 -2.9159,0.3397 -0.1953,-0.1537 -0.4351,-0.3304 -0.6896,-0.3664 v 0 c -1.1471,-0.1623 -1.9455,-1.2239 -1.7832,-2.371 0.1623,-1.1472 1.2238,-1.9456 2.371,-1.7833 0.0214,0.003 0.0427,0.006 0.064,0.0101 z m 2.6214,1.2457 c 0.74,0.5891 1.3873,1.2891 1.9364,2.0583 v 0 c 0.6635,0.9296 0.4478,2.221 -0.4818,2.8844 -0.9176,0.655 -2.1907,0.4543 -2.8623,-0.4513 -0.3383,-0.4561 -0.729,-0.875 -1.1759,-1.2265 v 0 c -0.9036,-0.7109 -1.0598,-2.0197 -0.349,-2.9233 0.7109,-0.9036 2.0197,-1.0598 2.9233,-0.349 0.003,0.002 0.006,0.005 0.009,0.007 z m 1.9364,2.0583 c 0.5378,0.7535 1.0056,1.5558 1.4075,2.3895 v 0 c 0.4878,1.0119 0.063,2.2276 -0.9489,2.7154 -0.9855,0.4752 -2.1704,0.0856 -2.6816,-0.8817 -0.3292,-0.623 -0.7012,-1.2239 -1.1211,-1.79 v 0 c -0.6803,-0.9174 -0.4881,-2.2125 0.4292,-2.8928 0.9173,-0.6803 2.2124,-0.4882 2.8927,0.4291 0.007,0.0101 0.0149,0.0203 0.0222,0.0305 z m 1.4075,2.3895 c 0.3916,0.8123 0.7535,1.6387 1.0891,2.4756 v 0 c 0.4112,1.0257 -0.0868,2.1905 -1.1125,2.6017 -1.0146,0.4069 -2.168,-0.076 -2.5902,-1.0843 -0.3073,-0.7341 -0.645,-1.4557 -1.0169,-2.1593 v 0 c -0.5248,-0.9932 -0.1452,-2.2238 0.8479,-2.7487 0.9932,-0.5249 2.2238,-0.1453 2.7487,0.8479 0.0117,0.0222 0.023,0.0445 0.0339,0.0671 z m 1.0891,2.4756 c 0.3465,0.8642 0.6342,1.7538 0.8321,2.6642 v 0 c 0.2307,1.0617 -0.4429,2.1095 -1.5046,2.3403 -1.0311,0.2241 -2.0555,-0.4052 -2.3216,-1.4263 -0.1834,-0.7036 -0.4279,-1.3905 -0.7086,-2.0608 v 0 c -0.4267,-1.0193 0.0536,-2.1916 1.0729,-2.6183 1.0193,-0.4268 2.1915,0.0535 2.6183,1.0728 0.004,0.009 0.008,0.0187 0.0115,0.0281 z m 0.832,2.6642 c 0.2179,1.0022 0.3371,2.0254 0.4238,3.0464 v 0 c 0.0904,1.0648 -0.6995,2.0013 -1.7643,2.0917 -1.0568,0.0897 -1.9889,-0.6881 -2.0898,-1.744 -0.0795,-0.8318 -0.1847,-1.6701 -0.3958,-2.4801 v 0 c -0.274,-1.0514 0.3562,-2.1259 1.4076,-2.3999 1.0514,-0.274 2.1258,0.3562 2.3999,1.4076 0.007,0.026 0.0129,0.0521 0.0186,0.0783 z m -3.3857,4.1627 c -10e-4,-0.2568 -0.0202,-0.513 -0.0446,-0.7686 v 0 c -0.1017,-1.0637 0.6783,-2.0085 1.7421,-2.1102 1.0638,-0.1016 2.0085,0.6783 2.1102,1.7421 6e-4,0.007 10e-4,0.0136 0.002,0.0204 0.0406,0.4777 0.0776,0.957 0.0839,1.4366 0.007,0.5569 -0.0454,1.1153 -0.3361,1.6058 v 0 c -0.5705,0.9627 -1.8134,1.2805 -2.7761,0.71 -0.9102,-0.5395 -1.2521,-1.6886 -0.7848,-2.6379 l 0.004,0.002 z m 3.1293,-0.8115 c 0.0376,0.0926 0.0763,0.1847 0.1164,0.2762 l 0.003,-0.003 c 0.6533,0.6547 0.7804,1.6686 0.3088,2.4642 -0.4804,0.8107 -1.4592,1.2106 -2.3718,0.9841 -0.4599,-0.1141 -0.8685,-0.3753 -1.1897,-0.7202 -0.3553,-0.3814 -0.6044,-0.8495 -0.8149,-1.3225 v 0 c -0.4818,-1.0827 0.005,-2.3509 1.0879,-2.8326 1.0826,-0.4818 2.3508,0.005 2.8326,1.0879 0.01,0.0217 0.019,0.0436 0.0279,0.0657 z m -0.7956,-2.4922 c 0.2238,0.8417 0.4679,1.6842 0.7957,2.4922 v 0 c 0.4454,1.0981 -0.0836,2.3494 -1.1817,2.7949 -1.0723,0.435 -2.2964,-0.0587 -2.7669,-1.116 -0.4305,-0.9675 -0.7613,-1.9788 -1.0589,-2.9939 v 0 c -0.3398,-1.159 0.3243,-2.3739 1.4833,-2.7137 1.1589,-0.3397 2.3739,0.3244 2.7136,1.4833 0.005,0.0177 0.0102,0.0354 0.0149,0.0532 z m -0.5668,-2.9389 c 0.114,0.9922 0.3102,1.9741 0.5668,2.9389 v 0 c 0.3104,1.1672 -0.3842,2.365 -1.5514,2.6754 -1.1464,0.3048 -2.3268,-0.3599 -2.6604,-1.4982 -0.335,-1.1426 -0.6122,-2.3026 -0.8144,-3.4761 v 0 c -0.2113,-1.2265 0.6116,-2.392 1.838,-2.6033 1.2265,-0.2114 2.3921,0.6115 2.6034,1.838 0.007,0.0416 0.0132,0.0834 0.018,0.1253 z m -0.1656,-2.3915 c -8e-4,0.799 0.0745,1.5985 0.1656,2.3916 v 0 c 0.1421,1.2364 -0.745,2.3538 -1.9814,2.4959 -1.1876,0.1365 -2.275,-0.678 -2.478,-1.856 -0.1698,-0.9856 -0.3048,-1.9833 -0.3263,-2.9844 v 0 c -0.0274,-1.2757 0.9845,-2.332 2.2602,-2.3594 1.2757,-0.0274 2.332,0.9845 2.3594,2.2602 4e-4,0.0173 6e-4,0.0347 5e-4,0.0521 z m -4.2049,-2.5009 v 0 c 0.5764,-1.1458 1.9726,-1.6074 3.1184,-1.031 1.0453,0.5258 1.5362,1.7472 1.1455,2.8501 -0.0747,0.211 -0.0587,0.4598 -0.059,0.6818 v 0 c -10e-4,1.276 -1.0369,2.3092 -2.3128,2.3078 -1.2557,-10e-4 -2.2803,-1.0054 -2.3073,-2.2607 -0.0184,-0.8578 0.0224,-1.7671 0.4152,-2.548 z m 0,10e-5 c 0.3144,-0.6251 0.8565,-1.0992 1.4878,-1.388 0.4374,-0.2002 0.9089,-0.3154 1.3834,-0.3856 v 0 c 1.2716,-0.1883 2.4551,0.6899 2.6434,1.9615 0.1883,1.2716 -0.6898,2.455 -1.9613,2.6434 l 0.002,10e-4 c -0.9881,0.8178 -2.4521,0.6797 -3.2699,-0.3084 -0.5878,-0.7102 -0.6999,-1.7009 -0.2856,-2.5244 z m 2.8712,-1.7736 c 0.8704,-0.1289 1.7667,-0.118 2.6215,0.1036 v 0 c 1.2471,0.3235 1.9959,1.5966 1.6725,2.8437 -0.3234,1.2471 -1.5966,1.9959 -2.8437,1.6725 -0.256,-0.0664 -0.5344,-0.0468 -0.7933,-0.0113 v 0 c -1.2736,0.1746 -2.4476,-0.7163 -2.6221,-1.9899 -0.1733,-1.2639 0.7031,-2.4318 1.9651,-2.6186 z m 2.6215,0.1036 c 0.8777,0.2277 1.6828,0.6765 2.4032,1.2196 v 0 c 1.026,0.7735 1.2307,2.2324 0.4572,3.2584 -0.7671,1.0176 -2.21,1.2287 -3.2365,0.4736 -0.2375,-0.1748 -0.505,-0.3602 -0.7951,-0.4354 v 0 c -1.2471,-0.3234 -1.9959,-1.5966 -1.6725,-2.8437 0.3235,-1.2471 1.5966,-1.9959 2.8437,-1.6725 0,0 0,10e-5 0,10e-5 z m 2.4031,1.2196 c 0.6766,0.51 1.3162,1.0679 1.9278,1.6539 v 0 c 0.9204,0.8819 0.9517,2.343 0.0698,3.2635 -0.8694,0.9074 -2.305,0.9526 -3.2297,0.1016 -0.4937,-0.4544 -1.0064,-0.8893 -1.547,-1.287 v 0 c -1.0351,-0.7614 -1.257,-2.2177 -0.4956,-3.2528 0.7614,-1.0351 2.2177,-1.2569 3.2528,-0.4956 0.007,0.005 0.0147,0.0109 0.0219,0.0164 z m 1.9278,1.6539 c 0.6536,0.6263 1.2759,1.2851 1.8677,1.9701 v 0 c 0.8161,0.9445 0.712,2.3717 -0.2325,3.1878 -0.9073,0.784 -2.269,0.7229 -3.1025,-0.1392 -0.5483,-0.5671 -1.1121,-1.1194 -1.6926,-1.6536 v 0 c -0.938,-0.8633 -0.9986,-2.3235 -0.1354,-3.2615 0.8632,-0.938 2.3234,-0.9986 3.2615,-0.1354 0.0113,0.0105 0.0226,0.0211 0.0338,0.0318 z m 1.8677,1.9701 c 0.7535,0.8719 1.4546,1.7891 2.1422,2.7134 v 0 c 0.7236,0.9727 0.5217,2.3479 -0.4511,3.0716 -0.953,0.7089 -2.297,0.5313 -3.0331,-0.4008 -0.6336,-0.8024 -1.2817,-1.6 -1.993,-2.3356 v 0 c -0.8676,-0.8973 -0.8435,-2.3282 0.0539,-3.1958 0.8973,-0.8677 2.3282,-0.8436 3.1958,0.0538 0.0293,0.0303 0.0578,0.0614 0.0853,0.0934 z m 2.1422,2.7134 c 0.1631,0.2193 0.3302,0.4362 0.5091,0.6429 l 9e-4,-0.002 c 1.1292,0.4145 1.7087,1.6659 1.2942,2.7951 -0.1485,0.4046 -0.4137,0.7561 -0.7621,1.0099 -0.7037,0.5127 -1.6355,0.5689 -2.4155,0.2059 -0.3083,-0.1435 -0.5858,-0.344 -0.8392,-0.5692 -0.4733,-0.4206 -0.8802,-0.9157 -1.2716,-1.4113 v 0 c -0.7514,-0.9515 -0.5892,-2.332 0.3623,-3.0834 0.9515,-0.7514 2.332,-0.5891 3.0834,0.3624 0.013,0.0165 0.0259,0.0333 0.0385,0.0502 z m -1.9813,1.3798 c 0.2738,-0.6236 0.4653,-1.2881 0.6635,-1.9382 v 0 c 0.353,-1.1577 1.5776,-1.8101 2.7353,-1.4571 1.1577,0.3529 1.8101,1.5775 1.4571,2.7352 -3e-4,9e-4 -6e-4,0.002 -8e-4,0.003 -0.2065,0.6741 -0.42,1.3485 -0.6801,2.0042 -0.2569,0.6474 -0.5733,1.2973 -1.1516,1.7187 v 0 c -0.9721,0.7083 -2.3345,0.4944 -3.0428,-0.4778 -0.5634,-0.7732 -0.5562,-1.8236 0.0177,-2.5891 l 0.002,10e-4 z m 0.6635,-1.9382 c 0.3996,-1.3107 0.8148,-2.6226 1.329,-3.8937 v 0 c 0.4631,-1.1449 1.7667,-1.6976 2.9116,-1.2345 1.1449,0.4632 1.6975,1.7667 1.2344,2.9116 -0.0167,0.0414 -0.0347,0.0823 -0.0539,0.1227 -0.514,1.0796 -0.8801,2.2339 -1.2295,3.3748 v 0 c -0.3545,1.1572 -1.58,1.808 -2.7372,1.4535 -1.1562,-0.3541 -1.807,-1.5778 -1.4544,-2.7344 z m 1.3289,-3.8937 c 0.4379,-1.0824 1.043,-2.219 2.1284,-2.7684 v 0 c 1.1276,-0.5708 2.5045,-0.1194 3.0753,1.0082 0.5209,1.029 0.1947,2.2849 -0.7612,2.9302 -0.1382,0.1953 -0.2472,0.4131 -0.3503,0.6297 v 0 c -0.5309,1.1152 -1.8652,1.5888 -2.9803,1.058 -1.0682,-0.5085 -1.5555,-1.761 -1.1119,-2.8577 z m 2.1284,-2.7684 c 0.6267,-0.3172 1.3201,-0.5177 2.0276,-0.4818 v 0 c 1.2721,0.0645 2.2511,1.148 2.1866,2.4201 -0.0609,1.202 -1.0359,2.1551 -2.239,2.1887 -0.2553,0.007 -0.0678,-0.006 -0.007,-0.0148 0.0233,-0.003 0.0467,-0.008 0.0695,-0.0138 0.0353,-0.009 -0.0287,0.0137 -0.0369,0.0175 v 0 c -1.1455,0.5341 -2.5071,0.0384 -3.0411,-1.1071 -0.5219,-1.1194 -0.0614,-2.451 1.0406,-3.0088 z m 2.0276,-0.4818 c 1.179,0.0597 2.0935,0.9093 2.8621,1.7206 v 0 c 0.8793,0.9281 0.8396,2.3934 -0.0886,3.2727 -0.9282,0.8793 -2.3934,0.8397 -3.2727,-0.0885 0,0 0,0 0,0 -0.0918,-0.0969 -0.185,-0.1926 -0.2808,-0.2855 -0.0367,-0.0356 -0.0735,-0.0706 -0.1111,-0.1051 -0.0635,-0.0583 -0.0936,-0.0718 -0.1821,-0.1122 v 0 c -1.1591,-0.5282 -1.6705,-1.8961 -1.1422,-3.0551 0.3923,-0.8609 1.2706,-1.3948 2.2154,-1.3469 z m 2.8621,1.7206 c 0.7743,0.8174 1.4841,1.6949 2.1593,2.5952 v 0 c 0.7633,1.0176 0.5572,2.4613 -0.4604,3.2246 -1.0081,0.7562 -2.4366,0.5619 -3.2061,-0.436 -0.5855,-0.7593 -1.1945,-1.5033 -1.8542,-2.1997 v 0 c -0.8792,-0.9282 -0.8396,-2.3934 0.0887,-3.2727 0.9282,-0.8793 2.3934,-0.8396 3.2727,0.0886 z m 2.1593,2.5951 c 0.242,0.3227 0.487,0.6438 0.7465,0.9526 0.0677,0.0806 0.1364,0.1606 0.2085,0.2374 0.0505,0.0539 0.0504,0.0497 0.0406,0.0422 v 0 c 0.9684,0.7472 1.1476,2.138 0.4004,3.1064 -0.555,0.7193 -1.4929,1.0266 -2.366,0.7754 -0.6134,-0.1766 -1.127,-0.5729 -1.5729,-1.0169 -0.4076,-0.4058 -0.7728,-0.8534 -1.1236,-1.3084 v 0 c -0.7768,-1.0074 -0.5899,-2.4537 0.4175,-3.2305 1.0073,-0.7768 2.4536,-0.5899 3.2304,0.4175 0.006,0.008 0.0125,0.0162 0.0186,0.0243 z m -1.9073,1.4046 c 0.0138,-0.1013 0.0261,-0.2027 0.0367,-0.3045 v 0 c 0.1228,-1.1697 1.1706,-2.0184 2.3403,-1.8957 1.1624,0.122 2.0092,1.158 1.8976,2.3214 -0.0573,0.5979 -0.1277,1.2066 -0.3063,1.7823 -0.132,0.4258 -0.3381,0.8286 -0.6465,1.1545 -0.6068,0.6411 -1.5354,0.8957 -2.3844,0.6514 v 0 c -1.1755,-0.3383 -1.8542,-1.5654 -1.5159,-2.7409 0.1057,-0.3675 0.3048,-0.7014 0.5779,-0.9691 z m 0.0367,-0.3045 c 0.1063,-1.0129 0.2198,-2.0299 0.4156,-3.0301 v 0 c 0.2237,-1.1431 1.3317,-1.8884 2.4748,-1.6647 1.1234,0.2199 1.8663,1.2957 1.674,2.4241 -0.1521,0.8921 -0.2401,1.7961 -0.3265,2.6964 v 0 c -0.1123,1.1707 -1.1524,2.0288 -2.3232,1.9165 -1.1708,-0.1123 -2.0289,-1.1524 -1.9166,-2.3232 7e-4,-0.006 10e-4,-0.0126 0.002,-0.019 z m 0.4156,-3.0301 c 0.2013,-1.0287 0.6493,-2.0591 1.5793,-2.6258 v 0 c 0.9865,-0.6012 2.2735,-0.2889 2.8747,0.6976 0.493,0.8089 0.3809,1.8481 -0.2734,2.5332 -0.0127,0.0506 -0.023,0.1024 -0.0318,0.1544 v 0 c -0.1958,1.1483 -1.2852,1.9204 -2.4335,1.7247 -1.1482,-0.1957 -1.9203,-1.2852 -1.7246,-2.4334 0.003,-0.0169 0.006,-0.0338 0.009,-0.0507 z m 1.5793,-2.6258 c 0.8951,-0.5456 2.0084,-0.5846 2.9273,-0.0709 v 0 c 1.0027,0.5605 1.3611,1.8278 0.8006,2.8305 -0.4172,0.7461 -1.2484,1.1611 -2.0954,1.0461 h 10e-4 c -1.1153,0.3011 -2.2636,-0.359 -2.5647,-1.4744 -0.2423,-0.8976 0.137,-1.8475 0.931,-2.3313 z m 2.9272,-0.0709 c 0.5193,0.2903 0.9282,0.7588 1.317,1.1997 0.5471,0.6206 1.0664,1.266 1.5814,1.9132 v 0 c 0.7209,0.906 0.5708,2.225 -0.3352,2.9459 -0.906,0.7209 -2.2249,0.5709 -2.9459,-0.3352 -0.007,-0.008 -0.0133,-0.0169 -0.0199,-0.0254 -0.3915,-0.5078 -0.7866,-1.0132 -1.1977,-1.5054 -0.1985,-0.2377 -0.3979,-0.5181 -0.649,-0.7032 v 0 c -0.9245,-0.6818 -1.1214,-1.984 -0.4396,-2.9085 0.622,-0.8434 1.7742,-1.0924 2.689,-0.5811 z m 2.8984,3.1129 c 0.815,1.0243 1.6195,2.0651 2.4883,3.045 v 0 c 0.7873,0.888 0.7056,2.2461 -0.1823,3.0334 -0.888,0.7873 -2.2461,0.7056 -3.0334,-0.1824 -0.027,-0.0305 -0.0532,-0.0617 -0.0784,-0.0937 -0.8411,-1.0649 -1.6667,-2.1422 -2.4952,-3.217 v 0 c -0.7069,-0.917 -0.5365,-2.2335 0.3805,-2.9404 0.9071,-0.6992 2.2074,-0.5411 2.9205,0.3551 z m 2.4883,3.045 c 0.3631,0.4095 0.7433,0.8051 1.1496,1.1722 v 0 c 0.9061,0.8183 0.9772,2.2163 0.1588,3.1223 -0.8184,0.9061 -2.2163,0.9772 -3.1224,0.1588 -0.0415,-0.0375 -0.0816,-0.0766 -0.1201,-0.1171 -0.4789,-0.5036 -0.9294,-1.0336 -1.36,-1.5788 v 0 c -0.7356,-0.9313 -0.5769,-2.2825 0.3544,-3.0181 0.894,-0.7062 2.1838,-0.5918 2.9397,0.2607 z m 1.1496,1.1721 c 0.2853,0.2577 0.5847,0.5046 0.9106,0.7097 v 0 c 1.0656,0.6702 1.3861,2.0774 0.7159,3.1429 -0.6702,1.0656 -2.0774,1.3861 -3.143,0.7159 -0.0674,-0.0424 -0.1325,-0.0883 -0.1951,-0.1375 -0.4899,-0.3851 -0.943,-0.8157 -1.3721,-1.2669 v 0 c -0.8414,-0.8847 -0.8063,-2.284 0.0785,-3.1254 0.8376,-0.7966 2.1474,-0.8134 3.0052,-0.0387 z m 0.9106,0.7097 c 0.0512,0.0321 0.1036,0.0639 0.159,0.0882 0.0273,0.0119 -0.3163,-0.0738 0.0868,0.008 v 0 c 1.2656,0.2562 2.0838,1.4899 1.8275,2.7554 -0.2562,1.2655 -1.4898,2.0837 -2.7554,1.8275 0,0 0,0 0,0 -0.7177,-0.1453 -1.3689,-0.5085 -1.9401,-0.9576 v 0 c -0.9896,-0.778 -1.1612,-2.2109 -0.3832,-3.2006 0.7209,-0.9171 2.018,-1.1418 3.0054,-0.5207 z m -0.4845,0.0673 v 0 c 1.17,-0.5956 2.6013,-0.1299 3.1969,1.0401 0.5481,1.077 0.2011,2.3938 -0.8066,3.0607 -0.7605,0.5033 -1.693,0.692 -2.588,0.5108 v 0 c -1.2655,-0.2563 -2.0836,-1.49 -1.8273,-2.7555 0.201,-0.9929 1.0188,-1.7434 2.0253,-1.8587 l -3e-4,0.003 z m -0.6438,0.485 c 0.0576,-0.1291 0.1037,-0.2636 0.1465,-0.3981 v 0 c 0.4095,-1.2846 1.7827,-1.994 3.0673,-1.5846 1.2845,0.4095 1.9939,1.7827 1.5845,3.0673 -0.0217,0.068 -0.0463,0.1349 -0.0738,0.2007 -0.3719,0.8889 -0.8671,1.7856 -1.6904,2.3305 v 0 c -1.0948,0.7246 -2.5696,0.4244 -3.2942,-0.6704 -0.6108,-0.9228 -0.504,-2.1449 0.2576,-2.9478 l 0.002,0.002 z m 0.1465,-0.3981 c 0.2285,-0.717 0.3724,-1.4611 0.4931,-2.2028 v 0 c 0.2238,-1.3751 1.52,-2.3085 2.8952,-2.0847 1.3751,0.2238 2.3085,1.52 2.0847,2.8952 -0.006,0.0363 -0.0127,0.0726 -0.0202,0.1086 -0.21,1.0092 -0.4764,2.0145 -0.8748,2.9671 v 0 c -0.5203,1.2438 -1.9503,1.8303 -3.1941,1.31 -1.1674,-0.4883 -1.7682,-1.7877 -1.3839,-2.9934 z m 0.4931,-2.2028 c 0.173,-1.0628 0.2785,-2.1364 0.352,-3.2103 h -10e-5 c 0.0977,-1.4282 1.3346,-2.5069 2.7628,-2.4092 1.4281,0.0976 2.5068,1.3345 2.4092,2.7627 -0.002,0.0317 -0.005,0.0634 -0.008,0.0951 -0.1302,1.2341 -0.303,2.4655 -0.5559,3.6808 v 0 c -0.2838,1.3641 -1.6196,2.2398 -2.9837,1.9559 -1.3219,-0.275 -2.1929,-1.5422 -1.976,-2.875 z m 0.352,-3.2104 c 0.095,-1.3908 0.1378,-2.785 0.1547,-4.1788 h -10e-5 c 0.0178,-1.473 1.2264,-2.6528 2.6994,-2.635 1.4731,0.0177 2.6529,1.2263 2.6351,2.6994 -4e-4,0.0295 -0.001,0.059 -0.002,0.0885 -0.0677,1.494 -0.1661,2.9873 -0.323,4.4746 v 0 c -0.1502,1.4237 -1.426,2.456 -2.8496,2.3058 -1.3867,-0.1463 -2.4092,-1.3634 -2.3141,-2.7545 h 10e-5 z m 5.6175,-8.9203 c -0.0133,1.6321 -0.057,3.2639 -0.1309,4.8945 v 0 c -0.0667,1.4716 -1.3138,2.6106 -2.7855,2.5439 -1.4372,-0.0652 -2.5638,-1.2583 -2.5465,-2.6969 0.019,-1.5659 0.01,-3.132 -0.0283,-4.6975 v 0 c -0.0367,-1.5162 1.1626,-2.775 2.6788,-2.8117 1.5162,-0.0367 2.775,1.1626 2.8117,2.6788 7e-4,0.0296 10e-4,0.0592 7e-4,0.0889 z m -0.4508,-5.2839 c 0.3133,1.7425 0.4653,3.5135 0.4508,5.2839 v 0 c -0.0124,1.5166 -1.2518,2.7359 -2.7684,2.7235 -1.482,-0.0121 -2.687,-1.198 -2.7228,-2.6796 -0.0349,-1.4409 -0.1932,-2.8783 -0.4703,-4.2927 v 0 c -0.2976,-1.5195 0.6929,-2.9926 2.2124,-3.2902 1.5195,-0.2977 2.9926,0.6928 3.2902,2.2123 0.003,0.0143 0.006,0.0285 0.008,0.0428 z m -1.1203,-4.8573 c 0.4557,1.5987 0.8261,3.2213 1.1203,4.8574 h -10e-5 c 0.274,1.5239 -0.7392,2.9814 -2.2632,3.2554 -1.5072,0.271 -2.953,-0.7176 -3.2474,-2.2205 -0.2824,-1.4422 -0.6349,-2.8712 -1.0666,-4.2762 v 0 c -0.4617,-1.5023 0.3819,-3.0945 1.8843,-3.5562 1.5023,-0.4617 3.0945,0.3819 3.5562,1.8843 0.006,0.0185 0.0112,0.0372 0.0165,0.0558 z m -1.3894,-4.0987 c 0.5507,1.3341 0.994,2.7115 1.3894,4.0988 v 0 c 0.4308,1.5114 -0.4452,3.086 -1.9567,3.5168 -1.4896,0.4247 -3.0453,-0.4202 -3.5003,-1.9008 -0.3611,-1.175 -0.757,-2.3435 -1.2442,-3.4729 v 0 c -0.6308,-1.462 0.043,-3.1584 1.5049,-3.7891 1.462,-0.6308 3.1584,0.0431 3.7891,1.505 0.006,0.014 0.012,0.0281 0.0179,0.0422 z m -1.6937,-3.2127 c 0.6855,1.0009 1.2316,2.0929 1.6937,3.2127 v 0 c 0.6075,1.4717 -0.0932,3.1572 -1.5649,3.7647 -1.4553,0.6006 -3.1233,-0.0773 -3.7469,-1.5228 -0.3204,-0.7426 -0.6863,-1.475 -1.1536,-2.1373 v 0 c -0.9253,-1.3112 -0.6124,-3.1243 0.6989,-4.0495 1.3112,-0.9253 3.1243,-0.6124 4.0496,0.6988 0.008,0.0111 0.0155,0.0222 0.0232,0.0334 z m -2.0597,-2.3809 c 0.7847,0.7015 1.4656,1.5135 2.0597,2.3809 v 0 c 0.9068,1.324 0.5686,3.1326 -0.7555,4.0394 -1.311,0.8979 -3.1,0.5762 -4.0162,-0.7221 -0.3353,-0.4751 -0.7116,-0.9276 -1.1519,-1.3093 v 0 c -1.2202,-1.0578 -1.3518,-2.9043 -0.2941,-4.1244 1.0577,-1.2202 2.9043,-1.3518 4.1244,-0.2941 0.0113,0.01 0.0225,0.0196 0.0336,0.0296 z m -2.8839,-1.6049 c 1.0875,0.2616 2.0568,0.8654 2.8839,1.6049 v 0 c 1.2038,1.0762 1.3072,2.9246 0.2309,4.1284 -1.0646,1.1908 -2.8879,1.3068 -4.0948,0.2605 -0.1141,-0.0989 -0.2338,-0.1955 -0.3653,-0.2704 -0.0305,-0.0174 -0.0948,-0.0376 -0.026,-0.021 v 0 c -1.5747,-0.3787 -2.5442,-1.9622 -2.1655,-3.5369 0.3787,-1.5746 1.9622,-2.5441 3.5368,-2.1655 0,0 0,0 0,0 z m -2.2067,-0.2636 c 0.7429,-0.003 1.4848,0.09 2.2068,0.2636 v 10e-5 c 1.5746,0.3787 2.5441,1.9622 2.1654,3.5368 -0.3787,1.5747 -1.9622,2.5442 -3.5369,2.1654 -0.3221,-0.0774 -0.6506,-0.1306 -0.9816,-0.1487 v 0 c -1.6052,-0.0876 -2.8355,-1.4599 -2.7478,-3.0651 0.0839,-1.5389 1.3529,-2.7456 2.8941,-2.7521 z m -3.0883,1.0361 c 0.8986,-0.6503 1.9752,-1.0314 3.0883,-1.0361 v 0 c 1.6076,-0.007 2.9163,1.2909 2.9231,2.8985 0.006,1.532 -1.1758,2.8068 -2.704,2.9157 -0.6039,0.043 -0.1384,-0.002 -0.0675,-0.0478 v 0 c -1.3294,0.8608 -3.105,0.481 -3.9658,-0.8484 -0.8295,-1.281 -0.5104,-2.9872 0.7259,-3.8819 z m -2.0322,2.66 c 0.4371,-1.0433 1.1096,-1.9924 2.0321,-2.66 v 0 c 1.2831,-0.9285 3.0759,-0.6411 4.0044,0.6419 0.8805,1.2165 0.6733,2.9062 -0.475,3.874 -0.1503,0.1267 -0.2258,0.1339 -0.3107,0.2561 -0.0454,0.0653 -0.0833,0.1357 -0.118,0.2072 v 0 c -0.6795,1.3997 -2.365,1.9836 -3.7647,1.3041 -1.3455,-0.6532 -1.9461,-2.2438 -1.3681,-3.6233 z m -0.7176,3.4021 c 0.0758,-1.1576 0.267,-2.3269 0.7176,-3.4021 v 0 c 0.6014,-1.4351 2.2522,-2.1109 3.6872,-1.5096 1.4351,0.6014 2.1109,2.2522 1.5096,3.6873 -0.0201,0.0477 -0.0414,0.095 -0.064,0.1416 -0.2244,0.4621 -0.2869,1.0153 -0.3337,1.5195 v 0 c -0.1415,1.5217 -1.4897,2.6406 -3.0115,2.4992 -1.4923,-0.1387 -2.6029,-1.4403 -2.5051,-2.9359 z m 0,10e-5 h 1e-4 c 0.0996,-1.5251 1.4167,-2.6805 2.9417,-2.5808 1.5251,0.0996 2.6805,1.4167 2.5808,2.9417 -0.002,0.0253 -0.004,0.0505 -0.006,0.0757 -0.0774,0.8319 0.007,1.6735 0.1751,2.4895 v 0 c 0.3012,1.4668 -0.6437,2.8999 -2.1104,3.2011 -1.4266,0.293 -2.8298,-0.5935 -3.1779,-2.0077 -0.3309,-1.3442 -0.4939,-2.7355 -0.4035,-4.1195 z m 5.6918,2.9261 c 0.1626,0.7919 0.5215,1.5254 1.0138,2.1641 v 0 c 0.892,1.1574 0.677,2.8187 -0.4803,3.7108 -1.1311,0.8717 -2.7498,0.6887 -3.6576,-0.4137 -1.0249,-1.2446 -1.7784,-2.7003 -2.1642,-4.2678 v 0 c -0.3579,-1.4539 0.5306,-2.9227 1.9845,-3.2806 1.454,-0.3579 2.9227,0.5306 3.2806,1.9846 0.008,0.034 0.0161,0.0683 0.0232,0.1026 z m 1.0138,2.1641 c 0.6777,0.8793 1.5361,1.6089 2.4465,2.237 v 0 c 1.1662,0.8044 1.4594,2.402 0.6549,3.5681 -0.7796,1.1302 -2.3108,1.4461 -3.4741,0.7168 -1.4045,-0.8805 -2.7087,-1.9417 -3.7652,-3.2248 v 0 c -0.9289,-1.128 -0.7675,-2.7954 0.3605,-3.7243 1.128,-0.9288 2.7954,-0.7674 3.7243,0.3606 0.018,0.0219 0.0357,0.0441 0.0531,0.0666 z m 2.4465,2.237 c 1.3129,0.9056 2.7302,1.6566 4.1729,2.3321 v 0 c 1.2342,0.5778 1.7663,2.0467 1.1884,3.2809 -0.5646,1.2059 -1.9842,1.7464 -3.2078,1.2212 -1.7119,-0.7347 -3.3929,-1.5589 -4.9727,-2.5493 v 0 c -1.2003,-0.7525 -1.5634,-2.3356 -0.8108,-3.536 0.7525,-1.2003 2.3356,-1.5633 3.5359,-0.8108 0.0318,0.0199 0.0632,0.0406 0.0941,0.0619 z m 4.1729,2.3321 c 1.9293,0.9032 3.9843,1.531 6.0466,2.0487 v 0 c 1.2922,0.3244 2.0768,1.635 1.7524,2.9272 -0.3235,1.2888 -1.6283,2.0733 -2.9183,1.7546 -2.346,-0.5794 -4.6769,-1.2742 -6.9001,-2.2284 v 0 c -1.2523,-0.5374 -1.8318,-1.9883 -1.2943,-3.2406 0.5374,-1.2523 1.9883,-1.8318 3.2406,-1.2943 0.0245,0.0105 0.0489,0.0214 0.0731,0.0328 z m 6.0465,2.0487 c 3.0532,0.7664 6.1278,1.4474 9.2068,2.1011 v 0 c 1.2293,0.2609 2.0142,1.4689 1.7533,2.6982 -0.2525,1.1891 -1.395,1.9697 -2.5945,1.7727 -3.1955,-0.5247 -6.3865,-1.1133 -9.5314,-1.8902 v 0 c -1.2935,-0.3195 -2.083,-1.627 -1.7635,-2.9205 0.3195,-1.2934 1.6271,-2.083 2.9205,-1.7635 0.003,7e-4 0.006,0.002 0.009,0.002 z m 9.1907,2.0977 c 3.5792,0.7329 7.1027,1.745 10.5993,2.796 5.1631,1.5518 10.2808,3.2534 15.3794,5.004 v 0 c 0.6125,0.2103 0.9386,0.8773 0.7283,1.4898 -0.1951,0.5682 -0.788,0.897 -1.3732,0.7617 -5.2231,-1.2078 -10.4515,-2.3929 -15.6947,-3.5103 -3.4822,-0.7421 -6.9709,-1.4672 -10.4804,-2.0696 v 0 c -1.2385,-0.2126 -2.0702,-1.3889 -1.8576,-2.6274 0.2126,-1.2385 1.3889,-2.0702 2.6275,-1.8576 0.0239,0.004 0.0477,0.009 0.0714,0.0134 z" />
        <g
           transform="matrix(0.5914712,0,0,-0.5814717,67.27883,615.8119)"
           id="g3764"
           style="stroke-width:1.04574823" />
        <g
           transform="matrix(0.6286667,0,0,-0.5454546,191.5813,628.4838)"
           id="g3766"
           style="stroke-width:1.04574823" />
      </g>
    </g>
  </g>
</svg>
