<?xml version="1.0" encoding="UTF-8" standalone="no"?>
<!-- Created with Inkscape (http://www.inkscape.org/) -->

<svg
   xmlns:dc="http://purl.org/dc/elements/1.1/"
   xmlns:cc="http://creativecommons.org/ns#"
   xmlns:rdf="http://www.w3.org/1999/02/22-rdf-syntax-ns#"
   xmlns:svg="http://www.w3.org/2000/svg"
   xmlns="http://www.w3.org/2000/svg"
   xmlns:sodipodi="http://sodipodi.sourceforge.net/DTD/sodipodi-0.dtd"
   xmlns:inkscape="http://www.inkscape.org/namespaces/inkscape"
   width="85.599998mm"
   height="53.98mm"
   viewBox="0 0 85.599998 53.98"
   version="1.1"
   id="svg8"
   inkscape:version="0.92.5 (2060ec1f9f, 2020-04-08)"
   sodipodi:docname="xunzhou-signature.svg">
  <defs
     id="defs2">
    <clipPath
       id="clipPath32"
       clipPathUnits="userSpaceOnUse">
      <path
         inkscape:connector-curvature="0"
         id="path30"
         d="m 59.14286,72 h 493.7143 V 720 H 59.14286 Z" />
    </clipPath>
  </defs>
  <sodipodi:namedview
     id="base"
     pagecolor="#ffffff"
     bordercolor="#666666"
     borderopacity="1.0"
     inkscape:pageopacity="0.0"
     inkscape:pageshadow="2"
     inkscape:zoom="1.979899"
     inkscape:cx="192.48162"
     inkscape:cy="147.33826"
     inkscape:document-units="mm"
     inkscape:current-layer="g18"
     showgrid="false"
     inkscape:window-width="1383"
     inkscape:window-height="969"
     inkscape:window-x="373"
     inkscape:window-y="179"
     inkscape:window-maximized="0" />
  <metadata
     id="metadata5">
    <rdf:RDF>
      <cc:Work
         rdf:about="">
        <dc:format>image/svg+xml</dc:format>
        <dc:type
           rdf:resource="http://purl.org/dc/dcmitype/StillImage" />
        <dc:title />
      </cc:Work>
    </rdf:RDF>
  </metadata>
  <g
     inkscape:label="Layer 1"
     inkscape:groupmode="layer"
     id="layer1"
     transform="translate(0,-243.02)">
    <g
       transform="matrix(0.35277777,0,0,-0.35277777,-41.711454,497.04259)"
       inkscape:label="Xunzhou-signature"
       id="g18"
       style="display:inline">
      <g
         id="g26"
         transform="matrix(1.2070693,0,0,1.2070693,-60.114464,-136.62604)"
         style="fill:#000000">
        <g
           clip-path="url(#clipPath32)"
           id="g28"
           style="fill:#000000">
          <path
             inkscape:connector-curvature="0"
             id="path34"
             style="fill:#000000;fill-opacity:1;fill-rule:nonzero;stroke:none"
             d="m 202.7485,654.6455 c 0.046,0.3999 0.0465,0.9182 -0.0711,1.3286 v 0 c -0.1649,0.5044 -0.7075,0.7795 -1.2119,0.6146 v 0 c -0.5044,-0.165 -0.7795,-0.7076 -0.6146,-1.2119 v 0 c 0.165,-0.5044 0.7076,-0.7796 1.212,-0.6146 v 0 c 0.5043,0.1649 0.7795,0.7075 0.6145,1.2119 -0.0828,0.2241 -0.3432,0.5904 -0.606,0.7736 v 0 c -0.4554,0.2675 -1.0414,0.1151 -1.3089,-0.3403 v 0 c -0.2675,-0.4554 -0.1152,-1.0415 0.3402,-1.309 v 0 c 0.4555,-0.2675 1.0415,-0.1151 1.309,0.3403 v 0 c 0.2675,0.4554 0.1152,1.0415 -0.3403,1.309 -0.2815,0.1352 -0.772,0.1841 -1.0569,0.12 v 0 c -0.5087,-0.1326 -0.8136,-0.6525 -0.6809,-1.1612 v 0 c 0.1326,-0.5087 0.6525,-0.8135 1.1612,-0.6809 v 0 c 0.5087,0.1327 0.8135,0.6526 0.6809,1.1612 v 0 c -0.1326,0.5087 -0.6525,0.8136 -1.1612,0.6809 -1.2543,-0.2556 -2.9508,-1.8616 -5.0555,-4.0479 -0.9019,-1.0208 -1.8639,-2.1994 -2.8881,-3.4284 v 0 c -0.5258,-0.6452 -0.429,-1.5945 0.2162,-2.1204 v 0 c 0.6452,-0.5259 1.5946,-0.4291 2.1204,0.2161 v 0 c 0.5259,0.6453 0.4291,1.5946 -0.2161,2.1205 v 0 c -0.6452,0.5258 -1.5946,0.4291 -2.1205,-0.2162 -1.0081,-1.2856 -2.0182,-2.6539 -3.0704,-3.9605 v 0 c -0.5013,-0.5999 -0.4212,-1.4925 0.1787,-1.9937 v 0 c 0.5999,-0.5013 1.4925,-0.4213 1.9938,0.1787 v 0 c 0.5012,0.5999 0.4212,1.4925 -0.1787,1.9937 v 0 c -0.6,0.5013 -1.4926,0.4213 -1.9938,-0.1787 -1.3794,-1.7475 -2.9889,-3.3456 -4.366,-4.8566 v 0 c -0.4746,-0.4914 -0.461,-1.2745 0.0304,-1.7491 v 0 c 0.4915,-0.4746 1.2745,-0.461 1.7491,0.0304 v 0 c 0.4746,0.4914 0.461,1.2745 -0.0304,1.7491 v 0 c -0.4914,0.4746 -1.2745,0.461 -1.7491,-0.0304 -3.5005,-3.8954 -4.8894,-6.5207 -5.5848,-6.9828 v 0 c -0.3393,-0.1645 -0.481,-0.5729 -0.3165,-0.9122 v 0 c 0.1644,-0.3392 0.5728,-0.481 0.9121,-0.3165 1.4173,0.562 3.114,2.9793 6.7687,6.4928 1.4175,1.3827 3.1816,2.9688 4.759,4.7603 1.1375,1.3144 2.2074,2.6596 3.2345,3.8712 1.007,1.2634 1.9188,2.4359 2.7558,3.4339 1.8339,2.3858 3.0007,3.947 3.3315,4.1046 -0.004,0.009 -0.2767,0.0352 -0.3921,0.0728 -0.0966,0.0856 -0.2427,0.2796 -0.2518,0.2784 0.0299,-0.0405 0.0154,-0.1856 -0.027,-0.4898 v 0 c -0.0667,-0.5315 0.3101,-1.0164 0.8416,-1.0831 v 0 c 0.5315,-0.0666 1.0163,0.3102 1.083,0.8416" />
          <path
             inkscape:connector-curvature="0"
             id="path36"
             style="fill:#000000;fill-opacity:1;fill-rule:nonzero;stroke:none"
             d="m 183.4466,652.2581 c 0.2661,0.9945 0.4724,1.7753 0.6813,2.3232 v 0 c 0.182,0.5435 -0.111,1.1316 -0.6544,1.3137 v 0 c -0.5435,0.182 -1.1316,-0.111 -1.3137,-0.6544 v 0 c -0.182,-0.5435 0.111,-1.1316 0.6544,-1.3137 v 0 c 0.5435,-0.182 1.1316,0.1109 1.3137,0.6544 0.1976,0.5274 0.2219,0.586 0.1967,0.469 v 0 c 0.5493,0.2668 0.7783,0.9284 0.5114,1.4776 v 0 c -0.2668,0.5493 -0.9284,0.7782 -1.4776,0.5114 v 0 c -0.5493,-0.2668 -0.7782,-0.9284 -0.5114,-1.4776 v 0 c 0.2668,-0.5493 0.9284,-0.7782 1.4776,-0.5114 -0.0724,-0.0382 -0.3405,-0.0867 -0.3825,-0.1111 v 0 c 0.6294,-0.1388 1.2522,0.2589 1.3911,0.8883 v 0 c 0.1388,0.6294 -0.2589,1.2522 -0.8883,1.391 v 0 c -0.6294,0.1389 -1.2522,-0.2588 -1.391,-0.8882 v 0 c -0.1389,-0.6294 0.2588,-1.2522 0.8882,-1.3911 -0.0186,-0.007 -0.0933,0.004 -0.022,-0.0745 0.1778,-0.1639 0.3947,-0.4476 0.7607,-0.9664 0.5624,-0.7754 1.2425,-1.7638 1.947,-3.0124 1.1487,-1.9043 2.2652,-4.4645 3.3319,-7.0557 0.5666,-1.2334 1.0484,-2.4938 1.5578,-3.704 v 0 c 0.2835,-0.7407 1.1136,-1.1114 1.8543,-0.828 v 0 c 0.7407,0.2834 1.1114,1.1136 0.828,1.8543 v 0 c -0.2834,0.7407 -1.1136,1.1114 -1.8543,0.828 v 0 c -0.7407,-0.2834 -1.1114,-1.1136 -0.828,-1.8543 1.1892,-2.7553 2.3443,-4.982 3.4628,-6.3534 v 0 c 0.3387,-0.477 1,-0.5891 1.4771,-0.2504 v 0 c 0.477,0.3387 0.5891,1 0.2504,1.477 v 0 c -0.3387,0.477 -1,0.5891 -1.477,0.2504 v 0 c -0.477,-0.3387 -0.5892,-1 -0.2505,-1.477 0.5703,-0.6897 1.2426,-1.2612 1.8737,-1.5198 v 0 c 0.4313,-0.213 0.9536,-0.036 1.1667,0.3953 v 0 c 0.213,0.4313 0.036,0.9536 -0.3953,1.1666 v 0 c -0.4313,0.2131 -0.9537,0.0361 -1.1667,-0.3952 v 0 c -0.213,-0.4313 -0.036,-0.9537 0.3953,-1.1667 0.6553,-0.2316 1.5128,-0.1549 2.0999,0.2343 v 0 c 0.3261,0.1893 0.4371,0.6071 0.2478,0.9332 v 0 c -0.1893,0.3261 -0.6071,0.437 -0.9332,0.2477 -0.3259,-0.1408 -0.3794,-0.0755 -0.6431,0.1468 -0.2879,0.1952 -0.5426,0.5428 -0.9176,1.1844 -0.7719,1.291 -1.58,3.3751 -2.508,6.1531 -0.4109,1.1953 -0.8291,2.5344 -1.3517,3.892 -1.1182,2.6063 -2.3631,5.3399 -3.6557,7.4148 -0.8599,1.3012 -1.7332,2.3825 -2.4113,3.1394 -0.4978,0.5481 -1.0143,1.0151 -1.4596,1.284 -0.2403,0.1382 -0.599,0.2859 -0.8766,0.3358 -0.3008,0.0327 -0.8028,-0.0384 -1.0865,-0.1792 -0.5893,-0.3911 -0.9903,-1.1145 -1.1986,-1.7987 -0.197,-0.6638 -0.3772,-1.5243 -0.5976,-2.5224 v 0 c -0.127,-0.5204 0.1918,-1.0452 0.7121,-1.1722 v 0 c 0.5204,-0.1271 1.0452,0.1918 1.1723,0.7121" />
          <path
             inkscape:connector-curvature="0"
             id="path38"
             style="fill:#000000;fill-opacity:1;fill-rule:nonzero;stroke:none"
             d="m 204.2976,642.3018 c 0.0925,0.5521 -0.006,1.2166 -0.2038,1.6479 v 0 c -0.2381,0.4827 -0.8223,0.6811 -1.3051,0.443 v 0 c -0.4827,-0.238 -0.681,-0.8223 -0.443,-1.305 v 0 c 0.238,-0.4828 0.8223,-0.6811 1.3051,-0.4431 v 0 c 0.4827,0.2381 0.681,0.8224 0.443,1.3051 -0.225,0.429 -0.6683,0.8717 -1.0653,1.0903 v 0 c -0.4812,0.2467 -1.0714,0.0565 -1.318,-0.4248 v 0 c -0.2467,-0.4813 -0.0565,-1.0714 0.4248,-1.318 v 0 c 0.4813,-0.2467 1.0714,-0.0565 1.3181,0.4248 v 0 c 0.2466,0.4813 0.0564,1.0714 -0.4249,1.318 -0.6641,0.4196 -1.861,0.4649 -2.7095,0.007 v 0 c -0.5644,-0.4453 -0.6608,-1.2638 -0.2155,-1.8282 v 0 c 0.4454,-0.5643 1.2639,-0.6608 1.8282,-0.2154 v 0 c 0.5644,0.4453 0.6608,1.2638 0.2155,1.8282 v 0 c -0.4454,0.5643 -1.2639,0.6608 -1.8282,0.2154 -1.0258,-0.918 -1.4782,-2.6578 -1.6846,-4.3598 -0.1006,-1.4276 -0.1998,-3.221 0.0162,-4.9338 0.2833,-1.7489 1.012,-3.4813 1.7953,-4.4842 0.5548,-0.7066 1.5181,-1.186 2.2795,-1.1702 0.4792,0.013 1.2056,0.2326 1.7543,0.6631 1.9209,1.7104 3.6695,6.279 4.8926,9.363 0.4006,1.0523 0.7469,2.0211 0.9777,2.7097 0.1422,0.3859 0.239,0.656 0.2925,0.7829 0.0245,0.0572 0.002,-0.006 -0.163,-0.2679 v 0 c 0.428,0.4908 0.3771,1.2356 -0.1137,1.6635 v 0 c -0.4907,0.428 -1.2355,0.3771 -1.6635,-0.1137 v 0 c -0.4279,-0.4908 -0.377,-1.2355 0.1137,-1.6635 v 0 c 0.4908,-0.428 1.2356,-0.377 1.6635,0.1137 -0.6993,-0.3871 -2.0578,0.6362 -2.0683,0.7681 1e-4,0.0591 0.002,0.1037 -0.002,0.0917 -0.056,-0.3131 -0.2319,-1.1799 -0.4421,-2.1856 -0.2841,-1.5062 -0.6672,-3.3674 -0.8471,-4.8495 -0.0853,-0.7416 -0.095,-1.4325 -0.0674,-1.935 0.0122,-0.1716 -0.005,-0.3235 -0.0148,-0.5233 -0.005,-0.1038 -0.005,-0.2814 0.0138,-0.4421 0.0351,-0.1884 0.2729,-0.6692 0.5687,-0.9339 0.2754,-0.145 0.7644,-0.2217 0.969,-0.1957 0.1702,0.0402 0.3939,0.1315 0.5024,0.1927 0.1857,0.1152 0.4066,0.2979 0.5623,0.4537 0.2928,0.3 0.6452,0.7531 0.9243,1.1999 0.6852,1.1271 1.1408,2.6773 1.551,3.7511 0.2287,0.5713 0.4191,1.0414 0.563,1.3162 0.1014,0.1973 0.1711,0.3396 0.2096,0.3987 0.0145,0.0219 -0.0272,-0.0507 -0.0874,-0.137 -0.0549,-0.0608 -0.2941,-0.247 -0.5183,-0.3516 -0.3144,-0.0613 -1.0318,0.1181 -1.2634,0.2998 -0.2285,0.3729 -0.3019,0.6688 -0.3185,0.5844 -0.0126,-0.108 -0.046,-0.2607 -0.1007,-0.5001 -0.1098,-0.4848 -0.2822,-1.1267 -0.4181,-1.7494 -0.1846,-0.9824 -0.4427,-2.0173 -0.5974,-2.9277 -0.0709,-0.4558 -0.1458,-0.9127 -0.1802,-1.2964 -0.0169,-0.1982 -0.0242,-0.4505 -0.008,-0.6521 0.0259,-0.226 0.185,-0.6988 0.4379,-1.0303 0.5509,-0.3467 1.3362,-0.3469 1.5216,-0.2726 0.121,0.0649 0.261,0.1615 0.3185,0.2087 0.0913,0.0796 0.2058,0.196 0.287,0.2886 0.1493,0.173 0.3541,0.4434 0.5412,0.7292 0.5411,0.844 1.0702,2.2318 1.6215,3.4953 0.5217,1.1787 1.1108,2.3299 1.6365,3.2678 0.2991,0.5502 0.5197,0.9321 0.714,1.1637 0.0384,0.0818 -0.0971,-0.007 -0.1092,-0.0198 -0.0591,0.0147 -0.432,0.0638 -0.6072,0.1366 -0.2263,0.2103 -0.4346,0.5655 -0.4531,0.6137 2e-4,0.0246 -0.004,0.0516 -0.004,-0.0339 0.002,-0.1831 -0.0253,-0.4644 -0.0416,-0.7872 -0.0576,-0.9235 -0.064,-2.0343 0.024,-3.0934 0.0227,-0.6092 0.0852,-1.2662 0.1837,-1.8572 0.0833,-0.4445 0.209,-0.9312 0.351,-1.345 0.1501,-0.4164 0.3786,-0.8915 0.6131,-1.2591 v 0 c 0.4832,-0.6909 1.4349,-0.8592 2.1258,-0.376 v 0 c 0.6908,0.4832 0.8591,1.435 0.3759,2.1258 v 0 c -0.4832,0.6908 -1.435,0.8592 -2.1258,0.3759 v 0 c -0.6908,-0.4832 -0.8591,-1.4349 -0.3759,-2.1257 0.2673,-0.353 0.6814,-0.7629 1.0607,-1.0182 v 0 c 0.6779,-0.4656 1.6048,-0.2935 2.0704,0.3844 v 0 c 0.4656,0.6779 0.2935,1.6048 -0.3844,2.0704 v 0 c -0.6779,0.4656 -1.6048,0.2935 -2.0704,-0.3844 v 0 c -0.4656,-0.6779 -0.2935,-1.6048 0.3844,-2.0704 0.6743,-0.3432 1.6984,-0.5194 2.5268,-0.351 v 0 c 0.6889,0.0933 1.1718,0.7275 1.0785,1.4165 v 0 c -0.0933,0.6889 -0.7275,1.1718 -1.4165,1.0785 v 0 c -0.6889,-0.0933 -1.1718,-0.7275 -1.0785,-1.4165 v 0 c 0.0933,-0.6889 0.7275,-1.1718 1.4165,-1.0785 0.7263,0.3033 1.563,0.8566 2.3431,1.6139 v 0 c 0.3121,0.2117 0.3934,0.6362 0.1817,0.9483 v 0 c -0.2117,0.312 -0.6362,0.3933 -0.9482,0.1816 -0.8645,-0.3585 -1.4367,-0.389 -1.9146,-0.2488 -0.3759,0.005 -0.3513,0.0868 -0.5028,0.3108 -0.1163,0.0851 -0.1351,0.1269 -0.245,0.3133 -0.1427,0.1715 -0.2356,0.3231 -0.3577,0.5968 -0.1302,0.2763 -0.2277,0.5433 -0.3251,0.8917 -0.1425,0.4664 -0.2456,0.9368 -0.3288,1.4681 -0.0977,0.937 -0.1073,1.8625 -0.0709,2.7108 0.0145,0.2606 0.0483,0.5961 0.0521,0.9181 4e-4,0.1671 -0.0178,0.4188 -0.0585,0.6219 -0.0593,0.2267 -0.335,0.7144 -0.6664,0.993 -0.4141,0.2277 -1.1297,0.3159 -1.5607,0.2213 -0.384,-0.1221 -0.9207,-0.4685 -1.2381,-0.825 -0.3334,-0.4183 -0.6716,-0.9895 -0.9902,-1.5743 -0.5273,-0.9971 -1.144,-2.2641 -1.6719,-3.5212 -0.5652,-1.3274 -1.0255,-2.5864 -1.3822,-3.1228 -0.1388,-0.2153 -0.2401,-0.3487 -0.3244,-0.4448 -0.0357,-0.042 -0.0199,-0.0264 -0.003,-0.009 0.0206,0.016 0.1297,0.091 0.2266,0.1442 0.1619,0.063 0.9304,0.0614 1.4727,-0.2761 0.1648,-0.2387 0.2765,-0.5475 0.2854,-0.5506 -0.001,0.0215 0.005,0.0509 0.0229,0.1806 0.0346,0.272 0.1121,0.655 0.1991,1.1208 0.138,0.7979 0.3975,1.8161 0.6029,2.8745 0.0905,0.5616 0.23,1.2037 0.3221,1.7616 0.0462,0.282 0.0861,0.5902 0.0949,0.8404 0.005,0.2737 -0.0993,0.8247 -0.4346,1.3069 -0.2441,0.1945 -0.975,0.3772 -1.3045,0.3109 -0.2392,-0.1097 -0.495,-0.3094 -0.5679,-0.3912 -0.097,-0.1291 -0.182,-0.2756 -0.2187,-0.3537 -0.0642,-0.1412 -0.1291,-0.3042 -0.2048,-0.4776 -0.1721,-0.3875 -0.3725,-0.9376 -0.5828,-1.5177 -0.4474,-1.1757 -0.8369,-2.5465 -1.3516,-3.3428 -0.2139,-0.3432 -0.4161,-0.5995 -0.6014,-0.7797 -0.0834,-0.0844 -0.0825,-0.0846 -0.0803,-0.0764 0.0167,0.008 0.1577,0.0645 0.2565,0.0914 0.1332,0.0127 0.562,-0.0559 0.7905,-0.1693 0.232,-0.2214 0.436,-0.6226 0.4557,-0.7003 0.003,-0.0495 0.006,-0.0849 0.0108,-0.0202 0.009,0.1372 0.0377,0.4273 0.0277,0.7622 -0.0125,0.4154 0.003,0.9028 0.0893,1.5279 0.1779,1.3677 0.5627,3.1573 0.8656,4.6817 0.1824,1.0207 0.3367,1.9382 0.3759,2.3423 0.004,0.0455 0.01,0.1307 0.01,0.2128 -0.0104,0.1568 -1.3728,1.1873 -2.0797,0.7914 -0.1808,-0.2807 -0.2359,-0.4269 -0.2621,-0.5151 -0.0476,-0.1637 -0.1254,-0.4322 -0.2455,-0.8072 -0.2349,-0.6624 -0.579,-1.5886 -0.9836,-2.6159 -1.1784,-3.1186 -2.7338,-7.4019 -4.1413,-8.5694 -0.2066,-0.2226 -0.2105,-0.2127 -0.4298,-0.2285 -0.1868,-0.0232 -0.1722,-0.0122 -0.3838,0.3745 -0.4714,0.7871 -0.8634,2.0514 -0.9361,3.5113 -0.1358,1.4585 0.018,2.9741 0.1802,4.3709 0.0979,1.5668 0.2098,2.5167 0.4311,2.5829 0.0602,0.2596 -0.0242,0.331 0.2036,0.2935 0.1382,-0.0557 0.1507,-0.0612 0.2104,-0.2096 0.0871,-0.146 0.1021,-0.188 0.0457,-0.4267 v 0 c -0.0992,-0.5263 0.2471,-1.0334 0.7735,-1.1326 v 0 c 0.5264,-0.0992 1.0335,0.2471 1.1327,0.7735" />
          <path
             inkscape:connector-curvature="0"
             id="path40"
             style="fill:#000000;fill-opacity:1;fill-rule:nonzero;stroke:none"
             d="m 221.6343,641.642 c -0.3242,0.2626 -0.3123,0.2961 -0.2483,0.2995 v 0 c -0.1648,0.5651 -0.7564,0.8896 -1.3215,0.7249 v 0 c -0.565,-0.1648 -0.8896,-0.7564 -0.7248,-1.3215 v 0 c 0.1647,-0.565 0.7563,-0.8896 1.3214,-0.7248 v 0 c 0.5651,0.1647 0.8896,0.7564 0.7249,1.3214 0.0173,-0.0508 0.0204,-0.3259 0.016,-0.4204 v 0 c 0.2364,0.5678 -0.0322,1.2198 -0.6,1.4563 v 0 c -0.5678,0.2364 -1.2198,-0.0322 -1.4563,-0.6 v 0 c -0.2364,-0.5678 0.0322,-1.2198 0.6,-1.4563 v 0 c 0.5678,-0.2364 1.2198,0.0322 1.4563,0.6 -0.0345,-0.083 -0.1549,-0.2529 -0.1474,-0.2757 v 0 c 0.5217,0.3735 0.6418,1.0991 0.2683,1.6208 v 0 c -0.3735,0.5216 -1.0991,0.6417 -1.6208,0.2682 v 0 c -0.5216,-0.3735 -0.6417,-1.0991 -0.2682,-1.6207 v 0 c 0.3734,-0.5217 1.0991,-0.6418 1.6207,-0.2683 0.0705,0.0491 0.4711,0.0217 1.0922,-0.1608 0.8196,-0.0587 1.5631,-0.2844 1.997,-0.655 0.2482,-0.1625 0.2935,-0.0642 0.2942,-0.1455 0.0834,-0.1268 -0.1509,-0.4302 -0.6986,-0.9846 -0.5551,-0.5665 -1.3043,-1.1756 -2.0553,-1.794 -0.897,-0.6455 -1.8121,-1.2378 -2.476,-1.7278 -0.35,-0.2529 -0.689,-0.5428 -0.917,-0.8013 -0.1208,-0.1477 -0.2714,-0.4176 -0.346,-0.6386 -0.0561,-0.2631 0.0249,-0.8133 0.1832,-1.1077 v 0 c 0.3691,-0.5086 1.0807,-0.6217 1.5893,-0.2526 v 0 c 0.5086,0.3691 0.6217,1.0807 0.2526,1.5893 v 0 c -0.3691,0.5087 -1.0807,0.6218 -1.5893,0.2526 v 0 c -0.5087,-0.3691 -0.6218,-1.0807 -0.2526,-1.5893 0.4316,-0.4358 1.0201,-0.6266 1.3298,-0.6609 v 0 c 0.643,-0.0445 1.2004,0.4407 1.2449,1.0837 v 0 c 0.0445,0.6431 -0.4406,1.2004 -1.0837,1.245 v 0 c -0.643,0.0445 -1.2004,-0.4407 -1.2449,-1.0837 v 0 c -0.0445,-0.643 0.4406,-1.2004 1.0837,-1.245 0.2983,-0.0281 0.6138,-0.0251 0.8357,-0.03 v 0 c 0.6605,0.0146 1.1842,0.5618 1.1696,1.2223 v 0 c -0.0145,0.6605 -0.5618,1.1842 -1.2223,1.1696 v 0 c -0.6605,-0.0145 -1.1842,-0.5618 -1.1696,-1.2223 v 0 c 0.0145,-0.6605 0.5618,-1.1841 1.2223,-1.1696 1.8554,0.2316 4.3616,1.3838 6.7515,4.5523 v 0 c 0.2386,0.292 0.1953,0.7221 -0.0967,0.9607 v 0 c -0.292,0.2385 -0.7221,0.1952 -0.9606,-0.0968 -2.4136,-2.7103 -4.2805,-3.1826 -5.7469,-3.0243 -0.2508,-0.0153 -0.4676,-0.0364 -0.6218,-0.0332 -0.1428,-0.003 0.0728,-0.1069 0.3509,-0.331 0.0759,-0.1809 0.1361,-0.596 0.1144,-0.7044 -0.0403,-0.0666 -0.1015,-0.1625 -0.0843,-0.1189 0.048,0.1241 0.1792,0.2863 0.4413,0.5381 0.5451,0.5068 1.3983,1.1613 2.2753,1.9006 0.7785,0.5755 1.6209,1.1948 2.2861,1.7922 0.6728,0.6095 1.2877,1.4053 1.4161,2.2143 0.0381,0.6966 -0.3233,1.4513 -0.6679,1.8726 -0.7523,0.7979 -2.0529,1.426 -3.1529,1.6921 -0.9983,0.0915 -2.197,-0.1171 -2.8962,-0.6191 -0.1849,-0.1605 -0.4458,-0.4913 -0.5564,-0.757 -0.0805,-0.2771 -0.0889,-0.7567 -0.006,-1.0324 0.1951,-0.4464 0.6467,-0.9446 1.1719,-1.2848 v 0 c 0.4369,-0.31 1.0423,-0.2072 1.3523,0.2296 v 0 c 0.31,0.4368 0.2072,1.0422 -0.2296,1.3522" />
          <path
             inkscape:connector-curvature="0"
             id="path42"
             style="fill:#000000;fill-opacity:1;fill-rule:nonzero;stroke:none"
             d="m 232.6251,649.2045 c 0.01,1.6696 -0.0296,2.8893 -0.137,3.7704 v 0 c -0.0303,0.4531 -0.4221,0.7959 -0.8752,0.7656 v 0 c -0.4531,-0.0303 -0.7958,-0.4222 -0.7655,-0.8753 v 0 c 0.0303,-0.4531 0.4221,-0.7958 0.8752,-0.7655 v 0 c 0.4531,0.0303 0.7958,0.4221 0.7655,0.8752 0.0139,0.6789 -0.0314,1.2689 -0.1306,1.712 v 0 c -0.1976,0.5171 -0.7769,0.7762 -1.294,0.5786 v 0 c -0.5171,-0.1975 -0.7762,-0.7768 -0.5786,-1.2939 v 0 c 0.1975,-0.5171 0.7768,-0.7762 1.2939,-0.5787 v 0 c 0.5171,0.1975 0.7762,0.7769 0.5787,1.294 -0.0911,0.3454 -0.2869,0.743 -0.4746,1.0069 v 0 c -0.4352,0.4462 -1.1497,0.4551 -1.5959,0.02 v 0 c -0.4462,-0.4352 -0.4551,-1.1497 -0.02,-1.5959 v 0 c 0.4352,-0.4462 1.1497,-0.4551 1.5959,-0.02 v 0 c 0.4462,0.4352 0.4552,1.1497 0.02,1.5959 -0.2262,0.2754 -0.7065,0.5782 -1.0796,0.6902 -0.4737,0.0846 -1.3045,-0.165 -1.7326,-0.5012 -0.3483,-0.3203 -0.7086,-0.8891 -0.9445,-1.4474 -0.2546,-0.8294 -0.3161,-1.7804 -0.4521,-2.7354 -0.1241,-1.0356 -0.3416,-2.275 -0.5476,-3.6234 -0.174,-1.3716 -0.339,-2.8092 -0.5144,-4.1656 -0.3215,-2.5335 -0.7464,-4.7903 -0.9597,-6.5676 -0.0735,-0.8554 -0.1128,-1.639 -0.0508,-2.2556 0.03,-0.3449 0.1012,-0.7379 0.1998,-1.0238 0.114,-0.3025 0.3944,-0.746 0.7031,-0.9924 0.4002,-0.2254 1.082,-0.2531 1.3603,-0.1574 0.2254,0.1004 0.4898,0.2788 0.6654,0.4293 0.3256,0.2874 0.7112,0.7259 1.0772,1.2006 0.7222,0.9405 1.5651,2.247 2.2787,3.4897 0.9491,1.6085 1.8191,3.3194 2.478,4.6405 0.3574,0.7065 0.6226,1.288 0.8026,1.5885 0.109,0.1789 0.1599,0.2427 0.1667,0.2177 -0.0243,-0.0398 -0.3232,-0.3014 -0.7914,-0.4891 -0.3743,-0.0149 -1.1383,0.3118 -1.3597,0.5471 -0.1215,0.1999 -0.2235,0.4793 -0.2433,0.5583 0.0481,0.0828 -0.1347,-0.462 -0.3181,-1.301 -0.1416,-0.6576 -0.3988,-1.4775 -0.614,-2.3432 -0.313,-1.3502 -0.4074,-2.6756 -0.4555,-3.6424 -0.0203,-0.6044 -0.027,-1.2449 0.0584,-1.7748 0.0983,-0.451 0.4391,-1.0388 0.7421,-1.3095 0.3464,-0.2449 0.9468,-0.4327 1.3183,-0.4312 0.4731,0.0363 1.1348,0.2938 1.5545,0.6242 0.6401,0.5769 1.0225,1.3736 1.2691,1.7769 0.1524,0.245 0.2363,0.3553 0.2861,0.3818 -0.001,-9e-4 -0.2154,-0.1385 -0.4275,-0.2216 -0.1462,-0.0229 -0.5499,0.006 -0.7547,0.0713 -0.1795,0.0997 -0.4594,0.356 -0.5389,0.4632 0.0167,0.3634 -0.2046,-0.5602 -0.1966,-1.6337 0.0135,-0.9623 0.3335,-2.1902 1.0375,-2.959 0.6812,-0.5097 1.6813,-0.6298 2.308,-0.5335 0.6431,0.1094 1.4859,0.3924 2.2586,0.7988 0.8899,0.4809 1.7086,1.217 2.3794,1.7981 1.0928,0.9329 2.1878,1.9501 2.8637,2.8597 0.4109,0.5928 0.7282,1.5321 0.71,2.2727 -0.0913,0.4594 -0.4372,1.1066 -0.7149,1.4009 -0.2783,0.2528 -0.7115,0.5193 -1.019,0.6518 -0.639,0.2464 -1.4963,0.4041 -2.2625,0.4565 -0.7572,0.0487 -1.6385,0.0296 -2.4378,-0.0429 -0.7966,-0.0951 -1.6441,-0.254 -2.3462,-0.4487 -0.4724,-0.1282 -0.9739,-0.2996 -1.3643,-0.4767 -0.3222,-0.2192 -0.6997,-0.5208 -0.9333,-0.808 v 0 c -0.566,-0.4853 -0.6315,-1.3376 -0.1462,-1.9037 v 0 c 0.4853,-0.5661 1.3376,-0.6315 1.9037,-0.1462 v 0 c 0.566,0.4853 0.6315,1.3376 0.1462,1.9037 v 0 c -0.4853,0.566 -1.3376,0.6315 -1.9037,0.1462 -0.2333,-0.3125 -0.5119,-0.9183 -0.5107,-1.3913 v 0 c -0.0395,-0.6215 0.4323,-1.1574 1.0538,-1.1969 v 0 c 0.6215,-0.0396 1.1574,0.4322 1.1969,1.0537 v 0 c 0.0395,0.6216 -0.4323,1.1574 -1.0538,1.197 v 0 c -0.6215,0.0395 -1.1574,-0.4323 -1.1969,-1.0538 0.0836,-0.4367 0.4122,-0.9804 0.7432,-1.2081 v 0 c 0.3638,-0.3429 0.9366,-0.326 1.2795,0.0377 v 0 c 0.343,0.3638 0.3261,0.9366 -0.0377,1.2796 v 0 c -0.3637,0.3429 -0.9366,0.326 -1.2795,-0.0378 v 0 c -0.3429,-0.3637 -0.326,-0.9366 0.0377,-1.2795 0.3002,-0.1732 0.7263,-0.349 1.1889,-0.4716 v 0 c 0.3455,-0.151 0.748,0.007 0.8989,0.3523 v 0 c 0.1509,0.3455 -0.007,0.748 -0.3523,0.8989 -0.3213,0.2198 -0.4449,0.3819 -0.4937,0.5376 -0.0179,0.1014 0.1626,-0.1223 0.2657,-0.2522 0.0207,-0.1664 -0.0708,-0.4787 0.0175,-0.5155 0.0879,-0.0115 0.1665,-0.0552 0.4016,-0.0385 0.2463,0.0923 0.514,0.1616 0.8933,0.2386 0.5756,0.1129 1.1917,0.1819 1.8775,0.2126 0.6832,0.0533 1.3031,0.058 1.8987,0.006 0.5865,-0.048 0.9336,-0.1151 1.1831,-0.2397 0.0909,-0.0338 -0.0198,0.0378 -0.0652,0.0633 -0.0449,0.0671 -0.2478,0.4545 -0.2996,0.6175 0.065,0.1156 0.1341,0.2816 -0.0291,0.009 -0.3602,-0.6519 -1.157,-1.4958 -2.1436,-2.462 -0.6647,-0.6388 -1.2099,-1.2063 -1.7368,-1.5077 -0.5608,-0.3298 -0.9721,-0.4851 -1.373,-0.5666 -0.3261,-0.0779 -0.1403,-0.1525 0.0492,-0.2071 -0.1673,0.0375 -0.2118,0.3243 -0.2267,1.0004 -0.0235,0.7384 0.2131,1.9153 -0.1909,2.9714 -0.1137,0.1637 -0.4342,0.4576 -0.6597,0.5779 -0.2505,0.0858 -0.7055,0.1176 -0.9077,0.0821 -0.3238,-0.1083 -0.6686,-0.3342 -0.8128,-0.4736 -0.2368,-0.2509 -0.4907,-0.6197 -0.6811,-0.9551 -0.3197,-0.5556 -0.4991,-1.0325 -0.6637,-1.113 -0.1112,-0.1031 0.009,-0.0473 0.005,-0.0207 0.0666,-0.005 0.3574,-0.0943 0.4541,-0.1265 0.0533,-0.0581 0.2043,-0.3189 0.2372,-0.3186 -0.0266,0.2421 0.0108,0.6332 0.0622,1.2127 0.0674,0.9423 0.1531,2.008 0.4415,3.1306 0.1856,0.7823 0.444,1.6364 0.6104,2.4314 0.1495,0.7308 0.3808,1.56 0.3211,2.3331 -0.0258,0.1172 -0.137,0.4243 -0.2706,0.6411 -0.2339,0.2527 -1.0133,0.5862 -1.406,0.5681 -0.5049,-0.194 -0.8525,-0.5015 -0.9368,-0.6218 -0.1136,-0.1865 -0.2285,-0.4235 -0.3262,-0.6473 -0.1969,-0.4339 -0.4289,-1.0459 -0.7245,-1.7205 -0.5958,-1.332 -1.3708,-2.9913 -2.2297,-4.5633 -0.6719,-1.1946 -1.4284,-2.3888 -2.078,-3.249 -0.3199,-0.4256 -0.5632,-0.7123 -0.7545,-0.8798 -0.0829,-0.0769 -0.0489,-0.0583 -0.0191,-0.0382 0.0829,0.0155 0.6042,-0.0129 0.8856,-0.1475 0.1091,-0.0938 0.2357,-0.2562 0.2438,-0.1732 -0.007,0.0997 0.006,0.1966 0.0274,0.4222 0.0469,0.4037 0.1788,0.9727 0.3604,1.778 0.3144,1.6581 0.861,3.9151 1.3159,6.5211 0.2371,1.3735 0.4607,2.8072 0.6892,4.1483 0.1892,1.3147 0.4024,2.6032 0.5278,3.7393 0.0988,1.088 0.088,1.8341 0.1887,2.1922 0.0422,0.3709 -0.008,0.4081 -0.0288,0.4509 -0.1008,0.0267 -0.5876,-0.1031 -0.7161,-0.0615 -0.0763,0.075 -0.2646,0.2205 -0.2257,0.2241 0.0775,-0.008 0.1198,0.003 0.2179,-0.1463 0.1495,-0.2082 0.2637,-0.5156 0.3625,-1.1064 0.006,-0.8117 -0.0532,-1.9466 -0.1608,-3.5921 v 0 c -0.0189,-0.5353 0.3996,-0.9846 0.9349,-1.0036 v 0 c 0.5353,-0.0189 0.9847,0.3997 1.0036,0.935" />
          <path
             inkscape:connector-curvature="0"
             id="path44"
             style="fill:#000000;fill-opacity:1;fill-rule:nonzero;stroke:none"
             d="m 247.9619,642.0532 c -0.0689,0.4707 -0.1973,1.0037 -0.2585,1.4545 v 0 c -0.0821,0.5396 -0.5862,0.9105 -1.1258,0.8283 v 0 c -0.5396,-0.0821 -0.9104,-0.5862 -0.8283,-1.1258 v 0 c 0.0822,-0.5396 0.5862,-0.9104 1.1258,-0.8283 v 0 c 0.5396,0.0822 0.9105,0.5862 0.8283,1.1258 0.006,0.2355 0.0608,0.37 0.1438,0.51 v 0 c 0.1327,0.6085 -0.2531,1.2093 -0.8615,1.342 v 0 c -0.6085,0.1327 -1.2093,-0.2531 -1.342,-0.8615 v 0 c -0.1327,-0.6085 0.2531,-1.2094 0.8615,-1.342 v 0 c 0.6085,-0.1327 1.2093,0.2531 1.342,0.8615 0.0345,0.0578 0.0414,0.009 0.0612,-0.0125 v 0 c 0.3142,0.5818 0.0972,1.3082 -0.4846,1.6224 v 0 c -0.5819,0.3141 -1.3083,0.0971 -1.6224,-0.4847 v 0 c -0.3142,-0.5819 -0.0972,-1.3082 0.4846,-1.6224 v 0 c 0.5819,-0.3142 1.3083,-0.0972 1.6224,0.4847 -0.004,-0.0409 -0.2071,-0.2833 -0.3993,-0.4304 -0.3885,-0.0913 -0.9154,-0.009 -1.0164,0.0296 -0.0607,0.0366 -0.1373,0.092 -0.122,0.0636 0.0482,-0.0656 0.0865,-0.1461 0.146,-0.2831 0.4586,-0.5368 0.3012,-2.9245 0.204,-4.9517 -0.0521,-0.9444 -0.1665,-1.8347 -0.1839,-2.5524 -0.0151,-0.4472 0.0628,-0.9938 0.213,-1.3737 0.1048,-0.2147 0.4046,-0.5771 0.6818,-0.7636 0.3315,-0.1451 0.9934,-0.1649 1.3117,-0.0547 0.9416,0.6112 1.4949,1.8419 2.019,2.8148 0.6861,1.3424 1.5445,2.8765 2.2622,4.1037 0.3047,0.5359 0.5577,0.9667 0.7641,1.2601 0.1137,0.1696 -0.024,0.0899 -0.237,0.0146 -0.1739,0.0121 -0.6117,0.1853 -0.7414,0.299 -0.0649,0.1089 -0.1346,0.284 -0.1316,0.2691 0.0699,-0.2079 -0.1222,-0.9198 -0.2572,-1.813 -0.1728,-0.9648 -0.3629,-2.0856 -0.3479,-3.083 -0.0263,-0.7869 0.1671,-1.8039 0.6902,-2.5654 0.3093,-0.3786 0.8119,-0.7706 1.2539,-1.0103 0.4456,-0.2123 1.0349,-0.3929 1.569,-0.4911 0.5282,-0.0969 1.1684,-0.1479 1.7737,-0.1462 0.6,0.0309 1.2865,0.1142 1.9459,0.239 v 0 c 0.8138,0.1426 1.358,0.9179 1.2154,1.7318 v 0 c -0.1426,0.8138 -0.9179,1.358 -1.7318,1.2154 v 0 c -0.8139,-0.1426 -1.358,-0.9179 -1.2154,-1.7318 v 0 c 0.1426,-0.8139 0.9179,-1.358 1.7318,-1.2154 0.3294,0.0572 0.6877,0.1307 1.0297,0.2114 v 0 c 0.8047,0.1917 1.3017,0.9996 1.1099,1.8043 v 0 c -0.1917,0.8048 -0.9996,1.3017 -1.8043,1.11 v 0 c -0.8048,-0.1918 -1.3017,-0.9996 -1.11,-1.8044 v 0 c 0.1918,-0.8047 0.9996,-1.3017 1.8044,-1.1099 0.988,0.3635 2.0679,0.8447 3.1074,1.4127 v 0 c 0.5746,0.2405 0.8453,0.9013 0.6048,1.4758 v 0 c -0.2406,0.5745 -0.9013,0.8453 -1.4759,0.6047 v 0 c -0.5745,-0.2405 -0.8453,-0.9013 -0.6047,-1.4758 v 0 c 0.2405,-0.5745 0.9013,-0.8453 1.4758,-0.6047 0.3012,0.287 0.6111,0.5887 0.9075,0.8956 v 0 c 0.3398,0.1633 0.483,0.5712 0.3197,0.9111 v 0 c -0.1633,0.3398 -0.5712,0.4829 -0.9111,0.3196 -0.4054,-0.0303 -0.7945,-0.0423 -1.1872,-0.0458 -1.0421,-0.3036 -1.9971,-0.4845 -2.9307,-0.5789 -0.2986,-0.072 -0.5682,-0.1284 -0.8517,-0.1785 -0.5663,-0.09 -1.0453,-0.1313 -1.5307,-0.1364 -0.48,-0.0344 -0.8452,-0.0327 -1.2224,0.0103 -0.3713,0.0417 -0.5876,0.0882 -0.828,0.1887 -0.2439,0.0732 -0.3076,0.0798 -0.4252,0.1842 -0.2682,0.1338 -0.349,0.3152 -0.4477,0.8992 -0.0775,0.7593 0.0309,1.6899 0.1417,2.663 0.1117,0.7928 0.3282,1.7149 0.2305,2.4678 -0.0358,0.2075 -0.1719,0.5444 -0.3265,0.7556 -0.2196,0.2161 -0.7706,0.4322 -1.077,0.4287 -0.4779,-0.1064 -0.9577,-0.4508 -1.2297,-0.7709 -0.3099,-0.362 -0.6625,-0.8667 -1.0161,-1.4016 -0.7871,-1.2204 -1.7317,-2.7774 -2.495,-4.1297 -0.5758,-1.0718 -0.921,-1.9463 -0.8298,-1.7104 0.1619,0.0411 0.6826,0.0258 0.8911,-0.052 0.1542,-0.1191 0.349,-0.3512 0.3699,-0.3836 -0.0177,-0.015 -0.0238,0.012 -0.0165,0.2619 0.0241,0.5676 0.1533,1.4422 0.2286,2.4705 0.1638,2.0135 0.3788,4.8618 -0.3401,6.4281 -0.1506,0.2385 -0.3768,0.5392 -0.5794,0.7441 -0.1102,0.107 -0.3087,0.27 -0.4795,0.372 -0.2111,0.1045 -0.8362,0.2096 -1.3025,0.0847 -0.3042,-0.1953 -0.6111,-0.5525 -0.7041,-0.7586 -0.0695,-0.1872 -0.1375,-0.4516 -0.1577,-0.6447 -0.0264,-0.3617 -4e-4,-0.8686 0.1056,-1.288 0.0907,-0.5462 0.2335,-1.0882 0.2963,-1.4575 v 0 c 0.083,-0.5291 0.5792,-0.8909 1.1084,-0.8079 v 0 c 0.5292,0.083 0.8909,0.5792 0.8079,1.1084 z" />
          <path
             inkscape:connector-curvature="0"
             id="path46"
             style="fill:#000000;fill-opacity:1;fill-rule:nonzero;stroke:none"
             d="m 285.2548,660.1016 c -0.2237,0.5959 -0.4557,1.0889 -0.598,1.3455 v 0 c -0.3525,0.4754 -1.0236,0.575 -1.499,0.2226 v 0 c -0.4754,-0.3525 -0.5751,-1.0237 -0.2226,-1.499 v 0 c 0.3525,-0.4754 1.0236,-0.5751 1.499,-0.2226 v 0 c 0.4754,0.3525 0.5751,1.0236 0.2226,1.499 -0.1032,0.1459 -1.8137,-0.0225 -2.0005,-0.627 v 0 c -8e-4,-0.616 0.4979,-1.1161 1.1139,-1.117 v 0 c 0.616,-8e-4 1.1161,0.4978 1.1169,1.1138 v 0 c 9e-4,0.6161 -0.4978,1.1161 -1.1138,1.117 v 0 c -0.616,9e-4 -1.1161,-0.4978 -1.117,-1.1138 4e-4,-0.2 0.0222,-0.3619 0.0321,-0.4438 v 0 c 0.1914,-0.6109 0.8418,-0.9511 1.4527,-0.7597 v 0 c 0.611,0.1914 0.9511,0.8417 0.7597,1.4527 v 0 c -0.1913,0.6109 -0.8417,0.9511 -1.4526,0.7597 v 0 c -0.611,-0.1914 -0.9511,-0.8418 -0.7598,-1.4527 0.0148,-0.1427 0.0616,-0.352 0.1233,-0.5826 0.1213,-0.4549 0.3482,-1.1171 0.6272,-1.8303 v 0 c 0.3413,-0.7073 1.1914,-1.0041 1.8988,-0.6628 v 0 c 0.7073,0.3413 1.004,1.1914 0.6627,1.8988 v 0 c -0.3413,0.7073 -1.1913,1.004 -1.8987,0.6627 v 0 c -0.7073,-0.3413 -1.0041,-1.1914 -0.6628,-1.8987 0.2927,-0.6143 0.6181,-1.3139 0.9868,-2.0315 v 0 c 0.3647,-0.7019 1.2293,-0.9752 1.9311,-0.6106 v 0 c 0.7019,0.3647 0.9752,1.2293 0.6105,1.9311 v 0 c -0.3646,0.7019 -1.2292,0.9752 -1.9311,0.6106 v 0 c -0.7018,-0.3647 -0.9751,-1.2293 -0.6105,-1.9311 0.5307,-0.9337 1.1808,-1.9639 1.9374,-2.8713 v 0 c 0.4464,-0.5708 1.271,-0.6716 1.8418,-0.2252 v 0 c 0.5708,0.4464 0.6716,1.271 0.2252,1.8418 v 0 c -0.4464,0.5708 -1.271,0.6716 -1.8418,0.2252 v 0 c -0.5708,-0.4464 -0.6716,-1.271 -0.2252,-1.8418 1.4251,-1.4692 3.3927,-2.7474 5.8033,-2.991 v 0 c 0.3712,-0.0665 0.726,0.1805 0.7924,0.5516 v 0 c 0.0665,0.3712 -0.1805,0.7259 -0.5516,0.7924 -1.9358,0.5349 -3.0541,1.7306 -3.9771,3.2636 -0.5852,0.8081 -1.0359,1.6659 -1.4627,2.5752 -0.3495,0.6646 -0.6616,1.3217 -0.9669,1.9469 -0.3645,0.6206 -0.6649,1.1603 -0.8773,1.5299 -0.105,0.1815 -0.1768,0.2901 -0.2224,0.3401 -0.0202,0.0145 -0.0141,-0.0824 -0.0137,-0.2524 -0.1867,-0.5745 -1.8814,-0.7481 -1.9517,-0.6465 0.0875,-0.0534 0.2886,-0.3473 0.5413,-0.844 v 0 c 0.2141,-0.491 0.7857,-0.7155 1.2767,-0.5014 v 0 c 0.4909,0.2141 0.7154,0.7856 0.5014,1.2766 z" />
          <path
             inkscape:connector-curvature="0"
             id="path48"
             style="fill:#000000;fill-opacity:1;fill-rule:nonzero;stroke:none"
             d="m 303.9785,659.0887 c -0.0485,0.1808 0.0293,0.6256 0.0953,1.1207 v 0 c 0.0707,0.5309 -0.3025,1.0186 -0.8334,1.0893 v 0 c -0.531,0.0707 -1.0187,-0.3025 -1.0894,-0.8334 v 0 c -0.0706,-0.531 0.3025,-1.0187 0.8335,-1.0894 v 0 c 0.5309,-0.0706 1.0186,0.3025 1.0893,0.8335 0.0887,0.3507 0.1516,0.764 0.1558,1.0894 v 0 c -0.0841,0.5999 -0.6387,1.018 -1.2386,0.9338 v 0 c -0.5999,-0.0841 -1.018,-0.6387 -0.9339,-1.2386 v 0 c 0.0842,-0.5999 0.6387,-1.018 1.2386,-0.9339 v 0 c 0.6,0.0842 1.0181,0.6387 0.9339,1.2387 -0.009,0.1888 -0.1169,0.5528 -0.2857,0.8256 v 0 c -0.4195,0.4845 -1.1523,0.5372 -1.6368,0.1178 v 0 c -0.4846,-0.4195 -0.5373,-1.1523 -0.1178,-1.6368 v 0 c 0.4194,-0.4846 1.1523,-0.5373 1.6368,-0.1179 v 0 c 0.4845,0.4195 0.5372,1.1523 0.1178,1.6369 -0.1269,0.1451 -0.4814,0.3742 -0.7125,0.451 -0.2286,0.0382 -0.6139,6e-4 -0.7876,-0.0504 -0.7641,-0.4251 -1.1878,-1.1106 -1.5078,-1.5373 -0.5327,-0.7757 -1.1588,-1.8633 -1.9021,-2.9917 -0.8189,-1.3418 -1.9904,-2.7105 -3.1979,-4.1382 -0.9145,-1.159 -1.8848,-2.2754 -2.7793,-3.3073 -0.6779,-0.7769 -1.3091,-1.4761 -1.8019,-2.0396 -0.6108,-0.6842 -1.0039,-1.3023 -1.1218,-1.5061 v 0 c -0.2576,-0.2754 -0.2432,-0.7074 0.0322,-0.965 v 0 c 0.2754,-0.2576 0.7074,-0.2432 0.965,0.0322 v 0 c 0.2575,0.2754 0.2431,0.7074 -0.0322,0.965 v 0 c -0.2754,0.2575 -0.7074,0.2431 -0.965,-0.0322 1.1216,-0.7671 1.444,-0.1481 2.004,0.5691 0.4349,0.5626 1.0876,1.2005 1.6732,1.8553 0.9592,1.0335 1.6204,1.9941 2.0959,2.503 0.1896,0.1668 0.3314,0.2845 0.4345,0.3336 0.0444,0.0195 0.0176,-0.0233 -0.006,-0.0622 -0.0538,-0.0418 -0.3802,-0.1182 -0.597,-0.1091 -0.2086,0.0752 -0.5083,0.3321 -0.5776,0.4061 -0.0371,0.0486 -0.0777,0.1263 -0.0923,0.0794 -0.0195,-0.1219 -0.0567,-0.3262 -0.1183,-0.7274 -0.0979,-1.0704 -0.255,-2.6052 -0.5816,-4.3323 -0.2342,-1.3106 -0.6602,-2.7254 -1.0675,-4.1439 -0.9579,-3.9296 -2.0509,-7.324 -2.4633,-9.3881 -0.1038,-0.5216 -0.1724,-1.0068 -0.1773,-1.3787 v 0 c -0.044,-0.5182 0.3404,-0.974 0.8586,-1.018 v 0 c 0.5182,-0.044 0.974,0.3404 1.018,0.8586 v 0 c 0.044,0.5182 -0.3404,0.974 -0.8586,1.018 v 0 c -0.5182,0.044 -0.974,-0.3404 -1.018,-0.8586 -5e-4,-0.3935 0.1341,-0.9465 0.4648,-1.312 v 0 c 0.3479,-0.3195 0.889,-0.2964 1.2085,0.0515 v 0 c 0.3195,0.348 0.2965,0.8891 -0.0515,1.2086 v 0 c -0.3479,0.3195 -0.889,0.2964 -1.2085,-0.0515 v 0 c -0.3195,-0.348 -0.2965,-0.8891 0.0515,-1.2086 0.4684,-0.2613 1.1434,-0.1822 1.4876,0.0415 v 0 c 0.367,0.2138 0.4911,0.6846 0.2773,1.0516 v 0 c -0.2138,0.367 -0.6847,0.4911 -1.0516,0.2773 v 0 c -0.367,-0.2139 -0.4912,-0.6847 -0.2773,-1.0517 v 0 c 0.2138,-0.3669 0.6846,-0.4911 1.0516,-0.2772 0.2956,0.2092 0.674,0.554 1.1012,1.0024 v 0 c 0.2723,0.2608 0.2816,0.6929 0.0209,0.9653 v 0 c -0.2608,0.2723 -0.693,0.2816 -0.9653,0.0208 -0.4321,-0.3745 -0.7226,-0.5752 -0.9311,-0.6596 -0.1599,-0.0701 0.1757,-0.033 0.4437,-0.1103 0.1303,-0.1815 0.2034,-0.3244 0.2548,-0.1075 0.0469,0.2384 0.1434,0.5639 0.2922,1.0276 0.598,1.8771 1.9154,5.2177 3.1205,9.1719 0.3693,1.4121 0.7941,2.9627 1.0248,4.4353 0.2696,1.8427 0.3674,3.5219 0.3943,4.6289 -0.0118,0.4674 -0.0531,0.8707 -0.1247,1.1495 -0.0407,0.1535 -0.1195,0.3798 -0.206,0.5321 -0.1186,0.1775 -0.4791,0.4931 -0.759,0.5887 -0.2926,0.0307 -0.7032,-0.0648 -0.8506,-0.1588 -0.1168,-0.0913 -0.2466,-0.2197 -0.3155,-0.3116 -0.1232,-0.1736 -0.2487,-0.3816 -0.3742,-0.5835 -0.5041,-0.6369 -1.093,-1.5959 -1.9465,-2.5914 -0.5533,-0.62 -1.2329,-1.2867 -1.7331,-1.9271 -0.6216,-0.8031 -1.0052,-1.5244 -0.926,-1.4071 1.2731,-0.7156 1.7006,-0.2291 2.3157,0.2982 0.5688,0.4855 1.2915,1.1222 2.0614,1.8374 1.0071,0.9278 2.1276,1.98 3.1939,3.0786 1.2545,1.3784 2.5924,2.8426 3.5902,4.321 0.7616,1.2075 1.365,2.3083 1.8115,2.9975 0.3503,0.5761 0.4514,0.9088 0.272,0.7249 -0.1071,-0.0235 -0.4335,-0.0535 -0.6103,-0.0256 -0.1793,0.0665 -0.4892,0.2675 -0.5781,0.3687 -0.0927,0.1848 -0.1512,0.3977 -0.1321,0.3887 0.0598,-0.0706 0.0903,-0.2404 0.0939,-0.5289 -0.0625,-0.4706 -0.1599,-1.1404 -0.0859,-1.6952 v 0 c 0.088,-0.5284 0.5877,-0.8854 1.1161,-0.7974 v 0 c 0.5283,0.0881 0.8853,0.5877 0.7973,1.1161 z" />
          <path
             inkscape:connector-curvature="0"
             id="path50"
             style="fill:#000000;fill-opacity:1;fill-rule:nonzero;stroke:none"
             d="m 297.7284,637.2549 c 1.1947,2.0168 1.9769,2.1362 3.4578,2.9388 v 0 c 0.5966,0.3724 0.7784,1.1579 0.406,1.7546 v 0 c -0.3723,0.5967 -1.1579,0.7785 -1.7546,0.4061 v 0 c -0.5966,-0.3724 -0.7784,-1.158 -0.4061,-1.7546 v 0 c 0.3724,-0.5967 1.158,-0.7785 1.7547,-0.4061 0.6547,0.4052 1.3758,0.9384 2.1294,1.6275 v 0 c 0.5215,0.4819 0.5535,1.2954 0.0715,1.8168 v 0 c -0.482,0.5215 -1.2954,0.5535 -1.8168,0.0715 v 0 c -0.5215,-0.482 -0.5535,-1.2954 -0.0715,-1.8169 v 0 c 0.4819,-0.5214 1.2954,-0.5534 1.8168,-0.0714 1.1344,1.1343 2.4288,2.8942 2.8842,4.2912 v 0 c 0.2041,0.5793 -0.1,1.2143 -0.6793,1.4184 v 0 c -0.5792,0.204 -1.2142,-0.1001 -1.4183,-0.6793 v 0 c -0.2041,-0.5792 0.1,-1.2142 0.6793,-1.4183 v 0 c 0.5792,-0.2041 1.2142,0.1 1.4183,0.6792 0.1834,0.5383 0.305,1.3294 0.0387,2.0153 -0.373,0.5362 -1.1036,0.8862 -1.6079,0.9453 -0.4805,0.0381 -1.1034,-0.0357 -1.6006,-0.1821 -1.9278,-0.6367 -3.711,-2.7308 -4.9332,-4.9511 -0.6735,-1.1827 -1.3747,-2.6631 -1.6812,-4.2438 -0.1939,-0.9298 -0.2917,-2.0372 -0.1562,-3.0175 0.1668,-1.1258 0.8373,-2.2958 1.6467,-3.0545 0.8312,-0.7342 2.0553,-1.3388 3.2572,-1.6651 0.8076,-0.2013 1.7501,-0.2869 2.6616,-0.3139 2.079,0.0115 4.621,0.4318 6.7668,0.9038 1.0271,0.2889 1.9871,0.6037 2.7904,0.9053 1.0414,0.5026 1.9022,1.013 2.4367,1.4489 v 0 c 0.5971,0.2787 0.8553,0.9887 0.5766,1.5859 v 0 c -0.2788,0.5971 -0.9888,0.8553 -1.5859,0.5766 v 0 c -0.5972,-0.2787 -0.8553,-0.9888 -0.5766,-1.5859 v 0 c 0.2787,-0.5972 0.9887,-0.8553 1.5859,-0.5766 0.2702,0.2205 0.5157,0.4538 0.6553,0.6563 v 0 c 0.42,0.3032 0.5146,0.8895 0.2114,1.3095 v 0 c -0.3032,0.42 -0.8895,0.5147 -1.3095,0.2114 v 0 c -0.42,-0.3032 -0.5147,-0.8895 -0.2115,-1.3095 v 0 c 0.3033,-0.42 0.8896,-0.5147 1.3096,-0.2114 0.0754,0.1084 0.1916,0.2751 0.2504,0.4222 v 0 c 0.254,0.3685 0.1612,0.8731 -0.2073,1.1271 v 0 c -0.3685,0.254 -0.8731,0.1612 -1.1271,-0.2073 v 0 c -0.254,-0.3685 -0.1611,-0.8731 0.2073,-1.1271 v 0 c 0.3685,-0.254 0.8731,-0.1612 1.1271,0.2073 0.0619,0.191 0.0542,0.7328 -0.1398,0.9883 v 0 c -0.2452,0.2864 -0.6762,0.3198 -0.9626,0.0746 v 0 c -0.2864,-0.2452 -0.3198,-0.6762 -0.0746,-0.9626 -0.1573,0.2128 -0.1716,0.6977 -0.1574,0.8195 0.0111,0.0779 0.0384,0.163 -0.0142,0.1789 -0.1164,0.0176 -0.2835,0.0229 -0.5664,-0.0147 -0.5718,-0.0805 -1.3791,-0.2069 -2.4389,-0.3575 -0.7726,-0.1882 -1.632,-0.3725 -2.6136,-0.5478 -2.0357,-0.4945 -4.2237,-0.9069 -5.9782,-0.945 -0.8138,-0.0492 -1.3921,-0.0646 -1.9324,0.0155 -0.9292,0.1185 -1.5413,0.3066 -2.0939,0.6866 -0.5744,0.3554 -0.8353,0.6209 -0.9898,1.2258 -0.1676,0.6531 -0.1532,1.3459 -0.048,2.1581 0.1878,1.2984 0.7051,2.4548 1.2986,3.5921 1.1065,2.0442 2.3787,3.6164 3.6323,3.9245 0.3155,0.0949 0.5418,0.1191 0.7648,0.0858 0.1993,-0.0122 0.0268,0.0969 -0.1156,0.1968 0.0103,0.1625 -0.0384,0.1708 -0.1926,-0.2489 -0.3672,-0.9375 -1.4766,-2.2524 -2.5319,-3.142 -0.6572,-0.6149 -1.1731,-1.0025 -1.7327,-1.3551 -1.2548,-0.9049 -2.5551,-1.7055 -3.811,-4.1687 v 0 c -0.257,-0.4699 -0.0844,-1.0592 0.3855,-1.3163 v 0 c 0.4699,-0.257 1.0592,-0.0845 1.3163,0.3855 z" />
        </g>
      </g>
    </g>
  </g>
</svg>
